<svg id="Layer_1" data-name="Layer 1" xmlns="http://www.w3.org/2000/svg" viewBox="0 0 2496 2496"><defs><style>.cls-1{fill:#cddfff;}.cls-2{fill:#e55f5f;}.cls-3{fill:#f5ac37;}.cls-4{fill:#fefefd;}</style></defs><path class="cls-1" d="M965.19,1898.73h89.43c82.17,0,130,47.19,130,114.18v.66c0,67-48.51,116.16-131.34,116.16H965.19Zm64,56.43V2073h26.07c38.61,0,64-21.12,64-58.41v-.66c0-37.29-25.41-58.74-64-58.74Z"/><path class="cls-1" d="M1281.33,1897.08H1343l98.34,232.65h-68.64l-16.5-41.58h-89.43l-16.5,41.58h-67Zm56.1,141.24L1311.69,1973l-26.07,65.34Z"/><path class="cls-1" d="M1465.47,1898.73h64v231h-64Z"/><path class="cls-2" d="M459.71,2265.4h96.65c56.51,0,93.12,28.9,93.12,78.67v.64c0,53.3-40.78,81.23-96.33,81.23H522v64.22h-62.3Zm92.16,111.74c21.83,0,35.64-11.56,35.64-29.54V2347c0-19.27-13.81-29.22-36-29.22H522v59.4Z"/><path class="cls-2" d="M668.42,2378.42v-.64c0-64.54,52-116.88,121.38-116.88s120.73,52,120.73,116.24v.64c0,64.54-52,116.88-121.38,116.88S668.42,2442.64,668.42,2378.42Zm178.21,0v-.64c0-32.75-23.12-60.69-57.48-60.69s-57.15,27.62-57.15,60v.64c0,32.11,23.44,60.69,57.8,60.69C823.83,2438.47,846.63,2410.85,846.63,2378.42Z"/><path class="cls-2" d="M942.64,2265.4h62.29v170.18h108.85v54.58H942.64Z"/><path class="cls-2" d="M1164.19,2406l-85.73-140.64h71l46.24,81.88,46.56-81.88h69.67l-85.41,139.67v85.09h-62.29Z"/><path class="cls-2" d="M1302.91,2378.42v-.64c0-65.5,51.37-116.88,120.73-116.88,39.81,0,67.11,11.88,91.19,32.43l-36.61,44.31c-16.37-13.8-31.46-21.19-54.26-21.19-32.11,0-57.48,27-57.48,61.33v.64c0,36.61,25.37,62.62,61,62.62,15.41,0,27-3.22,36-9.32v-27.29h-44v-45.59h103.07v100.82c-24.08,20.23-56.19,35-97.61,35C1354.6,2494.66,1302.91,2446.82,1302.91,2378.42Z"/><path class="cls-2" d="M1549.83,2378.42v-.64c0-64.54,52-116.88,121.37-116.88s120.73,52,120.73,116.24v.64c0,64.54-52,116.88-121.37,116.88S1549.83,2442.64,1549.83,2378.42Zm178.21,0v-.64c0-32.75-23.12-60.69-57.48-60.69s-57.15,27.62-57.15,60v.64c0,32.11,23.44,60.69,57.79,60.69C1705.24,2438.47,1728,2410.85,1728,2378.42Z"/><path class="cls-2" d="M1824,2265.4h58.12l92.48,118.8V2265.4h61.64v224.76H1982l-96.33-123.3v123.3H1824Z"/><g id="Layer_1-2" data-name="Layer_1"><path class="cls-3" d="M1248,5.42c468.72,0,848.62,380,848.62,848.62s-379.9,848.63-848.62,848.63S399.38,1322.73,399.38,854,779.35,5.42,1248,5.42Z"/><path class="cls-4" d="M1279.28,914h322.46c6.87,0,10.12,0,10.62-9a617.58,617.58,0,0,0,0-98.64c0-6.38-3.17-9-10.09-9H960.52c-7.95,0-10.08,2.64-10.08,10.09v94.4c0,12.18,0,12.18,12.71,12.18Zm297.06-227a10.29,10.29,0,0,0,0-7.41,209.84,209.84,0,0,0-19.17-33.42,270.54,270.54,0,0,0-39.25-49.33,129.84,129.84,0,0,0-24.41-23.87,381.18,381.18,0,0,0-159.13-80.62,396.2,396.2,0,0,0-90.16-9.55H959.41c-7.94,0-9,3.17-9,10.09V681.13c0,7.94,0,10.08,10.08,10.08h612.05s5.3-1.07,6.37-4.24h-2.56Zm0,337.32a122.87,122.87,0,0,0-27.11,0H961.05c-7.94,0-10.61,0-10.61,10.61V1219c0,8.48,0,10.62,10.61,10.62h271.56a135.75,135.75,0,0,0,38.68-2.64,404,404,0,0,0,115.14-25.47,210.9,210.9,0,0,0,38.69-18h3.7a344.58,344.58,0,0,0,148-149s3.71-8-.46-10.12ZM843.85,1325V1031.73c0-6.91,0-7.94-8.48-7.94H720.27c-6.37,0-9,0-9-8.48V914.53h123c6.88,0,9.55,0,9.55-9V805.81c0-6.38,0-7.94-8.48-7.94H720.27c-6.37,0-9,0-9-8.48V696.06c0-5.85,0-7.41,8.48-7.41h114c7.94,0,10.08,0,10.08-10.08V392.69c0-8.48,0-10.62,10.62-10.62h397.77a606.85,606.85,0,0,1,85.92,9.55,518.67,518.67,0,0,1,166,61.52,468,468,0,0,1,93.33,72.14,510.67,510.67,0,0,1,56.75,70.53A425,425,0,0,1,1695.68,677a13.81,13.81,0,0,0,15.85,11.15h94.94c12.18,0,12.18,0,12.71,11.69v87c0,8.48-3.16,10.62-11.68,10.62h-73.21c-7.41,0-9.55,0-9,9.55a542.17,542.17,0,0,1,0,97c0,9,0,10.08,10.12,10.08h83.75c3.7,4.78,0,9.55,0,14.36a108.17,108.17,0,0,1,0,18.53v64.19c0,9-2.64,11.69-10.62,11.69H1708.29a13.26,13.26,0,0,0-15.39,10.08,424.24,424.24,0,0,1-111.4,162.3,641.41,641.41,0,0,1-56.75,45.6c-21.23,12.22-41.89,24.93-63.66,35a573.3,573.3,0,0,1-125.18,39.76,653,653,0,0,1-124.11,10.08H843.7v-.53Z"/></g></svg>