<svg xmlns="http://www.w3.org/2000/svg" width="199.125" height="23.281" viewBox="0 0 199.125 23.281">
  <defs>
    <style>
      .cls-1 {
        fill: #6f86df;
        fill-rule: evenodd;
      }
    </style>
  </defs>
  <path id="Skinsback" class="cls-1" d="M63.5,68.448c6.656,0,9.919-3.328,9.919-7.231,0-8.255-12.7-5.7-12.7-9.119,0-1.12.96-2.016,3.616-2.016a13.235,13.235,0,0,1,6.207,1.728l1.952-4.7a16.774,16.774,0,0,0-8.127-1.952c-6.655,0-9.919,3.264-9.919,7.263,0,8.319,12.735,5.728,12.735,9.279,0,1.088-1.024,1.824-3.648,1.824a14.124,14.124,0,0,1-7.391-2.208l-2.08,4.672A17.641,17.641,0,0,0,63.5,68.448ZM91.367,68h7.36L89.1,55.521,98.247,45.6H91.271L82.6,54.913V45.6H76.328V68H82.6V62.4l2.368-2.528Zm9.025,0h6.336V45.6h-6.336V68Zm25.951-22.4V57.537L116.455,45.6H111.24V68h6.207V56.065L127.335,68h5.215V45.6h-6.207ZM144.9,68.448c6.656,0,9.92-3.328,9.92-7.231,0-8.255-12.7-5.7-12.7-9.119,0-1.12.96-2.016,3.616-2.016a13.236,13.236,0,0,1,6.208,1.728l1.952-4.7a16.777,16.777,0,0,0-8.128-1.952c-6.655,0-9.919,3.264-9.919,7.263,0,8.319,12.735,5.728,12.735,9.279,0,1.088-1.024,1.824-3.648,1.824a14.123,14.123,0,0,1-7.391-2.208l-2.08,4.672A17.642,17.642,0,0,0,144.9,68.448ZM174.95,56.321a5.289,5.289,0,0,0,3.008-4.864c0-3.456-2.88-5.856-8.767-5.856H157.735V68h12.1c6.015,0,9.215-2.272,9.215-6.144A5.656,5.656,0,0,0,174.95,56.321Zm-6.591-6.143c2.112,0,3.2.736,3.2,2.144,0,1.44-1.087,2.176-3.2,2.176h-4.352v-4.32h4.352Zm0.96,13.247h-5.312V58.881h5.312c2.175,0,3.327.736,3.327,2.272S171.494,63.424,169.319,63.424ZM199.11,68H205.7l-9.92-22.4h-6.239L179.656,68h6.463l1.76-4.352h9.471Zm-9.375-9.023,2.88-7.168,2.879,7.168h-5.759Zm28.608,9.471a11.848,11.848,0,0,0,9.631-4.224l-4.032-3.648a6.621,6.621,0,0,1-5.279,2.624,6.006,6.006,0,0,1-6.24-6.4,6.006,6.006,0,0,1,6.24-6.4,6.621,6.621,0,0,1,5.279,2.624l4.032-3.648a11.848,11.848,0,0,0-9.631-4.224c-7.1,0-12.32,4.832-12.32,11.647S211.239,68.448,218.343,68.448ZM245.83,68h7.359l-9.631-12.479L252.71,45.6h-6.976l-8.671,9.311V45.6h-6.272V68h6.272V62.4l2.367-2.528Z" transform="translate(-54.063 -45.156)"/>
</svg>
