<svg id="Layer_1" data-name="Layer 1" xmlns="http://www.w3.org/2000/svg" viewBox="0 0 2496 2496"><defs><style>.cls-1{fill:#cddfff;}.cls-2{fill:#e55f5f;}.cls-3{fill:#f5ac37;}.cls-4{fill:#fefefd;}</style></defs><path class="cls-1" d="M965.19,1898.73h89.43c82.17,0,130,47.19,130,114.18v.66c0,67-48.51,116.16-131.34,116.16H965.19Zm64,56.43V2073h26.07c38.61,0,64-21.12,64-58.41v-.66c0-37.29-25.41-58.74-64-58.74Z"/><path class="cls-1" d="M1281.33,1897.08H1343l98.34,232.65h-68.64l-16.5-41.58h-89.43l-16.5,41.58h-67Zm56.1,141.24L1311.69,1973l-26.07,65.34Z"/><path class="cls-1" d="M1465.47,1898.73h64v231h-64Z"/><path class="cls-2" d="M646.59,2265.4H827.37v52.66H708.24v34.35H816.13v49.13H708.24v35.64H829v53H646.59Z"/><path class="cls-2" d="M861.08,2265.4H967.37c34.67,0,58.11,9,73.2,24.08,13.17,13.17,19.91,30.83,19.91,52.34v.64c0,34.68-18,57.48-46.24,69.36l53.63,78.34H996.26L951,2422.09H923.38v68.07h-62.3ZM964.8,2373.29c20.87,0,33.39-10.28,33.39-26.66V2346c0-18-13.16-27-33.71-27h-41.1v54.27Z"/><path class="cls-2" d="M1084.57,2378.42v-.64c0-65.5,50.09-116.88,118.16-116.88,45.59,0,75.77,19.27,95.36,46.56l-46.88,36.29c-12.84-15.74-27.29-26.33-49.13-26.33-31.46,0-53.62,27-53.62,59.72v.64c0,33.72,22.16,60,53.62,60,23.44,0,36.93-10.91,50.74-27.29l46.88,33.4c-21.52,29.21-49.77,50.73-99.22,50.73C1136.26,2494.66,1084.57,2445.53,1084.57,2378.42Z"/><path class="cls-2" d="M1316.4,2363h105.31v53.3H1316.4Z"/><path class="cls-2" d="M1445.15,2443.28l84.13-64.22c20.87-16.37,29.21-26.65,29.21-40.45,0-14.45-10-23.12-25.36-23.12-15.09,0-27,9-44.63,29.22l-42.07-35c24.09-30.83,48.17-48.16,91.52-48.16,48.8,0,82.84,29.22,82.84,71.6v.64c0,36-18.63,54.59-52,78.67l-38.53,27H1623v50.73H1445.15Z"/><path class="cls-2" d="M1648.08,2378.42v-.64c0-63.58,40.46-116.88,104.36-116.88s103.71,52.66,103.71,116.24v.64c0,63.58-40.14,116.88-104.36,116.88C1687.9,2494.66,1648.08,2442,1648.08,2378.42Zm145.45,0v-.64c0-36-17-62-41.74-62s-41.1,25.37-41.1,61.33v.64c0,36.28,17,61.65,41.75,61.65C1777.48,2439.43,1793.53,2414.06,1793.53,2378.42Z"/><g id="Layer_1-2" data-name="Layer_1"><path class="cls-3" d="M1248,5.42c468.72,0,848.62,380,848.62,848.62s-379.9,848.63-848.62,848.63S399.38,1322.73,399.38,854,779.35,5.42,1248,5.42Z"/><path class="cls-4" d="M1279.28,914h322.46c6.87,0,10.12,0,10.62-9a617.58,617.58,0,0,0,0-98.64c0-6.38-3.17-9-10.09-9H960.52c-7.95,0-10.08,2.64-10.08,10.09v94.4c0,12.18,0,12.18,12.71,12.18Zm297.06-227a10.29,10.29,0,0,0,0-7.41,209.84,209.84,0,0,0-19.17-33.42,270.54,270.54,0,0,0-39.25-49.33,129.84,129.84,0,0,0-24.41-23.87,381.18,381.18,0,0,0-159.13-80.62,396.2,396.2,0,0,0-90.16-9.55H959.41c-7.94,0-9,3.17-9,10.09V681.13c0,7.94,0,10.08,10.08,10.08h612.05s5.3-1.07,6.37-4.24h-2.56Zm0,337.32a122.87,122.87,0,0,0-27.11,0H961.05c-7.94,0-10.61,0-10.61,10.61V1219c0,8.48,0,10.62,10.61,10.62h271.56a135.75,135.75,0,0,0,38.68-2.64,404,404,0,0,0,115.14-25.47,210.9,210.9,0,0,0,38.69-18h3.7a344.58,344.58,0,0,0,148-149s3.71-8-.46-10.12ZM843.85,1325V1031.73c0-6.91,0-7.94-8.48-7.94H720.27c-6.37,0-9,0-9-8.48V914.53h123c6.88,0,9.55,0,9.55-9V805.81c0-6.38,0-7.94-8.48-7.94H720.27c-6.37,0-9,0-9-8.48V696.06c0-5.85,0-7.41,8.48-7.41h114c7.94,0,10.08,0,10.08-10.08V392.69c0-8.48,0-10.62,10.62-10.62h397.77a606.85,606.85,0,0,1,85.92,9.55,518.67,518.67,0,0,1,166,61.52,468,468,0,0,1,93.33,72.14,510.67,510.67,0,0,1,56.75,70.53A425,425,0,0,1,1695.68,677a13.81,13.81,0,0,0,15.85,11.15h94.94c12.18,0,12.18,0,12.71,11.69v87c0,8.48-3.16,10.62-11.68,10.62h-73.21c-7.41,0-9.55,0-9,9.55a542.17,542.17,0,0,1,0,97c0,9,0,10.08,10.12,10.08h83.75c3.7,4.78,0,9.55,0,14.36a108.17,108.17,0,0,1,0,18.53v64.19c0,9-2.64,11.69-10.62,11.69H1708.29a13.26,13.26,0,0,0-15.39,10.08,424.24,424.24,0,0,1-111.4,162.3,641.41,641.41,0,0,1-56.75,45.6c-21.23,12.22-41.89,24.93-63.66,35a573.3,573.3,0,0,1-125.18,39.76,653,653,0,0,1-124.11,10.08H843.7v-.53Z"/></g></svg>