<svg width="105" height="60" viewBox="0 0 105 60" fill="none" xmlns="http://www.w3.org/2000/svg">
<g filter="url(#filter0_d_3918_79028)">
<path fill-rule="evenodd" clip-rule="evenodd" d="M28.3871 22.339C28.3657 24.0041 29.8899 24.9334 31.038 25.4859C32.2177 26.0528 32.614 26.4163 32.6095 26.9232C32.6005 27.6991 31.6684 28.0414 30.7961 28.0547C29.2741 28.078 28.3893 27.649 27.6858 27.3244L27.1377 29.8577C27.8434 30.179 29.1503 30.4591 30.5056 30.4713C33.6867 30.4713 35.768 28.9206 35.7793 26.5163C35.7917 23.465 31.5052 23.2961 31.5344 21.9321C31.5446 21.5186 31.9442 21.0773 32.82 20.965C33.2533 20.9084 34.4499 20.865 35.8063 21.4819L36.3387 19.031C35.6093 18.7686 34.6716 18.5173 33.5044 18.5173C30.5101 18.5173 28.404 20.0891 28.3871 22.339M41.4549 18.7285C40.874 18.7285 40.3844 19.0632 40.166 19.5767L35.6217 30.2912H38.8005L39.4331 28.5649H43.3178L43.6848 30.2912H46.4865L44.0415 18.7285H41.4549ZM41.8995 21.8521L42.8169 26.1939H40.3044L41.8995 21.8521ZM24.5329 18.7285L22.0272 30.2912H25.0563L27.5609 18.7285H24.5329ZM20.0517 18.7285L16.8987 26.5985L15.6233 19.9068C15.4736 19.1599 14.8827 18.7285 14.2264 18.7285H9.07207L9 19.0643C10.0582 19.291 11.2603 19.6567 11.9886 20.048C12.4343 20.287 12.5616 20.4959 12.7079 21.064L15.1235 30.2912H18.325L23.2328 18.7285H20.0517Z" fill="white"/>
</g>
<g filter="url(#filter1_d_3918_79028)">
<path fill-rule="evenodd" clip-rule="evenodd" d="M90.4242 34.6859V34.7449H90.4783C90.4885 34.7451 90.4985 34.7425 90.5074 34.7374C90.5145 34.7323 90.5187 34.7237 90.5182 34.7148C90.5186 34.706 90.5145 34.6977 90.5074 34.6928C90.4986 34.6874 90.4886 34.6848 90.4783 34.6852H90.4242V34.6859ZM90.4789 34.644C90.5021 34.6426 90.5251 34.6494 90.5439 34.6633C90.5593 34.676 90.5677 34.6955 90.5668 34.7156C90.5674 34.7328 90.5608 34.7496 90.5484 34.7615C90.5339 34.7743 90.5157 34.7821 90.4965 34.7835L90.569 34.8678H90.5131L90.4464 34.7841H90.4247V34.8678H90.378V34.6442H90.4796L90.4789 34.644ZM90.4644 34.9449C90.4889 34.9452 90.5132 34.9401 90.5357 34.9301C90.5574 34.9207 90.577 34.907 90.5938 34.8901C90.6105 34.8731 90.6238 34.8531 90.6331 34.831C90.6522 34.7841 90.6522 34.7315 90.6331 34.6846C90.6237 34.6626 90.6104 34.6426 90.5938 34.6255C90.577 34.6086 90.5574 34.5949 90.5357 34.5855C90.513 34.5761 90.4888 34.5713 90.4644 34.5716C90.4395 34.5714 90.4149 34.5761 90.3918 34.5855C90.3697 34.5948 90.3494 34.6084 90.3324 34.6255C90.28 34.6802 90.2647 34.762 90.2936 34.8325C90.3025 34.8546 90.3156 34.8748 90.3324 34.8916C90.3495 34.9087 90.3697 34.9223 90.3918 34.9317C90.4148 34.9416 90.4394 34.9466 90.4644 34.9464M90.4644 34.5178C90.5282 34.5177 90.5895 34.5432 90.635 34.5887C90.657 34.6106 90.6744 34.6366 90.6864 34.6655C90.7115 34.7251 90.7115 34.7927 90.6864 34.8524C90.6741 34.881 90.6567 34.907 90.635 34.9291C90.6127 34.9508 90.5868 34.9684 90.5585 34.9808C90.5288 34.9937 90.4967 35.0003 90.4644 35.0001C90.4317 35.0003 90.3993 34.9938 90.3691 34.9808C90.3405 34.9687 90.3143 34.9511 90.292 34.9291C90.2704 34.9063 90.2531 34.8794 90.2414 34.8499C90.2163 34.7902 90.2163 34.7226 90.2414 34.6629C90.2533 34.6341 90.2708 34.6081 90.2928 34.5862C90.3148 34.5638 90.341 34.5463 90.3699 34.5345C90.4 34.5215 90.4325 34.515 90.4651 34.5153M68.2332 33.6542C68.2332 33.2278 68.5077 32.8775 68.9561 32.8775C69.3847 32.8775 69.674 33.2127 69.674 33.6542C69.674 34.0957 69.3847 34.4309 68.9561 34.4309C68.5077 34.4309 68.2332 34.0806 68.2332 33.6542ZM70.1625 33.6542V32.4407H69.6443V32.7364C69.48 32.5179 69.2307 32.3809 68.8916 32.3809C68.2238 32.3809 67.6997 32.9142 67.6997 33.6548C67.6997 34.3954 68.2235 34.9287 68.8916 34.9287C69.2305 34.9287 69.48 34.7915 69.6443 34.5732V34.8678H70.1619V33.6542H70.1625ZM87.671 33.6542C87.671 33.2278 87.9454 32.8775 88.394 32.8775C88.823 32.8775 89.1118 33.2127 89.1118 33.6542C89.1118 34.0957 88.823 34.4309 88.394 34.4309C87.9455 34.4309 87.671 34.0806 87.671 33.6542ZM89.6008 33.6542V31.4668H89.0822V32.7364C88.9178 32.5179 88.6686 32.3809 88.3296 32.3809C87.6616 32.3809 87.1375 32.9142 87.1375 33.6548C87.1375 34.3954 87.6614 34.9287 88.3296 34.9287C88.6686 34.9287 88.9178 34.7915 89.0822 34.5732V34.8678H89.6008V33.6542ZM76.5937 32.8525C76.9276 32.8525 77.1421 33.0657 77.1968 33.4409H75.9604C76.0158 33.0906 76.2247 32.8525 76.5938 32.8525M76.6042 32.3796C75.9058 32.3796 75.4173 32.8969 75.4173 33.6535C75.4173 34.4249 75.9254 34.9274 76.6389 34.9274C76.9977 34.9274 77.3265 34.8361 77.6157 34.5874L77.3617 34.1965C77.162 34.359 76.9077 34.4503 76.6685 34.4503C76.3346 34.4503 76.0306 34.2928 75.9558 33.8561H77.7252C77.7303 33.7905 77.7354 33.7243 77.7354 33.6533C77.7303 32.8971 77.2709 32.3794 76.6039 32.3794M82.8601 33.6533C82.8601 33.2269 83.1345 32.8766 83.5829 32.8766C84.0116 32.8766 84.3007 33.2118 84.3007 33.6533C84.3007 34.0948 84.0116 34.43 83.5829 34.43C83.1345 34.43 82.8599 34.0797 82.8599 33.6533M84.7892 33.6533V32.4407H84.2713V32.7364C84.1064 32.5179 83.8577 32.3809 83.5186 32.3809C82.8508 32.3809 82.3266 32.9142 82.3266 33.6548C82.3266 34.3954 82.8505 34.9287 83.5186 34.9287C83.8577 34.9287 84.1064 34.7915 84.2713 34.5732V34.8678H84.7893V33.6542L84.7892 33.6533ZM79.9338 33.6533C79.9338 34.3892 80.437 34.9272 81.2051 34.9272C81.5639 34.9272 81.8031 34.8459 82.0617 34.638L81.8128 34.2116C81.6182 34.3539 81.4139 34.43 81.1885 34.43C80.7748 34.4249 80.4707 34.1203 80.4707 33.6533C80.4707 33.1862 80.7748 32.8819 81.1885 32.8766C81.4134 32.8766 81.6176 32.9527 81.8128 33.095L82.0617 32.6687C81.8026 32.4607 81.5635 32.3794 81.2051 32.3794C80.437 32.3794 79.9338 32.9173 79.9338 33.6533M86.6139 32.3794C86.3149 32.3794 86.1203 32.5217 85.9857 32.7349V32.4407H85.4721V34.8664H85.9908V33.5067C85.9908 33.1053 86.1603 32.8822 86.499 32.8822C86.6099 32.8806 86.7201 32.9014 86.823 32.9432L86.9828 32.4461C86.8681 32.4001 86.7186 32.3799 86.6136 32.3799M72.7243 32.6336C72.4751 32.4663 72.1315 32.3799 71.7526 32.3799C71.1489 32.3799 70.7602 32.6745 70.7602 33.1564C70.7602 33.5519 71.0496 33.796 71.5824 33.8721L71.8272 33.9075C72.1114 33.9481 72.2455 34.0243 72.2455 34.1613C72.2455 34.3489 72.0568 34.4559 71.7024 34.4559C71.3434 34.4559 71.0844 34.3391 70.9098 34.2021L70.6663 34.6134C70.9505 34.8266 71.3094 34.9282 71.698 34.9282C72.3862 34.9282 72.785 34.5983 72.785 34.1364C72.785 33.71 72.4711 33.487 71.9526 33.411L71.7083 33.3748C71.484 33.3453 71.3043 33.2993 71.3043 33.1367C71.3043 32.9594 71.4737 32.8527 71.758 32.8527C72.0621 32.8527 72.3566 32.9694 72.5009 33.0606L72.7252 32.6342L72.7243 32.6336ZM79.4104 32.3803C79.1114 32.3803 78.9168 32.5227 78.7827 32.7358V32.4407H78.2692V34.8664H78.7873V33.5067C78.7873 33.1053 78.9568 32.8822 79.2956 32.8822C79.4064 32.8806 79.5166 32.9014 79.6195 32.9432L79.7793 32.4461C79.6646 32.4001 79.5151 32.3799 79.4101 32.3799M74.9885 32.4407H74.1412V31.7049H73.6173V32.4407H73.1341V32.9229H73.6173V34.0295C73.6173 34.5923 73.832 34.9275 74.4449 34.9275C74.6698 34.9275 74.9289 34.8565 75.0932 34.7399L74.9435 34.2882C74.7889 34.3794 74.6195 34.4254 74.4848 34.4254C74.2257 34.4254 74.1412 34.2628 74.1412 34.0194V32.9233H74.9885V32.4407ZM67.2414 34.8671V33.3447C67.2414 32.7714 66.8825 32.3856 66.304 32.3805C65.9998 32.3753 65.686 32.4717 65.4664 32.8121C65.3021 32.5431 65.043 32.3805 64.6789 32.3805C64.4244 32.3805 64.1757 32.4566 63.981 32.7407V32.4407H63.4624V34.8664H63.985V33.5214C63.985 33.1004 64.2144 32.8766 64.5687 32.8766C64.9128 32.8766 65.0869 33.105 65.0869 33.5162V34.8661H65.6107V33.5212C65.6107 33.1001 65.8498 32.8764 66.1938 32.8764C66.5476 32.8764 66.7165 33.1047 66.7165 33.5159V34.8658L67.2414 34.8671Z" fill="white"/>
<path fill-rule="evenodd" clip-rule="evenodd" d="M80.4063 28.3192H72.5537V13.9531H80.4065L80.4063 28.3192Z" fill="#FF5F00"/>
<path fill-rule="evenodd" clip-rule="evenodd" d="M73.0514 21.1366C73.0514 18.2224 74.3918 15.6264 76.4789 13.9535C74.8993 12.6855 72.9445 11.9969 70.933 12C65.9766 12 61.959 16.0905 61.959 21.1366C61.959 26.1825 65.9766 30.273 70.933 30.273C72.9445 30.2761 74.8994 29.5875 76.4791 28.3196C74.3921 26.6469 73.0514 24.0508 73.0514 21.1366" fill="#EB001B"/>
<path fill-rule="evenodd" clip-rule="evenodd" d="M91.0003 21.1366C91.0003 26.1825 86.9826 30.273 82.0264 30.273C80.0145 30.276 78.0595 29.5875 76.4795 28.3196C78.5673 26.6466 79.9077 24.0508 79.9077 21.1366C79.9077 18.2222 78.5673 15.6264 76.4795 13.9535C78.0594 12.6855 80.0145 11.997 82.0262 12C86.9825 12 91.0002 16.0905 91.0002 21.1366" fill="#F79410"/>
</g>
<g clip-path="url(#clip0_3918_79028)">
<path fill-rule="evenodd" clip-rule="evenodd" d="M52.5031 49.8407C52.5645 49.8925 52.613 49.9572 52.6451 50.03C52.6771 50.1027 52.6917 50.1816 52.6879 50.2607C52.6879 50.714 52.4185 50.9406 51.8798 50.9406H47.2516C47.0806 50.9508 46.9125 50.8944 46.7842 50.7839C46.656 50.6734 46.578 50.5178 46.5676 50.3514C46.5662 50.3301 46.566 50.3087 46.5669 50.2873C46.5672 50.1723 46.5916 50.0585 46.6387 49.9531C46.6858 49.8476 46.7546 49.7526 46.8408 49.674L50.6611 45.6742H47.7035C47.5102 45.6876 47.3183 45.6333 47.1626 45.521C47.1002 45.467 47.0512 45.4 47.0191 45.3249C46.9871 45.2499 46.973 45.1687 46.9777 45.0876C46.9777 44.6431 47.247 44.4209 47.7856 44.421H52.2086C52.3013 44.4166 52.3937 44.4316 52.4799 44.465C52.5661 44.4983 52.6441 44.5492 52.7085 44.6143C52.8295 44.7381 52.8959 44.9033 52.8933 45.0743C52.8878 45.3096 52.7897 45.5338 52.6193 45.7008L48.8126 49.6873H51.9621C52.1554 49.6742 52.3472 49.7286 52.5031 49.8407Z" fill="white"/>
<path fill-rule="evenodd" clip-rule="evenodd" d="M59.3634 47.8273C59.3104 47.8784 59.2471 47.9183 59.1776 47.9447C59.1082 47.971 59.0339 47.9833 58.9593 47.9806H54.8924C54.8819 48.4727 55.0657 48.95 55.406 49.3139C55.5862 49.4724 55.7972 49.5941 56.0264 49.672C56.2558 49.7499 56.4987 49.7823 56.7412 49.7674C57.0351 49.7707 57.3279 49.7325 57.6106 49.654C57.8824 49.5734 58.1425 49.4591 58.3843 49.3139C58.4888 49.2556 58.6064 49.2236 58.7266 49.2207C58.7965 49.2177 58.866 49.2313 58.9292 49.2603C58.9925 49.2893 59.0475 49.3329 59.0894 49.3873C59.1783 49.5049 59.2242 49.648 59.2197 49.7939C59.2204 49.9197 59.1895 50.0437 59.1299 50.1552C59.0703 50.2668 58.9836 50.3625 58.8772 50.434C58.5798 50.6352 58.2484 50.784 57.8981 50.8738C57.4866 50.9901 57.06 51.0485 56.6315 51.0471C56.0096 51.0612 55.3935 50.9263 54.8378 50.654C54.3392 50.4039 53.9274 50.0168 53.6532 49.5406C53.3657 49.0257 53.2217 48.4465 53.2354 47.8606C53.2241 47.2168 53.3695 46.5794 53.66 46.0009C53.9251 45.4733 54.3381 45.0295 54.8513 44.7209C55.3794 44.4097 55.987 44.2502 56.6041 44.2608C57.0026 44.237 57.4017 44.2973 57.7739 44.4377C58.1461 44.5781 58.4829 44.7953 58.761 45.0742C59.3061 45.7263 59.5776 46.555 59.5208 47.394C59.5259 47.4728 59.5146 47.5519 59.4876 47.6263C59.4605 47.7008 59.4182 47.7691 59.3634 47.8273ZM54.9473 47.0874H58.0694C58.1098 46.6477 57.9832 46.2088 57.7132 45.854C57.5834 45.7124 57.4223 45.601 57.2422 45.5283C57.062 45.4556 56.8673 45.4234 56.6726 45.4341C55.7049 45.4341 55.1297 45.9852 54.9473 47.0874Z" fill="white"/>
<path fill-rule="evenodd" clip-rule="evenodd" d="M66.4113 44.8543C66.8325 45.3426 67.0413 45.9716 66.9932 46.6075C66.9932 46.7765 66.9888 46.9054 66.9797 46.9943L66.7057 50.2206C66.7026 50.3313 66.6768 50.4402 66.6298 50.5409C66.5827 50.6417 66.5155 50.7323 66.4319 50.8073C66.257 50.9531 66.032 51.0293 65.8019 51.0208C65.6898 51.0274 65.5773 51.012 65.4715 50.9753C65.3656 50.9386 65.2684 50.8815 65.1858 50.8073C65.1108 50.7296 65.0548 50.6366 65.0217 50.5351C64.9885 50.4336 64.979 50.3261 64.9941 50.2206L65.268 47.0609C65.3409 46.0742 64.9391 45.5808 64.0629 45.5808C63.8457 45.5689 63.6285 45.602 63.4254 45.6779C63.2225 45.7537 63.0383 45.8707 62.8851 46.0209C62.5817 46.3629 62.4077 46.7958 62.3922 47.2475L62.1321 50.2206C62.1289 50.3313 62.1032 50.4402 62.0561 50.5409C62.0092 50.6417 61.9418 50.7323 61.8583 50.8073C61.6834 50.9531 61.4585 51.0293 61.2283 51.0208C61.1171 51.0279 61.0057 51.0126 60.9008 50.9759C60.7959 50.9392 60.7 50.8818 60.6189 50.8073C60.5458 50.7283 60.4904 50.6353 60.4563 50.5343C60.4221 50.4333 60.4099 50.3265 60.4204 50.2206L60.8587 45.0476C60.8592 44.9414 60.8841 44.8366 60.9315 44.7409C60.9788 44.6452 61.0474 44.561 61.1325 44.4944C61.3151 44.3536 61.5432 44.2803 61.776 44.2876C61.8809 44.2815 61.9858 44.296 62.0847 44.3304C62.1834 44.3647 62.2741 44.4182 62.3512 44.4875C62.4201 44.5574 62.4709 44.6422 62.4995 44.7349C62.5281 44.8277 62.5335 44.9258 62.5154 45.021L62.5018 45.2742C62.7345 44.9508 63.0509 44.6932 63.4192 44.5277C63.8223 44.3457 64.2623 44.2546 64.7066 44.2609C65.0174 44.2395 65.3295 44.2811 65.6229 44.3833C65.9164 44.4854 66.1849 44.6458 66.4113 44.8543Z" fill="white"/>
<path fill-rule="evenodd" clip-rule="evenodd" d="M43.7159 44.7711C43.4584 44.3847 43.0643 44.1037 42.6082 43.9811C42.1521 43.8586 41.6658 43.903 41.2411 44.1061C40.8844 44.2824 40.5937 44.5635 40.4101 44.9095C40.2265 45.2556 40.1594 45.6491 40.2182 46.0344C40.2771 46.4197 40.4589 46.7771 40.738 47.0562C41.0171 47.3353 41.3792 47.5218 41.7732 47.5893C41.7392 48.6333 41.2863 49.6228 40.5116 50.3453C39.737 51.0679 38.7022 51.466 37.6295 51.4542C36.5568 51.4424 35.5316 51.0217 34.7739 50.2823C34.0161 49.5429 33.5863 48.5437 33.5765 47.4992C33.5746 46.6939 33.8266 45.9074 34.2985 45.246C34.7705 44.5845 35.4396 44.0802 36.2154 43.801C36.3631 43.7489 36.4862 43.6464 36.5619 43.5125C36.6376 43.3786 36.6606 43.2224 36.6268 43.0732L36.6221 43.0534C36.6036 42.973 36.6015 42.89 36.6159 42.8089C36.6303 42.7278 36.661 42.6502 36.7062 42.5807C36.7514 42.5111 36.8103 42.4509 36.8794 42.4035C36.9485 42.3561 37.0265 42.3224 37.109 42.3043C37.1373 42.2982 37.166 42.2938 37.1949 42.2913C37.3544 42.2771 37.5147 42.27 37.676 42.2699C37.8754 42.2699 38.0747 42.2806 38.273 42.3018C38.3582 42.3108 38.4444 42.3035 38.5267 42.2801C38.6089 42.2568 38.6857 42.2178 38.7525 42.1656C38.8193 42.1134 38.875 42.0488 38.9162 41.9756C38.9574 41.9025 38.9834 41.8221 38.9927 41.7391C38.994 41.7276 38.995 41.7161 38.9955 41.7047C39.0002 41.538 38.9392 41.3759 38.825 41.2517C38.7109 41.1274 38.5522 41.0504 38.3816 41.0364C37.0387 40.8974 35.684 41.1583 34.4965 41.7845C33.3091 42.4107 32.3445 43.3728 31.7304 44.5439C31.1162 45.7149 30.8812 47.0398 31.0565 48.3436C31.2317 49.6473 31.809 50.8687 32.712 51.8464C33.615 52.8241 34.8014 53.5121 36.1144 53.8197C37.4274 54.1273 38.8053 54.0398 40.0663 53.569C41.3272 53.0982 42.4118 52.2661 43.1769 51.1826C43.942 50.099 44.3516 48.8151 44.3517 47.5002C44.3517 46.8647 44.2204 45.4948 43.7159 44.7711Z" fill="white"/>
<path fill-rule="evenodd" clip-rule="evenodd" d="M40.1939 41.494C40.3307 41.494 40.4644 41.5334 40.5781 41.6074C40.6918 41.6814 40.7805 41.7866 40.8328 41.9096C40.8852 42.0326 40.8989 42.168 40.8722 42.2986C40.8455 42.4292 40.7796 42.5492 40.6829 42.6434C40.5862 42.7376 40.463 42.8017 40.3288 42.8277C40.1947 42.8536 40.0556 42.8403 39.9293 42.7893C39.8029 42.7384 39.6949 42.6521 39.6189 42.5413C39.5429 42.4306 39.5024 42.3004 39.5024 42.1672C39.5024 41.9887 39.5753 41.8174 39.7049 41.6912C39.8346 41.5649 40.0105 41.494 40.1939 41.494Z" fill="white"/>
</g>
<defs>
<filter id="filter0_d_3918_79028" x="5" y="18.5173" width="45.4863" height="19.9541" filterUnits="userSpaceOnUse" color-interpolation-filters="sRGB">
<feFlood flood-opacity="0" result="BackgroundImageFix"/>
<feColorMatrix in="SourceAlpha" type="matrix" values="0 0 0 0 0 0 0 0 0 0 0 0 0 0 0 0 0 0 127 0" result="hardAlpha"/>
<feOffset dy="4"/>
<feGaussianBlur stdDeviation="2"/>
<feComposite in2="hardAlpha" operator="out"/>
<feColorMatrix type="matrix" values="0 0 0 0 0 0 0 0 0 0 0 0 0 0 0 0 0 0 0.25 0"/>
<feBlend mode="normal" in2="BackgroundImageFix" result="effect1_dropShadow_3918_79028"/>
<feBlend mode="normal" in="SourceGraphic" in2="effect1_dropShadow_3918_79028" result="shape"/>
</filter>
<filter id="filter1_d_3918_79028" x="57.959" y="12" width="37.0415" height="31" filterUnits="userSpaceOnUse" color-interpolation-filters="sRGB">
<feFlood flood-opacity="0" result="BackgroundImageFix"/>
<feColorMatrix in="SourceAlpha" type="matrix" values="0 0 0 0 0 0 0 0 0 0 0 0 0 0 0 0 0 0 127 0" result="hardAlpha"/>
<feOffset dy="4"/>
<feGaussianBlur stdDeviation="2"/>
<feComposite in2="hardAlpha" operator="out"/>
<feColorMatrix type="matrix" values="0 0 0 0 0 0 0 0 0 0 0 0 0 0 0 0 0 0 0.25 0"/>
<feBlend mode="normal" in2="BackgroundImageFix" result="effect1_dropShadow_3918_79028"/>
<feBlend mode="normal" in="SourceGraphic" in2="effect1_dropShadow_3918_79028" result="shape"/>
</filter>
<clipPath id="clip0_3918_79028">
<rect width="36" height="13" fill="white" transform="translate(31 41)"/>
</clipPath>
</defs>
</svg>
