<svg id="Layer_1" data-name="Layer 1" xmlns="http://www.w3.org/2000/svg" viewBox="0 0 2496 2496"><defs><style>.cls-1{fill:#cddfff;}.cls-2{fill:#f7931a;}.cls-3{fill:#fff;}</style></defs><path class="cls-1" d="M554.68,2029.43H673.15c29,0,49.5,7.26,63,20.46,9.24,9.57,14.85,21.78,14.85,37.62v.66c0,26.73-14.85,42.57-35.64,51.48,28.05,9.24,45.87,25.08,45.87,56.43v.66c0,39.93-32,63.69-87.45,63.69H554.68ZM688,2100.71c0-13.2-9.57-19.8-29-19.8H617.05v40.59h40.26c19.8,0,30.69-6.6,30.69-20.13Zm9.24,86.46c0-12.87-9.9-20.79-31.35-20.79H617.05V2209h49.5c19.8,0,30.69-7.59,30.69-21.12Z"/><path class="cls-1" d="M792.28,2029.43h64v231h-64Z"/><path class="cls-1" d="M955,2085.53H886v-56.1h202.3v56.1H1019v174.9H955Z"/><path class="cls-1" d="M1098.84,2145.59v-.66c0-67.32,51.48-120.12,121.44-120.12,46.86,0,77.88,19.8,98,47.85L1270.11,2110c-13.2-16.17-28-27.06-50.49-27.06-32.34,0-55.11,27.72-55.11,61.38v.66c0,34.65,22.77,61.71,55.11,61.71,24.09,0,38-11.22,52.14-28l48.18,34.32c-22.11,30-51.15,52.14-102,52.14C1152,2265.05,1098.84,2214.56,1098.84,2145.59Z"/><path class="cls-1" d="M1333.47,2145.59v-.66c0-66.33,53.46-120.12,124.74-120.12s124.08,53.46,124.08,119.46v.66c0,66.33-53.46,120.12-124.74,120.12S1333.47,2211.59,1333.47,2145.59Zm183.15,0v-.66c0-33.66-23.76-62.37-59.07-62.37s-58.74,28.38-58.74,61.71v.66c0,33,24.09,62.37,59.4,62.37C1493.19,2207.3,1516.62,2178.92,1516.62,2145.59Z"/><path class="cls-1" d="M1616.94,2029.43h64v231h-64Z"/><path class="cls-1" d="M1723.2,2029.43h59.73l95,122.1v-122.1h63.36v231h-55.77l-99-126.72v126.72H1723.2Z"/><path class="cls-2" d="M395,859.66c0-471.1,381.9-853,853-853s853,381.9,853,853-381.91,853-853,853S395,1330.76,395,859.66Z"/><path class="cls-3" d="M1526.74,772.89c12.17-81.27-49.75-125-134.35-154.12l27.45-110.12-67-16.67-26.75,107.21c-17.6-4.42-35.67-8.53-53.7-12.64l26.95-107.91-67-16.71L1204.88,572c-14.57-3.34-28.92-6.59-42.8-10.08l.08-.35-92.44-23.07-17.83,71.57s49.74,11.4,48.7,12.1c27.14,6.79,32,24.74,31.21,39l-31.25,125.43a58.43,58.43,0,0,1,7,2.21l-7.1-1.75L1056.62,962.8c-3.34,8.22-11.75,20.59-30.75,15.9.7,1-48.7-12.14-48.7-12.14l-33.27,76.7,87.24,21.75c16.21,4.07,32.11,8.33,47.73,12.33l-27.72,111.35,67,16.67,27.45-110.11c18.3,4.92,36.06,9.5,53.43,13.84l-27.37,109.65,67,16.67,27.72-111.12c114.3,21.64,200.22,12.91,236.4-90.46,29.16-83.2-1.44-131.24-61.57-162.53C1485,861.22,1517.94,832.41,1526.74,772.89ZM1373.59,987.62c-20.67,83.24-160.83,38.23-206.28,26.94L1204.15,867C1249.59,878.39,1395.26,900.84,1373.59,987.62Zm20.74-215.93c-18.88,75.72-135.51,37.22-173.32,27.8l33.35-133.77C1292.16,675.14,1414,692.71,1394.33,771.69Z"/></svg>