<?xml version="1.0" encoding="utf-8"?>
<!-- Generator: Adobe Illustrator 23.1.0, SVG Export Plug-In . SVG Version: 6.00 Build 0)  -->
<svg version="1.1" id="Слой_1" xmlns="http://www.w3.org/2000/svg" xmlns:xlink="http://www.w3.org/1999/xlink" x="0px" y="0px"
	 viewBox="0 0 118 36" style="enable-background:new 0 0 118 36;" xml:space="preserve">
<style type="text/css">
	.st0{clip-path:url(#SVGID_2_);}
	.st1{fill-rule:evenodd;clip-rule:evenodd;fill:#2C0E9D;}
	.st2{fill:none;stroke:#2C0E9D;stroke-width:2.873;stroke-linecap:round;stroke-linejoin:round;}
	.st3{fill-rule:evenodd;clip-rule:evenodd;fill:#514AD1;}
	.st4{fill:none;stroke:#514AD1;stroke-width:2.5839;stroke-linecap:round;stroke-linejoin:round;}
	.st5{fill:#FFFFFF;}
	.st6{fill:#2C0E9D;}
	.st7{fill-rule:evenodd;clip-rule:evenodd;fill:#FFFFFF;}
	.st8{fill:#514AD1;}
</style>
<g>
	<defs>
		<rect id="SVGID_1_" width="117.8" height="36"/>
	</defs>
	<clipPath id="SVGID_2_">
		<use xlink:href="#SVGID_1_"  style="overflow:visible;"/>
	</clipPath>
	<g class="st0">
		<path class="st1" d="M13.7,0.1h9.6c7.2,0,10.4,6.1,8.8,12.9c-1.3,5.3-6.4,8.4-12.8,8.4l-6.5,0l-2.3,8.9H5.7L13.7,0.1z"/>
		<path class="st2" d="M1.4,9.2h11"/>
		<path class="st3" d="M13.7,0.1l-2.2,8.5l3.4,0.4c0-4.2,7.7-8.6,9.8-8.9H13.7z"/>
		<path class="st4" d="M7.9,5.3h5.4"/>
		<path class="st5" d="M8.1,5.4c-0.2,0-0.4-0.1-0.5-0.2C7.4,5,7.4,4.9,7.4,4.7c0-0.2,0.1-0.4,0.2-0.5C7.7,4,7.9,3.9,8.1,3.9h8.2
			c0.2,0,0.4,0.1,0.5,0.2c0.1,0.1,0.2,0.3,0.2,0.5c0,0.2-0.1,0.4-0.2,0.5c-0.1,0.1-0.3,0.2-0.5,0.2H8.1z"/>
		<path class="st6" d="M73.6,11.5L57.5,36h-4.6l4.4-6.7l-3-17.9h4.2l2.1,12.8l8.4-12.8H73.6z"/>
		<path class="st5" d="M15.7,8.2c0,0.1-0.1,0.2-0.2,0.3c-0.1,0.1-0.2,0.2-0.3,0.2c-0.1,0-0.2,0.1-0.3,0.1c-0.1,0-0.2,0-0.3-0.1
			c-0.1,0-0.2-0.1-0.3-0.2c-0.1-0.1-0.1-0.2-0.2-0.3c0-0.1-0.1-0.2-0.1-0.3c0-0.1,0-0.2,0.1-0.3c0.3-0.8,0.7-1.6,1.2-2.3
			c0.5-0.7,1-1.4,1.6-2L17.3,3C19,1.3,21.2,0.3,23.6,0c1-0.1,2.1,0,3.1,0.3c1,0.3,1.9,0.9,2.7,1.6l0.2,0.2c0.1,0.2,0.3,0.4,0.5,0.6
			c0.2,0.2,0.3,0.4,0.4,0.6c0.1,0.1,0.1,0.2,0.1,0.3c0,0.1,0,0.2,0,0.3c0,0.1-0.1,0.2-0.1,0.3c-0.1,0.1-0.1,0.2-0.2,0.2
			c-0.1,0.1-0.2,0.1-0.3,0.1s-0.2,0-0.3,0c-0.2,0-0.4-0.2-0.5-0.3c-0.1-0.2-0.2-0.3-0.4-0.5c-0.1-0.1-0.2-0.3-0.4-0.4l-0.1-0.1
			c-0.6-0.6-1.3-1-2.1-1.2c-0.8-0.3-1.6-0.3-2.4-0.2c-2,0.2-3.8,1.1-5.3,2.5l-0.3,0.3c-0.5,0.5-1,1.1-1.4,1.8
			C16.3,6.8,16,7.5,15.7,8.2L15.7,8.2z M28.5,11.8c0.1-0.2,0.3-0.3,0.5-0.4c0.2-0.1,0.4-0.1,0.6,0c0.2,0.1,0.4,0.3,0.4,0.5
			c0.1,0.2,0.1,0.4,0,0.6c-0.6,1.2-1.3,2.3-2.3,3.2c-1.4,1.3-3.1,2.2-4.9,2.6c-1.8,0.4-3.6,0.3-5.3-0.5c-0.8-0.4-1.6-0.9-2.2-1.6
			c-0.6-0.6-1-1.4-1.4-2.2c-0.3-0.7-0.5-1.5-0.6-2.3c0-0.2,0.1-0.4,0.2-0.6c0.1-0.2,0.3-0.2,0.6-0.2c0.2,0,0.4,0.1,0.6,0.2
			c0.2,0.1,0.3,0.3,0.3,0.5c0,0.6,0.2,1.1,0.4,1.7c0.3,0.6,0.6,1.2,1,1.7c0.5,0.5,1.1,0.9,1.7,1.2c1.3,0.6,2.8,0.7,4.2,0.4
			c1.5-0.4,3-1.1,4.1-2.2C27.4,13.7,28,12.8,28.5,11.8L28.5,11.8z"/>
		<path class="st5" d="M20.2,7.3c-0.1,0.2-0.3,0.3-0.5,0.3c-0.2,0-0.4,0-0.6-0.1c-0.2-0.1-0.3-0.3-0.3-0.5c0-0.2,0-0.4,0.1-0.6
			c0.3-0.4,0.6-0.8,1-1.1c0.9-0.8,1.9-1.4,3.1-1.7c0.6-0.2,1.2-0.2,1.8-0.1c0.6,0.1,1.2,0.3,1.7,0.6c0.2,0.2,0.4,0.3,0.6,0.5
			c0.5,0.5,0.8,1.2,0.9,1.9c0.2,0.7,0.2,1.4,0,2.1c-0.3,1.5-1.1,3-2.2,4.1l-0.2,0.2c-1,1-2.3,1.6-3.7,1.9c-0.6,0.1-1.3,0-1.9-0.2
			c-0.6-0.2-1.2-0.5-1.6-1l-0.1-0.1c-0.3-0.3-0.5-0.6-0.7-1c-0.2-0.4-0.3-0.8-0.4-1.2c0-0.2,0-0.4,0.1-0.6c0.1-0.2,0.3-0.3,0.5-0.3
			c0.2,0,0.4,0,0.6,0.1c0.2,0.1,0.3,0.3,0.4,0.5c0,0.2,0.1,0.5,0.2,0.7c0.1,0.2,0.2,0.4,0.4,0.6l0.1,0.1c0.3,0.3,0.6,0.5,1,0.6
			c0.4,0.1,0.8,0.1,1.1,0.1c1.1-0.2,2-0.7,2.8-1.4l0.2-0.2c0.9-0.9,1.5-2,1.7-3.2c0.1-0.4,0.1-0.9,0-1.3c-0.1-0.4-0.3-0.8-0.6-1.2
			c-0.1-0.1-0.2-0.2-0.4-0.3c-0.3-0.2-0.7-0.3-1-0.4c-0.4,0-0.7,0-1.1,0.1c-0.9,0.2-1.7,0.7-2.3,1.3C20.7,6.8,20.4,7.1,20.2,7.3"/>
		<path class="st6" d="M15.1,8.8H9.6v0.8h5.5V8.8z"/>
		<path class="st5" d="M2.3,9.4H1.5V7.7h0.8h12.5c0.4,0,0.8-0.2,1.2-0.3c-0.2,0.6-0.4,1.3-0.4,1.9h-0.8H2.3z"/>
		<path class="st7" d="M1.5,7.7c0.2,0,0.3,0,0.5,0.1c0.1,0.1,0.2,0.2,0.3,0.4c0.1,0.2,0.1,0.3,0,0.5c0,0.2-0.1,0.3-0.2,0.4
			C2,9.2,1.8,9.3,1.7,9.3c-0.2,0-0.3,0-0.5,0S0.9,9.1,0.8,9S0.7,8.7,0.7,8.5c0-0.2,0.1-0.4,0.2-0.6C1.1,7.8,1.3,7.7,1.5,7.7"/>
		<path class="st6" d="M15.8,9.8h-4.5v1.9h4.5V9.8z"/>
		<path class="st2" d="M3.5,13.2H12"/>
		<path class="st7" d="M3.6,11.7c0.2,0,0.3,0,0.5,0.1c0.1,0.1,0.2,0.2,0.3,0.4c0.1,0.2,0.1,0.3,0,0.5c0,0.2-0.1,0.3-0.2,0.4
			c-0.1,0.1-0.3,0.2-0.4,0.2c-0.2,0-0.3,0-0.5,0C3.1,13.2,3,13.1,2.9,13c-0.1-0.1-0.1-0.3-0.1-0.5c0-0.2,0.1-0.4,0.2-0.6
			C3.1,11.8,3.4,11.7,3.6,11.7"/>
		<path class="st2" d="M5.2,17.2h8.5"/>
		<path class="st5" d="M3.6,13.4v-1.7c2.8,0,5.6,0,8.4,0c0,0.5,0.1,0.9,0.2,1.4l0,0L3.6,13.4z"/>
		<path class="st5" d="M6.1,17.4H5.3v-1.7h0.8c2.8,0,4.3,0,7.1,0h0h0.2c0.3,0.4,0.5,0.8,0.9,1.2l0.1,0.1L6.1,17.4z"/>
		<path class="st7" d="M5.3,15.7c0.2,0,0.3,0,0.5,0.1C5.9,16,6,16.1,6,16.3c0.1,0.2,0.1,0.3,0,0.5c0,0.2-0.1,0.3-0.2,0.4
			c-0.1,0.1-0.3,0.2-0.4,0.2c-0.2,0-0.3,0-0.5,0c-0.2-0.1-0.3-0.2-0.4-0.3c-0.1-0.1-0.1-0.3-0.1-0.5c0-0.1,0-0.2,0.1-0.3
			c0-0.1,0.1-0.2,0.2-0.3c0.1-0.1,0.2-0.1,0.3-0.2C5.1,15.8,5.2,15.7,5.3,15.7"/>
		<path class="st1" d="M45.1,23.7c0,0,0.1-0.1,0.1-0.1c1.4-2.2,2-5.3,0.4-7.1c-0.8-0.9-1.9-1.4-3.4-1.4c-3.8,0-6.6,3.2-7,6.8
			c-0.3,2.9,1.3,5.1,4.3,5l0,0c2.2,0,3.9-0.9,5.3-2.6C44.8,24.1,45,23.9,45.1,23.7z M52.7,11.5h-4.1l-0.7,2.6
			c-0.6-1.8-3.1-3.1-5.4-3.1c-3.7,0-7.3,2.2-9.4,5.4c-2.5,3.7-2.9,8.4-0.6,11.7c1.3,1.8,3.1,2.8,5.6,2.8c2.4,0,4.1-0.9,6.1-2.5
			l-0.5,2.1h4.2L52.7,11.5z"/>
		<path class="st8" d="M103.5,15.7c0.8-0.4,1.8-0.6,2.7-0.6c0.7,0,1.3,0.1,1.9,0.3c0.6,0.2,1.1,0.6,1.5,1c0.4,0.5,0.7,1,0.9,1.6
			c0.2,0.6,0.2,1.3,0.1,2c-0.1,0.9-0.3,1.7-0.7,2.5c-0.4,0.8-0.8,1.5-1.4,2.2c-0.6,0.7-1.3,1.2-2.1,1.6c-0.9,0.4-1.8,0.5-2.7,0.5
			c-0.7,0-1.3-0.1-1.9-0.3c-0.6-0.2-1-0.6-1.4-1c-0.4-0.5-0.7-1-0.8-1.6c-0.2-0.7-0.2-1.3-0.1-2c0.1-0.8,0.3-1.6,0.7-2.4
			c0.4-0.8,0.8-1.5,1.4-2.2C102,16.6,102.7,16.1,103.5,15.7L103.5,15.7z M109.4,11.4c-0.8-0.2-1.5-0.3-2.3-0.3
			c-1.4,0-2.8,0.3-4.1,0.8c-1.4,0.6-2.6,1.4-3.7,2.4c-2.3,2-3.8,4.8-4.1,7.8c-0.1,1.2-0.1,2.3,0.2,3.5c0.3,1,0.8,1.9,1.4,2.7
			c0.7,0.8,1.6,1.4,2.5,1.8c1.1,0.4,2.3,0.6,3.5,0.5c1.5,0,2.9-0.3,4.3-0.8c2.7-1.1,5-3.1,6.4-5.7c0.7-1.3,1.1-2.6,1.2-4
			c0.1-0.8,0.1-1.7,0-2.5c-0.1-0.8-0.3-1.5-0.6-2.2c-0.3-0.7-0.7-1.3-1.1-1.8c-0.5-0.5-1-1-1.6-1.3
			C110.8,11.9,110.1,11.6,109.4,11.4L109.4,11.4z"/>
		<path class="st8" d="M80.6,7.3l-5,18.9h3.3c6.6,0,10.5-3.1,11.4-10c0.8-5.8-1.4-8.9-6.9-8.9H80.6z M77.1,3.1h5.3
			c3.9,0,5.9,0.4,7.7,1.3c4.2,2,5.5,7,4.9,11.6c-0.6,4.9-3.3,10.3-8.1,12.7c-2.1,1.1-4.1,1.6-7.6,1.6h-9.4L77.1,3.1z"/>
	</g>
</g>
</svg>
