<svg id="Layer_1" data-name="Layer 1" xmlns="http://www.w3.org/2000/svg" viewBox="0 0 2496 2496"><defs><style>.cls-1{fill:#cddfff;}.cls-2{fill:#e55f5f;}.cls-3{fill:#2775ca;}.cls-4{fill:#fff;}</style></defs><path class="cls-1" d="M783.71,2028.84V1899.15H848.4v128.37c0,33.33,16.5,49.17,42.57,49.17,26.39,0,42.89-14.85,42.89-47.52v-130h64.69v128c0,74.25-42.57,107.25-108.24,107.25C825,2134.44,783.71,2101.44,783.71,2028.84Z"/><path class="cls-1" d="M1019,2095.83l35.64-42.57c23.43,18.48,48.51,27.72,74.91,27.72,17.49,0,26.73-5.61,26.73-15.84v-.66c0-9.9-7.59-14.52-39.27-22.44-48.84-11.22-87.12-24.75-87.12-72.27v-.66c0-43.23,34-73.92,89.43-73.92,39.6,0,70,10.56,95,30.69l-32,45.21c-21.12-15.51-43.89-22.77-64.68-22.77-15.51,0-23.1,5.94-23.1,14.85v.66c0,10.23,7.92,15.51,40.26,22.44,52.8,11.55,85.8,28.71,85.8,71.94v.66c0,47.19-37.29,75.24-93.39,75.24C1086,2134.11,1048,2121.24,1019,2095.83Z"/><path class="cls-1" d="M1251.65,1899.15h89.43c82.17,0,130,47.19,130,114.18v.66c0,67-48.51,116.16-131.34,116.16h-88.11Zm64,56.43v117.81h26.07c38.61,0,64-21.12,64-58.41v-.66c0-37.29-25.41-58.74-64-58.74Z"/><path class="cls-1" d="M1496.84,2015.31v-.66c0-67.32,51.48-120.12,121.44-120.12,46.86,0,77.88,19.8,98,47.85l-48.18,37.29c-13.2-16.17-28-27.06-50.49-27.06-32.34,0-55.11,27.72-55.11,61.38v.66c0,34.65,22.77,61.71,55.11,61.71,24.09,0,38-11.22,52.14-28.05l48.18,34.32c-22.11,30-51.15,52.14-102,52.14C1550,2134.77,1496.84,2084.28,1496.84,2015.31Z"/><path class="cls-2" d="M644.14,2265.82H824.91v52.66H705.79v34.35H813.67V2402H705.79v35.64H826.52v53H644.14Z"/><path class="cls-2" d="M858.63,2265.82H964.91c34.68,0,58.12,9,73.21,24.08,13.16,13.16,19.91,30.82,19.91,52.34v.64c0,34.68-18,57.47-46.24,69.36l53.62,78.34h-71.6l-45.28-68.07H920.92v68.07H858.63ZM962.34,2373.7c20.87,0,33.39-10.27,33.39-26.65v-.64c0-18-13.16-27-33.71-27h-41.1v54.26Z"/><path class="cls-2" d="M1082.11,2378.84v-.64c0-65.5,50.09-116.88,118.16-116.88,45.6,0,75.78,19.27,95.37,46.56l-46.88,36.28c-12.85-15.73-27.3-26.33-49.13-26.33-31.47,0-53.62,27-53.62,59.73v.64c0,33.71,22.15,60,53.62,60,23.44,0,36.92-10.91,50.73-27.29l46.88,33.39c-21.51,29.22-49.77,50.74-99.22,50.74C1133.81,2495.08,1082.11,2446,1082.11,2378.84Z"/><path class="cls-2" d="M1313.94,2363.43h105.32v53.3H1313.94Z"/><path class="cls-2" d="M1442.69,2443.7l84.13-64.22c20.87-16.37,29.22-26.65,29.22-40.45,0-14.45-10-23.12-25.37-23.12-15.09,0-27,9-44.63,29.22l-42.06-35c24.08-30.83,48.16-48.17,91.51-48.17,48.81,0,82.84,29.22,82.84,71.61v.64c0,36-18.62,54.59-52,78.67l-38.53,27h92.8v50.73H1442.69Z"/><path class="cls-2" d="M1645.62,2378.84v-.64c0-63.58,40.46-116.88,104.36-116.88s103.71,52.66,103.71,116.24v.64c0,63.58-40.13,116.88-104.35,116.88C1685.44,2495.08,1645.62,2442.42,1645.62,2378.84Zm145.46,0v-.64c0-36-17-62-41.74-62s-41.1,25.37-41.1,61.33v.64c0,36.28,17,61.65,41.74,61.65C1775,2439.85,1791.08,2414.48,1791.08,2378.84Z"/><path class="cls-3" d="M1245.54,1708.09c471.79,0,851.34-379.55,851.34-851.34S1717.33,5.42,1245.54,5.42,394.21,385,394.21,856.75,773.76,1708.09,1245.54,1708.09Z"/><path class="cls-4" d="M1479.66,991.54c0-124.15-74.49-166.71-223.47-184.45-106.42-14.19-127.7-42.56-127.7-92.23s35.47-81.58,106.41-81.58c63.85,0,99.33,21.28,117.06,74.49,3.55,10.64,14.19,17.73,24.83,17.73h56.75c14.2,0,24.84-10.64,24.84-24.82v-3.55c-14.19-78-78-138.34-159.63-145.44V466.56c0-14.19-10.64-24.83-28.37-28.38h-53.21c-14.19,0-24.83,10.64-28.38,28.38v81.58C1082.37,562.34,1015,633.28,1015,722c0,117.06,70.94,163.17,219.92,180.91,99.33,17.73,131.25,39,131.25,95.77s-49.66,95.78-117.06,95.78c-92.23,0-124.15-39-134.8-92.23-3.54-14.19-14.18-21.29-24.82-21.29h-60.31c-14.18,0-24.82,10.64-24.82,24.84v3.55c14.18,88.67,70.94,152.52,188,170.26v85.14c0,14.18,10.64,24.82,28.37,28.37h53.21c14.19,0,24.83-10.64,28.38-28.37v-85.14c106.42-17.74,177.36-92.23,177.36-188Z"/><path class="cls-4" d="M1064.64,1364C788,1264.69,646.06,956.08,748.94,682.94c53.2-149,170.26-262.5,315.7-315.7,14.19-7.1,21.28-17.74,21.28-35.48V282.1c0-14.19-7.09-24.83-21.28-28.37-3.55,0-10.65,0-14.2,3.54C713.46,363.69,529,722,635.42,1058.94c63.85,198.65,216.38,351.18,415,415,14.2,7.09,28.39,0,31.93-14.19,3.55-3.54,3.55-7.09,3.55-14.19v-49.66C1085.92,1385.29,1075.28,1371.1,1064.64,1364Zm376-1106.73c-14.19-7.09-28.38,0-31.92,14.19-3.55,3.55-3.55,7.09-3.55,14.19v49.66c0,14.19,10.64,28.38,21.28,35.48,276.69,99.31,418.58,407.92,315.7,681.06-53.21,149-170.26,262.49-315.7,315.7-14.19,7.09-21.28,17.74-21.28,35.48v49.66c0,14.19,7.09,24.83,21.28,28.37,3.55,0,10.64,0,14.19-3.54,337-106.42,521.45-464.69,415-801.68-63.85-202.19-219.93-354.72-415-418.57Z"/></svg>