<svg id="Layer_1" data-name="Layer 1" xmlns="http://www.w3.org/2000/svg" viewBox="0 0 2496 2496"><defs><style>.cls-1{fill:#cddfff;}.cls-2{fill:#627eea;}.cls-3,.cls-4,.cls-5{fill:#fff;}.cls-3{fill-opacity:0.6;}.cls-5{fill-opacity:0.2;}</style></defs><path class="cls-1" d="M335.62,2029.43H521.41v54.12H399v35.31H509.86v50.49H399V2206H523.07v54.45H335.62Z"/><path class="cls-1" d="M612.49,2085.53h-69v-56.1h202.3v56.1H676.51v174.9h-64Z"/><path class="cls-1" d="M773.86,2029.43h64v86.46h82.17v-86.46h64v231h-64v-87.78H837.88v87.78h-64Z"/><path class="cls-1" d="M1025,2029.43h185.79v54.12H1088.35v35.31h110.88v50.49H1088.35V2206h124.08v54.45H1025Z"/><path class="cls-1" d="M1245.43,2029.43h109.23c35.64,0,59.73,9.24,75.24,24.75,13.53,13.53,20.46,31.68,20.46,53.79v.66c0,35.64-18.48,59.07-47.52,71.28l55.11,80.52h-73.59l-46.53-70h-28.38v70h-64ZM1352,2140.31c21.45,0,34.32-10.56,34.32-27.39v-.66c0-18.48-13.53-27.72-34.65-27.72h-42.24v55.77Z"/><path class="cls-1" d="M1482.69,2029.43h185.79v54.12H1546.05v35.31h110.88v50.49H1546.05V2206h124.08v54.45H1482.69Z"/><path class="cls-1" d="M1700.49,2159.12V2029.43h64.68V2157.8c0,33.33,16.5,49.17,42.57,49.17,26.4,0,42.9-14.85,42.9-47.52v-130h64.68v128c0,74.25-42.57,107.25-108.24,107.25C1741.74,2264.72,1700.49,2231.72,1700.49,2159.12Z"/><path class="cls-1" d="M1953.27,2029.43h67.65l55.11,89.43,55.11-89.43h67.65v231H2135.1V2127.77L2076,2218.19h-1.32L2016,2128.1v132.33h-62.7Z"/><path class="cls-2" d="M399.5,854.16c0-468.61,379.89-848.5,848.5-848.5s848.5,379.89,848.5,848.5-379.88,848.51-848.5,848.51S399.5,1322.78,399.5,854.16Z"/><path class="cls-3" d="M1267.21,391.35v342.1l289.14,129.2Z"/><path class="cls-4" d="M1267.21,391.35,978,862.65l289.19-129.2Z"/><path class="cls-3" d="M1267.21,1084.34v232.45l289.34-400.3Z"/><path class="cls-4" d="M1267.21,1316.79V1084.3L978,916.49Z"/><path class="cls-5" d="M1267.21,1030.53l289.14-167.88L1267.21,733.52Z"/><path class="cls-3" d="M978,862.65l289.19,167.88v-297Z"/></svg>