<svg width="18" height="18" viewBox="0 0 18 18" fill="none" xmlns="http://www.w3.org/2000/svg">
<g clip-path="url(#clip0_2258_866)">
<path d="M19.6206 19H-1.62067C-1.83014 19 -2 18.7643 -2 18.4737V-0.473661C-2 -0.764316 -1.83014 -1 -1.62067 -1H19.6207C19.8301 -1 20 -0.764316 20 -0.473661V18.4737C20 18.7644 19.8301 19 19.6206 19Z" fill="#73AF00"/>
<path d="M8.83512 3.06325L2.15223 8.62937C1.94926 8.79839 1.94926 9.20151 2.15223 9.37058L8.83512 14.9367C8.93637 15.0211 9.06356 15.0211 9.16485 14.9367L15.8478 9.37063C16.0507 9.20161 16.0507 8.79849 15.8478 8.62942L9.16485 3.06325C9.06359 2.97892 8.93637 2.97892 8.83512 3.06325Z" fill="#FFE15A"/>
<path d="M9 12C10.6569 12 12 10.6569 12 9C12 7.34315 10.6569 6 9 6C7.34315 6 6 7.34315 6 9C6 10.6569 7.34315 12 9 12Z" fill="#41479B"/>
<path d="M6.471 7.49322C6.33192 7.72605 6.22452 7.97908 6.15356 8.24777C7.78768 8.1248 10.205 8.58195 11.7436 10.0749C11.844 9.81856 11.9103 9.54549 11.9352 9.26003C10.3465 7.92294 8.15012 7.44747 6.471 7.49322Z" fill="#F5F5F5"/>
<path d="M9.12256 10.0072L9.20103 10.2426L9.44909 10.2445C9.48119 10.2447 9.49451 10.2857 9.46871 10.3048L9.26915 10.4522L9.34399 10.6887C9.35368 10.7193 9.31878 10.7447 9.29269 10.726L9.09087 10.5817L8.88906 10.726C8.86293 10.7447 8.82807 10.7193 8.83776 10.6887L8.9126 10.4522L8.71304 10.3048C8.6872 10.2857 8.70051 10.2447 8.73261 10.2445L8.98068 10.2426L9.05915 10.0072C9.0693 9.97676 9.11237 9.97676 9.12256 10.0072Z" fill="#F5F5F5"/>
<path d="M10.0868 10.6163L10.1205 10.7176L10.2273 10.7184C10.2411 10.7185 10.2469 10.7361 10.2357 10.7444L10.1498 10.8078L10.182 10.9096C10.1862 10.9228 10.1712 10.9337 10.1599 10.9256L10.0731 10.8635L9.9862 10.9256C9.97497 10.9337 9.95995 10.9228 9.96412 10.9096L9.9963 10.8078L9.9104 10.7444C9.8993 10.7362 9.90502 10.7185 9.91883 10.7184L10.0256 10.7176L10.0594 10.6163C10.0638 10.6032 10.0824 10.6032 10.0868 10.6163Z" fill="#F5F5F5"/>
<path d="M8.70571 9.55963L8.73948 9.6609L8.84625 9.66173C8.86007 9.66182 8.86583 9.67947 8.85469 9.6877L8.76878 9.7511L8.80097 9.85291C8.80514 9.8661 8.79015 9.87699 8.77888 9.86893L8.69202 9.80686L8.60516 9.86893C8.59393 9.87699 8.5789 9.8661 8.58308 9.85291L8.61526 9.7511L8.52936 9.6877C8.51825 9.67951 8.52397 9.66186 8.53779 9.66173L8.64456 9.6609L8.67833 9.55963C8.68276 9.54653 8.70133 9.54653 8.70571 9.55963Z" fill="#F5F5F5"/>
<path d="M6.83535 9.43756L6.86912 9.53883L6.97589 9.53966C6.98971 9.53975 6.99547 9.5574 6.98433 9.56563L6.89842 9.62903L6.9306 9.73084C6.93478 9.74403 6.91979 9.75492 6.90852 9.74686L6.82166 9.6848L6.7348 9.74686C6.72357 9.75492 6.70854 9.74403 6.71272 9.73084L6.7449 9.62903L6.659 9.56563C6.64789 9.55744 6.65361 9.53979 6.66743 9.53966L6.7742 9.53883L6.80797 9.43756C6.81244 9.42446 6.83097 9.42446 6.83535 9.43756Z" fill="#F5F5F5"/>
<path d="M8.39999 10.5811L8.43376 10.6824L8.54053 10.6832C8.55435 10.6833 8.56011 10.7009 8.54896 10.7091L8.46306 10.7726L8.49524 10.8744C8.49941 10.8875 8.48443 10.8984 8.47316 10.8904L8.3863 10.8283L8.29943 10.8904C8.28821 10.8984 8.27318 10.8875 8.27735 10.8744L8.30954 10.7726L8.22363 10.7091C8.21253 10.701 8.21825 10.6833 8.23206 10.6832L8.33884 10.6824L8.37261 10.5811C8.37707 10.568 8.39565 10.568 8.39999 10.5811Z" fill="#F5F5F5"/>
<path d="M7.5391 9.36644L7.56673 9.44926L7.65405 9.44997C7.66532 9.45005 7.67004 9.46449 7.66098 9.47121L7.59073 9.52306L7.61707 9.60629C7.62049 9.61706 7.60822 9.62599 7.59899 9.61939L7.52795 9.56864L7.45691 9.61939C7.44768 9.62599 7.43545 9.61706 7.43883 9.60629L7.46517 9.52306L7.39492 9.47121C7.38586 9.46449 7.3905 9.45005 7.40185 9.44997L7.48917 9.44926L7.51681 9.36644C7.52035 9.35572 7.53551 9.35572 7.5391 9.36644Z" fill="#F5F5F5"/>
<path d="M10.1617 7.65656L10.1962 7.76017L10.3054 7.761C10.3196 7.76108 10.3254 7.77916 10.314 7.78755L10.2262 7.85241L10.2591 7.95656C10.2634 7.97004 10.248 7.98118 10.2366 7.97296L10.1477 7.90943L10.0588 7.97296C10.0473 7.98123 10.032 7.97 10.0362 7.95656L10.0692 7.85241L9.98135 7.78755C9.96996 7.77916 9.97584 7.76113 9.98995 7.761L10.0991 7.76017L10.1337 7.65656C10.1382 7.64312 10.1572 7.64312 10.1617 7.65656Z" fill="#F5F5F5"/>
<path d="M6.95566 8.85961L6.98329 8.94242L7.07061 8.94313C7.08188 8.94321 7.0866 8.95766 7.07754 8.96438L7.00729 9.01622L7.03363 9.09945C7.03706 9.11022 7.02478 9.11915 7.01556 9.11256L6.94452 9.0618L6.87347 9.11256C6.86425 9.11915 6.85202 9.11022 6.8554 9.09945L6.88174 9.01622L6.81149 8.96438C6.80243 8.95766 6.80706 8.94326 6.81842 8.94313L6.90574 8.94242L6.93337 8.85961C6.93692 8.84888 6.95207 8.84888 6.95566 8.85961Z" fill="#F5F5F5"/>
<path d="M7.37727 10.0268L7.41909 10.1523L7.55133 10.1533C7.56844 10.1534 7.57554 10.1752 7.56176 10.1854L7.45537 10.264L7.49527 10.39C7.50045 10.4063 7.48187 10.4199 7.46793 10.4099L7.36032 10.333L7.25271 10.4099C7.23881 10.4198 7.2202 10.4063 7.22537 10.39L7.26528 10.264L7.15888 10.1854C7.14511 10.1752 7.1522 10.1534 7.16932 10.1533L7.30155 10.1523L7.34338 10.0268C7.34893 10.0106 7.37188 10.0106 7.37727 10.0268Z" fill="#F5F5F5"/>
<path d="M10.6243 10.6424L10.6506 10.7214L10.7338 10.722C10.7446 10.7221 10.749 10.7358 10.7404 10.7422L10.6735 10.7916L10.6986 10.8709C10.7018 10.8812 10.6902 10.8897 10.6813 10.8834L10.6137 10.835L10.546 10.8834C10.5372 10.8897 10.5255 10.8812 10.5287 10.8709L10.5538 10.7916L10.4869 10.7422C10.4783 10.7358 10.4827 10.7221 10.4935 10.722L10.5767 10.7214L10.603 10.6424C10.6065 10.6322 10.6209 10.6322 10.6243 10.6424Z" fill="#F5F5F5"/>
<path d="M10.9154 10.0401L10.9492 10.1414L11.056 10.1422C11.0698 10.1423 11.0755 10.16 11.0644 10.1682L10.9785 10.2316L11.0107 10.3334C11.0149 10.3466 10.9999 10.3575 10.9886 10.3494L10.9017 10.2874L10.8149 10.3494C10.8036 10.3575 10.7886 10.3466 10.7928 10.3334L10.825 10.2316L10.7391 10.1682C10.728 10.16 10.7337 10.1424 10.7475 10.1422L10.8543 10.1414L10.888 10.0401C10.8925 10.027 10.911 10.027 10.9154 10.0401Z" fill="#F5F5F5"/>
</g>
<defs>
<clipPath id="clip0_2258_866">
<rect width="18" height="18" rx="4" fill="white"/>
</clipPath>
</defs>
</svg>
