<svg id="Layer_1" data-name="Layer 1" xmlns="http://www.w3.org/2000/svg" viewBox="0 0 2496 2496"><defs><style>.cls-1{fill:#cddfff;}.cls-2{fill:#e55f5f;}.cls-3{fill:#2775ca;}.cls-4{fill:#fff;}</style></defs><path class="cls-1" d="M788.27,2028.42V1898.73H853V2027.1c0,33.33,16.5,49.17,42.58,49.17,26.39,0,42.89-14.85,42.89-47.52v-130h64.69v128c0,74.25-42.57,107.25-108.25,107.25C829.52,2134,788.27,2101,788.27,2028.42Z"/><path class="cls-1" d="M1023.56,2095.41l35.64-42.57c23.43,18.48,48.51,27.72,74.91,27.72,17.49,0,26.73-5.61,26.73-15.84v-.66c0-9.9-7.59-14.52-39.27-22.44-48.84-11.22-87.12-24.75-87.12-72.27v-.66c0-43.23,34-73.92,89.43-73.92,39.6,0,70,10.56,95,30.69l-32,45.21c-21.12-15.51-43.89-22.77-64.68-22.77-15.51,0-23.1,5.94-23.1,14.85v.66c0,10.23,7.92,15.51,40.26,22.44,52.8,11.55,85.8,28.71,85.8,71.94v.66c0,47.19-37.29,75.24-93.39,75.24C1090.55,2133.69,1052.6,2120.82,1023.56,2095.41Z"/><path class="cls-1" d="M1256.21,1898.73h89.43c82.17,0,130,47.19,130,114.18v.66c0,67-48.51,116.16-131.34,116.16h-88.11Zm64,56.43V2073h26.07c38.61,0,64-21.12,64-58.41v-.66c0-37.29-25.41-58.74-64-58.74Z"/><path class="cls-1" d="M1501.4,2014.89v-.66c0-67.32,51.48-120.12,121.44-120.12,46.86,0,77.88,19.8,98,47.85l-48.18,37.29c-13.2-16.17-28.05-27.06-50.49-27.06-32.34,0-55.11,27.72-55.11,61.38v.66c0,34.65,22.77,61.71,55.11,61.71,24.09,0,38-11.22,52.14-28l48.18,34.32c-22.11,30-51.15,52.14-102,52.14C1554.53,2134.35,1501.4,2083.86,1501.4,2014.89Z"/><path class="cls-2" d="M657.05,2265.4H772.32c28.25,0,48.16,7.06,61.33,19.91,9,9.31,14.44,21.19,14.44,36.6v.64c0,26-14.44,41.42-34.67,50.09,27.29,9,44.63,24.41,44.63,54.91v.64c0,38.85-31.15,62-85.09,62H657.05Zm129.72,69.35c0-12.84-9.32-19.26-28.26-19.26H717.73V2355H756.9c19.27,0,29.87-6.42,29.87-19.58Zm9,84.13c0-12.52-9.64-20.23-30.51-20.23H717.73v41.42H765.9c19.26,0,29.86-7.38,29.86-20.55Z"/><path class="cls-2" d="M886.63,2265.4H1067.4v52.66H948.28v34.35h107.88v49.13H948.28v35.64H1069v53H886.63Z"/><path class="cls-2" d="M1101.12,2265.4h96.65c56.51,0,93.11,28.9,93.11,78.67v.64c0,53.3-40.77,81.23-96.32,81.23h-31.15v64.22h-62.29Zm92.15,111.74c21.84,0,35.64-11.56,35.64-29.54V2347c0-19.27-13.8-29.22-36-29.22h-29.54v59.4Z"/><path class="cls-2" d="M1310.15,2363h105.32v53.3H1310.15Z"/><path class="cls-2" d="M1438.91,2443.28l84.12-64.21c20.87-16.38,29.22-26.66,29.22-40.46,0-14.45-10-23.12-25.37-23.12-15.09,0-27,9-44.63,29.22l-42.06-35c24.08-30.83,48.16-48.16,91.51-48.16,48.81,0,82.84,29.22,82.84,71.6v.64c0,36-18.62,54.59-52,78.67l-38.54,27h92.8v50.73H1438.91Z"/><path class="cls-2" d="M1641.84,2378.42v-.64c0-63.58,40.45-116.88,104.35-116.88s103.71,52.66,103.71,116.24v.64c0,63.58-40.13,116.88-104.35,116.88C1681.65,2494.66,1641.84,2442,1641.84,2378.42Zm145.45,0v-.64c0-36-17-62-41.74-62s-41.1,25.37-41.1,61.33v.64c0,36.28,17,61.65,41.74,61.65C1771.24,2439.43,1787.29,2414.06,1787.29,2378.42Z"/><path class="cls-3" d="M1250.1,1707.67c471.79,0,851.34-379.55,851.34-851.34S1721.89,5,1250.1,5,398.77,384.55,398.77,856.33,778.32,1707.67,1250.1,1707.67Z"/><path class="cls-4" d="M1484.22,991.12c0-124.15-74.49-166.71-223.47-184.45-106.42-14.19-127.7-42.56-127.7-92.23s35.47-81.58,106.41-81.58c63.85,0,99.33,21.28,117.06,74.49,3.55,10.64,14.19,17.73,24.83,17.73h56.75c14.2,0,24.84-10.64,24.84-24.82v-3.55c-14.19-78-78-138.34-159.63-145.43V466.14c0-14.19-10.64-24.83-28.37-28.38h-53.21c-14.19,0-24.83,10.64-28.38,28.38v81.59c-106.42,14.19-173.81,85.13-173.81,173.81,0,117.06,70.94,163.17,219.92,180.91,99.33,17.73,131.25,39,131.25,95.77S1321.05,1094,1253.65,1094c-92.23,0-124.15-39-134.8-92.23-3.54-14.19-14.18-21.29-24.82-21.29h-60.31c-14.18,0-24.82,10.64-24.82,24.84v3.55c14.18,88.67,70.94,152.52,188,170.26v85.14c0,14.18,10.64,24.82,28.37,28.37h53.21c14.19,0,24.83-10.64,28.38-28.37v-85.14c106.42-17.74,177.36-92.23,177.36-188Z"/><path class="cls-4" d="M1069.2,1363.58c-276.69-99.31-418.58-407.92-315.7-681.06,53.2-149,170.26-262.5,315.7-315.7,14.19-7.09,21.28-17.74,21.28-35.48V281.68c0-14.19-7.09-24.83-21.28-28.37-3.55,0-10.65,0-14.2,3.54C718,363.27,533.56,721.54,640,1058.52c63.85,198.65,216.38,351.18,415,415,14.2,7.09,28.39,0,31.93-14.19,3.55-3.54,3.55-7.09,3.55-14.19v-49.66C1090.48,1384.87,1079.84,1370.68,1069.2,1363.58Zm376-1106.73c-14.19-7.09-28.38,0-31.92,14.19-3.55,3.55-3.55,7.09-3.55,14.19v49.66c0,14.19,10.64,28.38,21.28,35.48,276.69,99.31,418.58,407.92,315.7,681.06-53.21,149-170.26,262.49-315.7,315.7-14.19,7.09-21.28,17.74-21.28,35.48v49.66c0,14.19,7.09,24.83,21.28,28.37,3.55,0,10.64,0,14.19-3.54,337-106.42,521.45-464.69,415-801.68-63.85-202.19-219.93-354.72-415-418.57Z"/></svg>