<svg id="Layer_1" data-name="Layer 1" xmlns="http://www.w3.org/2000/svg" viewBox="0 0 2496 2496"><defs><style>.cls-1{fill:#cddfff;}.cls-2{fill:#e55f5f;}.cls-3{fill:#f5ac37;}.cls-4{fill:#fefefd;}</style></defs><path class="cls-1" d="M965.19,1898.73h89.43c82.17,0,130,47.19,130,114.18v.66c0,67-48.51,116.16-131.34,116.16H965.19Zm64,56.43V2073h26.07c38.61,0,64-21.12,64-58.41v-.66c0-37.29-25.41-58.74-64-58.74Z"/><path class="cls-1" d="M1281.33,1897.08H1343l98.34,232.65h-68.64l-16.5-41.58h-89.43l-16.5,41.58h-67Zm56.1,141.24L1311.69,1973l-26.07,65.34Z"/><path class="cls-1" d="M1465.47,1898.73h64v231h-64Z"/><path class="cls-2" d="M654.94,2265.4H770.21c28.26,0,48.17,7.06,61.33,19.91,9,9.31,14.45,21.19,14.45,36.6v.64c0,26-14.45,41.42-34.68,50.09,27.3,9,44.63,24.41,44.63,54.91v.64c0,38.85-31.14,62-85.08,62H654.94Zm129.72,69.35c0-12.84-9.31-19.26-28.25-19.26H715.63V2355H754.8c19.27,0,29.86-6.42,29.86-19.58Zm9,84.13c0-12.52-9.63-20.23-30.5-20.23H715.63v41.42h48.16c19.27,0,29.86-7.38,29.86-20.55Z"/><path class="cls-2" d="M884.52,2265.4H1065.3v52.66H946.17v34.35h107.89v49.13H946.17v35.64H1066.9v53H884.52Z"/><path class="cls-2" d="M1099,2265.4h96.64c56.52,0,93.12,28.9,93.12,78.67v.64c0,53.3-40.78,81.23-96.33,81.23h-31.14v64.22H1099Zm92.15,111.74c21.83,0,35.64-11.56,35.64-29.54V2347c0-19.27-13.81-29.22-36-29.22h-29.54v59.4Z"/><path class="cls-2" d="M1308.05,2363h105.31v53.3H1308.05Z"/><path class="cls-2" d="M1436.8,2443.28l84.13-64.22c20.87-16.37,29.22-26.65,29.22-40.45,0-14.45-10-23.12-25.37-23.12-15.09,0-27,9-44.63,29.22l-42.06-35c24.08-30.83,48.16-48.16,91.51-48.16,48.8,0,82.84,29.22,82.84,71.6v.64c0,36-18.62,54.59-52,78.67l-38.53,27h92.8v50.73H1436.8Z"/><path class="cls-2" d="M1639.73,2378.42v-.64c0-63.58,40.46-116.88,104.36-116.88s103.71,52.66,103.71,116.24v.64c0,63.58-40.14,116.88-104.36,116.88C1679.55,2494.66,1639.73,2442,1639.73,2378.42Zm145.46,0v-.64c0-36-17-62-41.75-62s-41.1,25.37-41.1,61.33v.64c0,36.28,17,61.65,41.75,61.65C1769.13,2439.43,1785.19,2414.06,1785.19,2378.42Z"/><g id="Layer_1-2" data-name="Layer_1"><path class="cls-3" d="M1248,5.42c468.72,0,848.62,380,848.62,848.62s-379.9,848.63-848.62,848.63S399.38,1322.73,399.38,854,779.35,5.42,1248,5.42Z"/><path class="cls-4" d="M1279.28,914h322.46c6.87,0,10.12,0,10.62-9a617.58,617.58,0,0,0,0-98.64c0-6.38-3.17-9-10.09-9H960.52c-7.95,0-10.08,2.64-10.08,10.09v94.4c0,12.18,0,12.18,12.71,12.18Zm297.06-227a10.29,10.29,0,0,0,0-7.41,209.84,209.84,0,0,0-19.17-33.42,270.54,270.54,0,0,0-39.25-49.33,129.84,129.84,0,0,0-24.41-23.87,381.18,381.18,0,0,0-159.13-80.62,396.2,396.2,0,0,0-90.16-9.55H959.41c-7.94,0-9,3.17-9,10.09V681.13c0,7.94,0,10.08,10.08,10.08h612.05s5.3-1.07,6.37-4.24h-2.56Zm0,337.32a122.87,122.87,0,0,0-27.11,0H961.05c-7.94,0-10.61,0-10.61,10.61V1219c0,8.48,0,10.62,10.61,10.62h271.56a135.75,135.75,0,0,0,38.68-2.64,404,404,0,0,0,115.14-25.47,210.9,210.9,0,0,0,38.69-18h3.7a344.58,344.58,0,0,0,148-149s3.71-8-.46-10.12ZM843.85,1325V1031.73c0-6.91,0-7.94-8.48-7.94H720.27c-6.37,0-9,0-9-8.48V914.53h123c6.88,0,9.55,0,9.55-9V805.81c0-6.38,0-7.94-8.48-7.94H720.27c-6.37,0-9,0-9-8.48V696.06c0-5.85,0-7.41,8.48-7.41h114c7.94,0,10.08,0,10.08-10.08V392.69c0-8.48,0-10.62,10.62-10.62h397.77a606.85,606.85,0,0,1,85.92,9.55,518.67,518.67,0,0,1,166,61.52,468,468,0,0,1,93.33,72.14,510.67,510.67,0,0,1,56.75,70.53A425,425,0,0,1,1695.68,677a13.81,13.81,0,0,0,15.85,11.15h94.94c12.18,0,12.18,0,12.71,11.69v87c0,8.48-3.16,10.62-11.68,10.62h-73.21c-7.41,0-9.55,0-9,9.55a542.17,542.17,0,0,1,0,97c0,9,0,10.08,10.12,10.08h83.75c3.7,4.78,0,9.55,0,14.36a108.17,108.17,0,0,1,0,18.53v64.19c0,9-2.64,11.69-10.62,11.69H1708.29a13.26,13.26,0,0,0-15.39,10.08,424.24,424.24,0,0,1-111.4,162.3,641.41,641.41,0,0,1-56.75,45.6c-21.23,12.22-41.89,24.93-63.66,35a573.3,573.3,0,0,1-125.18,39.76,653,653,0,0,1-124.11,10.08H843.7v-.53Z"/></g></svg>