<svg id="Layer_1" data-name="Layer 1" xmlns="http://www.w3.org/2000/svg" viewBox="0 0 2496 2496"><defs><style>.cls-1{fill:#cddfff;}.cls-2{fill:#e55f5f;}.cls-3{fill:#eb0017;}.cls-4{fill:#fff;}</style></defs><path class="cls-1" d="M830.72,1955.25h-69v-56.1H964v56.1h-69.3v174.9h-64Z"/><path class="cls-1" d="M992.09,1899.15h109.23c35.64,0,59.73,9.24,75.24,24.75,13.53,13.53,20.46,31.68,20.46,53.79v.66c0,35.64-18.48,59.07-47.52,71.28l55.11,80.52H1131l-46.53-70h-28.38v70h-64ZM1098.68,2010c21.45,0,34.32-10.56,34.32-27.39V1982c0-18.48-13.53-27.72-34.65-27.72h-42.24V2010Z"/><path class="cls-1" d="M1221.77,2015.31v-.66c0-66.33,53.46-120.12,124.74-120.12S1470.59,1948,1470.59,2014v.66c0,66.33-53.46,120.12-124.74,120.12S1221.77,2081.31,1221.77,2015.31Zm183.15,0v-.66c0-33.66-23.76-62.37-59.07-62.37s-58.74,28.38-58.74,61.71v.66c0,33,24.09,62.37,59.4,62.37C1381.49,2077,1404.92,2048.64,1404.92,2015.31Z"/><path class="cls-1" d="M1503.58,1899.15h59.73l95,122.1v-122.1h63.36v231h-55.77l-99-126.72v126.72h-63.36Z"/><path class="cls-2" d="M702.79,2320.4H635.68v-54.58H832.51v54.58H765.08v170.18H702.79Z"/><path class="cls-2" d="M859.8,2265.82H966.08c34.68,0,58.12,9,73.21,24.08,13.16,13.16,19.91,30.82,19.91,52.34v.64c0,34.68-18,57.47-46.24,69.36l53.62,78.34H995l-45.28-68.07H922.09v68.07H859.8ZM963.51,2373.7c20.87,0,33.39-10.27,33.39-26.65v-.64c0-18-13.16-27-33.71-27h-41.1v54.26Z"/><path class="cls-2" d="M1083.28,2378.84v-.64c0-65.5,50.09-116.88,118.16-116.88,45.6,0,75.78,19.27,95.36,46.56l-46.87,36.28c-12.85-15.73-27.3-26.33-49.13-26.33-31.47,0-53.62,27-53.62,59.73v.64c0,33.71,22.15,60,53.62,60,23.44,0,36.92-10.91,50.73-27.29l46.88,33.39c-21.51,29.22-49.77,50.74-99.22,50.74C1135,2495.08,1083.28,2446,1083.28,2378.84Z"/><path class="cls-2" d="M1315.11,2363.43h105.32v53.3H1315.11Z"/><path class="cls-2" d="M1443.86,2443.7l84.13-64.22c20.87-16.37,29.22-26.65,29.22-40.45,0-14.45-10-23.12-25.37-23.12-15.09,0-27,9-44.63,29.22l-42.06-35c24.08-30.83,48.16-48.17,91.51-48.17,48.81,0,82.84,29.22,82.84,71.61v.64c0,36-18.62,54.59-52,78.67l-38.53,27h92.8v50.73H1443.86Z"/><path class="cls-2" d="M1646.79,2378.84v-.64c0-63.58,40.46-116.88,104.36-116.88s103.71,52.66,103.71,116.24v.64c0,63.58-40.13,116.88-104.35,116.88C1686.61,2495.08,1646.79,2442.42,1646.79,2378.84Zm145.46,0v-.64c0-36-17-62-41.74-62s-41.1,25.37-41.1,61.33v.64c0,36.28,17,61.65,41.74,61.65C1776.19,2439.85,1792.25,2414.48,1792.25,2378.84Z"/><circle class="cls-3" cx="1248" cy="856.75" r="851.33"/><path class="cls-4" d="M1659.52,636.31l-369,173,246.67-260.08Zm-153.24-98.76L1226.62,833.82,841.18,377.93Zm-670-119.4,374.38,442.7-47.89,474.61Zm355.43,917.53L1240,866l402.25-188.57Z"/></svg>