<svg id="Layer_1" data-name="Layer 1" xmlns="http://www.w3.org/2000/svg" viewBox="0 0 2496 2496"><defs><style>.cls-1{fill:#26a17b;}.cls-2{fill:#fff;}.cls-3{fill:#cddfff;}.cls-4{fill:#e55f5f;}</style></defs><path class="cls-1" d="M1250.05,1702.67c467.55-1.13,845.66-381.08,844.53-848.63S1713.51,8.38,1246,9.51C779.2,10.64,401.42,389.33,401.42,856.08c.56,468.12,380.51,847.15,848.63,846.59Z"/><path class="cls-2" d="M1340.47,934.23h0c-5.8,0-36.17,2-102.37,2-53.91,0-91.79,0-105.09-2h0c-207.47-8.88-362-45.05-362-88S925.88,767,1133,757.81V897c13.3,0,52.2,3.41,106.12,3.41,64.15,0,96.57-2.73,102.37-3.41V758.15c205.76,9.22,359.65,45,359.65,88s-154.24,79.16-361,88.38Zm0-190.75V617.91h288.68V426.14H844.33V617.91h288.34V743.48c-234.43,10.92-409.48,57-409.48,112.6s176.42,102.37,409.48,112.61v403H1341.5v-403c234.08-10.58,409.47-57,409.47-112.61S1574.89,753.72,1341.5,743.82"/><path class="cls-3" d="M629.61,1954.83h-69v-56.1h202.3v56.1H693.63v174.9h-64Z"/><path class="cls-3" d="M791,1898.73H976.77v54.12H854.34v35.31H965.22v50.49H854.34v36.63H978.42v54.45H791Z"/><path class="cls-3" d="M1067.85,1954.83h-69v-56.1h202.29v56.1h-69.3v174.9h-64Z"/><path class="cls-3" d="M1229.22,1898.73h64v86.46h82.17v-86.46h64v231h-64V2042h-82.17v87.78h-64Z"/><path class="cls-3" d="M1480.34,1898.73h185.79v54.12H1543.7v35.31h110.88v50.49H1543.7v36.63h124.08v54.45H1480.34Z"/><path class="cls-3" d="M1700.78,1898.73H1810c35.64,0,59.73,9.24,75.24,24.75,13.53,13.53,20.46,31.68,20.46,53.79v.66c0,35.64-18.48,59.07-47.52,71.28l55.11,80.52h-73.59l-46.53-70H1764.8v70h-64Zm106.59,110.88c21.45,0,34.32-10.56,34.32-27.39v-.66c0-18.48-13.53-27.72-34.65-27.72H1764.8v55.77Z"/><path class="cls-4" d="M642.1,2265.4H757.37c28.26,0,48.16,7.06,61.33,19.91,9,9.31,14.45,21.19,14.45,36.6v.64c0,26-14.45,41.42-34.68,50.09,27.29,9,44.63,24.41,44.63,54.91v.64c0,38.85-31.14,62-85.09,62H642.1Zm129.72,69.35c0-12.84-9.31-19.26-28.26-19.26H702.79V2355H742c19.26,0,29.86-6.42,29.86-19.58Zm9,84.13c0-12.52-9.63-20.23-30.5-20.23H702.79v41.42H751c19.26,0,29.86-7.38,29.86-20.55Z"/><path class="cls-4" d="M871.68,2265.4h180.78v52.66H933.33v34.35h107.89v49.13H933.33v35.64h120.73v53H871.68Z"/><path class="cls-4" d="M1086.17,2265.4h96.65c56.51,0,93.12,28.9,93.12,78.67v.64c0,53.3-40.78,81.23-96.33,81.23h-31.14v64.22h-62.3Zm92.16,111.74c21.83,0,35.64-11.56,35.64-29.54V2347c0-19.27-13.81-29.22-36-29.22h-29.54v59.4Z"/><path class="cls-4" d="M1295.2,2363h105.32v53.3H1295.2Z"/><path class="cls-4" d="M1424,2443.28l84.12-64.21c20.88-16.38,29.22-26.66,29.22-40.46,0-14.45-10-23.12-25.36-23.12-15.09,0-27,9-44.63,29.22l-42.07-35c24.08-30.83,48.17-48.16,91.51-48.16,48.81,0,82.85,29.22,82.85,71.6v.64c0,36-18.63,54.59-52,78.67l-38.53,27h92.79v50.73H1424Z"/><path class="cls-4" d="M1626.89,2378.42v-.64c0-63.58,40.46-116.88,104.35-116.88S1835,2313.56,1835,2377.14v.64c0,63.58-40.14,116.88-104.36,116.88C1666.7,2494.66,1626.89,2442,1626.89,2378.42Zm145.45,0v-.64c0-36-17-62-41.74-62s-41.1,25.37-41.1,61.33v.64c0,36.28,17,61.65,41.74,61.65C1756.29,2439.43,1772.34,2414.06,1772.34,2378.42Z"/></svg>