<svg id="Layer_1" data-name="Layer 1" xmlns="http://www.w3.org/2000/svg" viewBox="0 0 2496 2496"><defs><style>.cls-1{fill:#cddfff;}.cls-2{fill:#988430;}.cls-3{fill:#7a6a2a;}.cls-4{fill:#ba9f33;}.cls-5{fill:#cfb66c;}.cls-10,.cls-11,.cls-12,.cls-13,.cls-14,.cls-15,.cls-16,.cls-17,.cls-18,.cls-19,.cls-20,.cls-21,.cls-22,.cls-23,.cls-24,.cls-25,.cls-26,.cls-27,.cls-28,.cls-29,.cls-30,.cls-31,.cls-32,.cls-33,.cls-34,.cls-35,.cls-36,.cls-37,.cls-38,.cls-39,.cls-40,.cls-41,.cls-42,.cls-43,.cls-44,.cls-45,.cls-46,.cls-47,.cls-48,.cls-49,.cls-5,.cls-50,.cls-51,.cls-52,.cls-53,.cls-54,.cls-55,.cls-56,.cls-57,.cls-58,.cls-59,.cls-6,.cls-60,.cls-61,.cls-62,.cls-63,.cls-64,.cls-65,.cls-66,.cls-67,.cls-68,.cls-69,.cls-7,.cls-70,.cls-71,.cls-72,.cls-73,.cls-74,.cls-75,.cls-76,.cls-77,.cls-78,.cls-79,.cls-8,.cls-80,.cls-81,.cls-82,.cls-83,.cls-84,.cls-85,.cls-86,.cls-87,.cls-88,.cls-89,.cls-9,.cls-90,.cls-91,.cls-92,.cls-93,.cls-95,.cls-96,.cls-97,.cls-98,.cls-99{fill-rule:evenodd;}.cls-6{fill:#e2cc85;}.cls-7{fill:#f1d789;}.cls-8{fill:#f4ecb4;}.cls-9{fill:#f3e19d;}.cls-10{fill:#f2e8b0;}.cls-11{fill:#f5eec0;}.cls-12{fill:#e6db9d;}.cls-13{fill:#e5cb7a;}.cls-14{fill:#d8c173;}.cls-15{fill:#e0cd81;}.cls-16{fill:#dfc57c;}.cls-17{fill:#e5cc7c;}.cls-18{fill:#d2c281;}.cls-19{fill:#e2c270;}.cls-20{fill:#ccb360;}.cls-21{fill:#d5b457;}.cls-22{fill:#d2b257;}.cls-23{fill:#d2b159;}.cls-24{fill:#c2a44d;}.cls-25{fill:#caa13e;}.cls-26{fill:#b59544;}.cls-27{fill:#c89d3a;}.cls-28{fill:#ceb052;}.cls-29{fill:#cca847;}.cls-30{fill:#c39d3c;}.cls-31{fill:#d2ba6b;}.cls-32{fill:#c0993a;}.cls-33{fill:#a88f33;}.cls-34{fill:#e3c571;}.cls-35{fill:#d8b65b;}.cls-36{fill:#d3ae4d;}.cls-37{fill:#f4efc8;}.cls-38{fill:#ebcc73;}.cls-39{fill:#e5c66b;}.cls-40{fill:#e6bd62;}.cls-41{fill:#b6933f;}.cls-42{fill:#c49937;}.cls-43{fill:#dfc068;}.cls-44{fill:#c99e3d;}.cls-45{fill:#b58634;}.cls-46{fill:#e6c367;}.cls-47{fill:#dcba5a;}.cls-48{fill:#e9ce77;}.cls-49{fill:#cdae50;}.cls-50{fill:#d2a83e;}.cls-51{fill:#c29637;}.cls-52{fill:#ac8132;}.cls-53{fill:#a67a2e;}.cls-54{fill:#8c6228;}.cls-55{fill:#cba94c;}.cls-56{fill:#be9c44;}.cls-57{fill:#a17c34;}.cls-58{fill:#92723a;}.cls-59{fill:#b18e3e;}.cls-60{fill:#543e26;}.cls-61{fill:#806031;}.cls-62{fill:#b6903c;}.cls-63{fill:#685026;}.cls-64{fill:#d4b968;}.cls-65{fill:#cca849;}.cls-66{fill:#585136;}.cls-67{fill:#252211;}.cls-68{fill:#c3b378;}.cls-69{fill:#e6d89c;}.cls-70{fill:#6f674d;}.cls-71{fill:#ac924c;}.cls-72{fill:#9f8e57;}.cls-73{fill:#eac970;}.cls-74{fill:#d7bc6b;}.cls-75{fill:#453a25;}.cls-76{fill:#84754b;}.cls-77{fill:#f7f7e7;}.cls-78{fill:#f8f6de;}.cls-79{fill:#d4c38b;}.cls-80{fill:#e2d59d;}.cls-81{fill:#cbac5a;}.cls-82{fill:#d6bc6f;}.cls-83{fill:#dfc677;}.cls-84{fill:#c4a859;}.cls-85{fill:#927d49;}.cls-86{fill:#6e6342;}.cls-87{fill:#39331f;}.cls-88{fill:#292311;}.cls-89{fill:#3f3824;}.cls-90{fill:#2d2815;}.cls-91{fill:#82764f;}.cls-92{fill:#2d2816;}.cls-93{fill:#574f35;}.cls-94{fill:none;}.cls-95{fill:#dec270;}.cls-96{fill:#cbaf59;}.cls-97{fill:#e3c677;}.cls-98{fill:#ecd592;}.cls-99{fill:#fff;fill-opacity:0.8;}</style></defs><path class="cls-1" d="M336.76,2029.43h89.43c82.17,0,130,47.19,130,114.18v.66c0,67-48.51,116.16-131.34,116.16H336.76Zm64,56.43v117.81h26.07c38.61,0,64-21.12,64-58.41v-.66c0-37.29-25.41-58.74-64-58.74Z"/><path class="cls-1" d="M582,2145.59v-.66c0-66.33,53.46-120.12,124.74-120.12s124.08,53.46,124.08,119.46v.66c0,66.33-53.46,120.12-124.74,120.12S582,2211.59,582,2145.59Zm183.15,0v-.66c0-33.66-23.76-62.37-59.07-62.37s-58.74,28.38-58.74,61.71v.66c0,33,24.09,62.37,59.4,62.37C741.67,2207.3,765.1,2178.92,765.1,2145.59Z"/><path class="cls-1" d="M856.18,2145.59v-.66c0-67.32,52.8-120.12,124.08-120.12,40.92,0,69,12.21,93.72,33.33l-37.62,45.54c-16.83-14.19-32.34-21.78-55.77-21.78-33,0-59.07,27.72-59.07,63v.66c0,37.62,26.07,64.35,62.7,64.35,15.84,0,27.72-3.3,37-9.57v-28H976v-46.86H1081.9v103.62c-24.75,20.79-57.75,36-100.32,36C909.31,2265.05,856.18,2215.88,856.18,2145.59Z"/><path class="cls-1" d="M1117.54,2029.43h185.79v54.12H1180.9v35.31h110.88v50.49H1180.9V2206H1305v54.45H1117.54Z"/><path class="cls-1" d="M1328.74,2145.59v-.66c0-67.32,51.48-120.12,121.44-120.12,46.86,0,77.88,19.8,98,47.85L1500,2110c-13.2-16.17-28-27.06-50.49-27.06-32.34,0-55.11,27.72-55.11,61.38v.66c0,34.65,22.77,61.71,55.11,61.71,24.09,0,38-11.22,52.14-28l48.18,34.32c-22.11,30-51.15,52.14-102,52.14C1381.87,2265.05,1328.74,2214.56,1328.74,2145.59Z"/><path class="cls-1" d="M1563.37,2145.59v-.66c0-66.33,53.46-120.12,124.74-120.12s124.08,53.46,124.08,119.46v.66c0,66.33-53.46,120.12-124.74,120.12S1563.37,2211.59,1563.37,2145.59Zm183.15,0v-.66c0-33.66-23.76-62.37-59.07-62.37s-58.74,28.38-58.74,61.71v.66c0,33,24.09,62.37,59.4,62.37C1723.09,2207.3,1746.52,2178.92,1746.52,2145.59Z"/><path class="cls-1" d="M1846.84,2029.43h64v231h-64Z"/><path class="cls-1" d="M1953.09,2029.43h59.74l95,122.1v-122.1h63.36v231h-55.77l-99-126.72v126.72h-63.37Z"/><g id="Layer_2" data-name="Layer 2"><g id="Layer_1-2" data-name="Layer 1-2"><g id="Layer_1-3" data-name="Layer 1-3"><circle class="cls-2" cx="1253.99" cy="850.15" r="835.71"/><circle class="cls-3" cx="1253.99" cy="850.15" r="808.94"/><circle class="cls-4" cx="1253.99" cy="850.15" r="791.9"/><path class="cls-5" d="M783.67,760.9c-4.74-4.32-9.74-8.66-14.34-13s-9.32-8.66-14.05-13l-14.07-13.37c-2.3-2.3-4.73-4.32-7-6.63-2.3-2-5-4.33-7.31-6.36-18.66-17.71-37.44-35.42-55.84-53.14,19.06,17.44,37.73,34.76,56.8,52.46l6.62,6.64c2.3,2.29,4.74,4.32,7,6.62l14,13c4.74,4.32,9.34,8.65,14.07,13.37s9.33,9.06,14.07,13.37Zm-247.74-2.67s67.88,7,101,11.75c30.69,4.34,126.7,19.07,126.7,19.07Zm0,0c19.07,1.62,38.14,3.64,57.2,5.67,9.74,1,19.07,2,28.41,3l14.32,1.63c4.73.67,9.33,1.35,14.07,2l56.8,9.05,28.39,4.74c9.33,1.62,18.67,3.38,28.4,5-9.33-1-19.07-2.3-28.4-3.66l-28.39-4-56.8-8.38c-4.74-.68-9.34-1.63-14.07-2.3l-14.33-1.65c-9.34-.95-19.07-2.3-28.4-3.39-19.07-2.29-38.14-4.73-57.21-7.7Zm221,48.51s-72.48,18.4-97,25.43c-24.07,6.62-97,28.8-97,28.8l193.91-54.22Z"/><path class="cls-5" d="M756.89,806.74c-16.09,4.73-32.09,9.33-48.41,13.66l-48.42,13c-16.09,4.73-32.09,9.33-48.13,14.07l-24.07,6.62c-8,2.3-16.09,4.32-24.34,6.63,8-2.67,16.09-5.41,24.07-7.71l24.07-7.7c16.09-5,32.09-9.74,48.14-14.74,16.35-4.06,32.45-8.39,48.81-12.31,15.55-3.93,31.91-7.84,48.28-11.49h0ZM573.12,905.6c8-3,99.93-45.84,121.3-55.85,10.7-5,41.79-16,41.79-16Z"/><path class="cls-5" d="M573.12,905.6c7-2.68,13.66-6,20.42-9.06l20-9.33,40.17-19.34c13.37-6.36,26.36-13.37,40.15-19.34,7-3,14.07-5.41,21.1-7.71l10.69-3.37c3.65-1,7-2,10.7-3-13.37,6.35-27.45,11.77-40.84,18-13.37,6.63-27,12-40.84,18l-40.84,18c-13.71,5.55-27.08,11.5-40.73,17.18h0ZM582,943s83.29-48.82,112-64.51c15-8.38,63.56-32.46,63.56-32.46Z"/><path class="cls-5" d="M582.05,943.05c14.05-8.65,28.39-17.44,42.72-26.37l21.4-13c7.3-4.33,14.33-8.38,21.77-12.71s14.34-8.65,21.77-12.71a79.37,79.37,0,0,1,11.09-5.68l11.36-5.67c15-7.31,30-14.75,45.84-21.1-14.33,9.06-29.08,16.77-43.81,24.74-7.3,4.06-14.74,7.71-22.05,11.77s-14.33,8.39-21.77,12.31C663.07,899,656,903,648.6,907l-22.05,12-44.49,24.07h0Zm174.84-86.28s-51.79,39.76-68.56,52.47-66.13,48.41-66.13,48.41Z"/><polygon class="cls-6" points="1054.13 1177.4 1027.62 1127.23 1043.04 1064.48 1152.97 1022.02 1106.18 926.02 1129.31 829.06 1172.72 742.23 1306.87 721.14 1405.44 627.16 1618.3 643.25 1660.08 870.84 1579.62 1157.39 1533.78 1305.74 1347.97 1312.77 1261.7 1253 1160.69 1210.8 1054.13 1177.4"/><path class="cls-7" d="M1380,1175.78s-25.7,11.76-69.53,9c-12.69-17-101.53-25-101.53-25s-11.08-3.38-30.7,4.73-38.4,7-55.84,11.36-34.77-18.39-48.14-23.12c-13.37-5-31.1-17-31.1-17l-37.44-3.65-75.18-31.78-119.45-119-32.45,50.81-10,62.88,36.11,74.52L902,1258.1l189.59,48.14L1204,1273.13l140.77-59.5,35.3-37.86Z"/><polygon class="cls-8" points="706.45 755.22 730.52 682.34 759.2 635.27 851.55 627.56 823.83 708.43 746.62 845.83 778.67 968.48 721.87 996.87 704.42 970.1 690.36 908.71 689.42 839.74 706.45 755.22"/><path class="cls-9" d="M810,1170.78,792.32,1146s-4.73-11.77-2-22c2.67-10.42,2.29-11.09.94-15s-12.71-17.44-12-29.07-.94-15.69,7.7-25c9.06-9.05,6.36-24.74,6.36-24.74l11.76,7.3,2.68-4.06s4.32,3.38,4.32,8.66c1-7.3-3-41.12,6-48.82s24.74,36.1,24.74,36.1L833,965.77l-25-65.18-44.49-59.5L760.8,775.5v-5.68S740.38,801.2,734.7,826c-4.05,17,5.68,37.73,3.66,62.21-1.64,24.34-3.66,22.44,2.29,32.09s20.42,29.48,14.74,43.81c-5,12.31-22,3.66-22,3.66s-3.38,10-8,13.65c-1.62-5.94-3.38-9.73-6.63-13.37-.27,2.3-.94,5.41-.94,5.41s-3-9.33-5.95-21.1c-4.05-15.68-8.38-36.37-12.31-47.46-1.62,6.36-5.67,25.69-5.67,25.69l2.3,29.76,11.08,40.83,10.7,26.75,10.41,32.72,9,22,7.3,16.77,6.36,37.74,30.69,32.44,16.37,7.31,11.89-6.08h0Z"/><path class="cls-10" d="M722.54,695.72s-22,37.44-28.39,75.18-12,77.63-8,129c4,51.8,11.76,83.57,18,106.29,10.69,37.74,38.4,90.2,38.4,90.2l.94-2a143.38,143.38,0,0,1-11.09-27.72c-3.65-14.34-5-31.37-8.38-39.08-3-7.7-8-14.34-10.42-23.8-2.3-9.06-2.67-23.39-9.73-34.07-3-4.33-6.63-15.69-7.71-27.05-1.36-17,.68-36.11-1-51.79-3-26.1-5-43.81-2.3-57.48s16.78-52.46,25.44-83.29c5.68-19.75,2.29-36.38,12.7-53.56s16.78-32,19.07-42.46c2.67-9.47-27.58,41.65-27.58,41.65h0Z"/><path class="cls-11" d="M827.08,680.71s-11.36,3.38-16.77,9.33c-5.41,5.68-7.71,10.41-15,20s-7.71,17.45-13.67,29.48c-5.94,11.77-19.06,29.48-20.69,35.84s-4.32,36.1-7.7,50.17c-3,14.06,3.38,31.37,3.38,31.37l7.7-1.63s0,10,7.71,16.78,9.06-22.45,9.06-22.45l28.8-97.23L853.3,722.9,858,699.1l-31-18.39h0Z"/><path class="cls-12" d="M848.17,724.8s-20.42,1.34-30.42,8.65c-4.06,3-5.68,5.4-10,9.06-8,6.62-16.09,12.71-20,21.39-4.33,8.65-9.06,21.77-12.31,46.52-1.35,10.41-1.35,20-2.3,28.4-1.35,11.36-3.38,20.41-2.3,26.74,1.36,13,14.75,19.75,16,34.48L814.59,886l26.1-102.91,55.45-34.77-31.38-35.15-16.62,11.58h0Z"/><path class="cls-13" d="M701.91,1417.8c.12-1,.24-2,.35-3.08,4-34.76,4.74-61.11,7.7-77.61,4.33-23.39,7.31-32.09,6.63-40.85-1-14.06-2-24.33-.67-35.16,2-14.33,16.09-31.36,15.69-43.13-.28-9.33-5-15.41-9.07-21.09s-7.3-10.41-7.3-10.41,27.72-19.07,27.46-95.89a7.42,7.42,0,0,1,1.62.68L758,1130.07l9.33,11.35,35.83,66.81L849.26,1253l68.15,45.84,42.73,46.5,4.33,124-55.85,72.48-9.15,16.57a794.39,794.39,0,0,1-197.56-140.6Z"/><path class="cls-14" d="M872.52,1536.43s.94-15.41,13.65-25.42c2,3.37,3.38,6.63,3,9,2.3-4,18.39-30,54.77-36.78,36.38-6.62,45.17-33.12,45.17-33.12l77.2-70.18,88.31-81.28L1262,1261l50.18-12.31s.94,3.65-1,11.77c9.33-.67,30-5.41,51.52-13,8.65-3.38,16.78-4.74,21.1-.27,6.35,6,7.3,20,7.7,28.39,10.41-2.3,22.45-12.3,32.09-11.35,15.42,1.62,29.08,19.74,44.77,19.74,20.69,0,30-12.71,44.49-22.72,8.66-6,21.09-13.37,28.12-18.39,16.77-12.31,194.19-66.54,194.19-66.54l62.21,4.06,10,66.8-5.35,174.63c-.66.63-1.32,1.29-2,1.93l-282.83,147.71-392,60.1a785.86,785.86,0,0,1-250.63-86.21l-2-8.91h0Z"/><path class="cls-7" d="M725.69,1440c5.57-11.65,10.58-21.39,11.46-24.88.7,7,2,22.44,4.54,38.82q-8.09-6.87-16-14Z"/><path class="cls-15" d="M1012.08,1604.36l50.7-14.11,4.32,1.36s2.3,1.35,2.3,5.94c6.36-3.64,11.77-3,15.69-5.4,2,4.33,4.05,18.66,13,20.42,9.33,2,19.34-4.06,29.48-11.76,10-8,21.4-18,30-22a161.22,161.22,0,0,1,8.38,18c11.36-9,31.11-45.83,59.23-45.17a106.76,106.76,0,0,1,39.06-47.19c26.1-17.71,42.46-19.06,62.88-17.44a107.62,107.62,0,0,1,29.48-26.37c3.38,1.35,12.72,7,24.35,1.62s25-26.37,42.46-29.07a41,41,0,0,1,27,5.68s50.81-50.44,85.87-67.21c-1.35-4.06-4-19.34,37-53.15,2.3,2,.68,7.71,2.3,8,.67,0,10.7-4.32,23.39-14.06,15.69-11.76,34.48-24.07,45.84-27.45,21.39-6.36,44.09,6.62,44.09,6.62a20.27,20.27,0,0,1,6.35-3c5.41-.95,9.33-1.63,12.31-2.68-.27,7,3.65,19.07,0,29.48a65.37,65.37,0,0,0,13.37,5.68c-2.29,5-7.3,17.71-15.68,23.8,7,3.38,8,7.3,18,10.7-4.06,5.68-10.7,15.42-13.66,21.39-3,6.36-13.66,32.73-18.4,42.73-5,10-11.76,28.4-15,32.09s-15,19.33-24.07,27c8-3,40.85-13,54.77-16.77-4.14,6.08-25.16,37.25-45.35,67.23a793.49,793.49,0,0,1-649.59,75.2Z"/><path class="cls-16" d="M851.51,721.14s-11.75,0-14,1.62,11.76,5,16.09,6.64,13.65,9.05,16.09,15c2.3,5.68,84.51,38.8,84.51,38.8l58.15-3,20-27.69-38.14-33.4L1021,640.3,985.53,646l-85.19,50.81L857.6,713.15l-6.09,8Z"/><path class="cls-17" d="M979.21,747.24a9.13,9.13,0,0,0,8,4.33c12,0,23.12,3,27.72,9,7.71,9.75,29.08,40.85,29.08,40.85l51.11,18.39,3.3-60.19-55.85-38.8L979,744.26v3h.18Z"/><path class="cls-18" d="M969.18,769.56a55.7,55.7,0,0,0,21.09-3.66c11.77-4.33,31.1-13.66,39.49-10,11.76,5,9.33,20.69,22,34.76,7.7,8.66,21.77,8.39,29.74,17.73s35.43,5,35.43,5l10.41,56.16-41.78,53.55-13.67,66.53h-56.49l-51.62-20.48-25.42-61.5,12.71-62.21,18.06-75.88Z"/><path class="cls-19" d="M1078.47,772.26a15.1,15.1,0,0,0,4.32.67c-1.62,1.36-5,4.33-3.65,12s5.68,17.44,2,23.39a29.31,29.31,0,0,1,6.36,11.09c2.3,6.63,3,12.71,18,13.66a32,32,0,0,0-6,4.74s10.41,9,15.69,17.43c5.4-.23,19.74-4.69,19.74-4.69l3,2,6.36-2.68s-6-2.3-1.62-16.76c4-12.72,7.71-12,8-13s3-14.34,3-19.75c2-7,3.64-28.39,3.64-28.39L1153,724.88l-24.34-14.75L1108.89,691l-18.66,35.16-12.29,12.25-1,30.43,1.48,3.39Z"/><path class="cls-20" d="M1137,732.78s4.32,12.3,6,21.76a20.66,20.66,0,0,0,1-5.67s3.38,18.66,4,26.37c1.35-.27,2.67-.68,3,.67s3.39,16.37,2.68,24.75a67.43,67.43,0,0,1,22.71-22.72c5.41-3.38,11.77-7,18.4-7.31,10.41-.26,18,6.64,30.42,6.64,30,0,57.21-22,77.22-28.81,14.73-5,27.45-8.65,36.37-16.77,4.33-3.65,12-11.76,19.07-23.8,9.33-16,19.06-30,28.81-31.77a60.56,60.56,0,0,1-13.37.94,106.26,106.26,0,0,1,8-7c5-4.06,11.09-9.06,19.74-9.06,15.42,0,23.12,2.29,31.77,2.29,8.66-.27,13.66-2.29,13.66-2.29s9.07,6.36,29.48,6.36c20.42.26,34.08,2,44.77,3s46.51-3,56.79-2.67a49.85,49.85,0,0,1,19.34,4.73l-33.13-96.27-119-104-70.86,50.17-109,109L1159.33,670.3l-22,24.75v37.73Z"/><path class="cls-21" d="M1373.67,677.6s3-3,8-7,11.1-9.06,19.75-9.06c15.41,0,23.12,2.3,31.78,2.3,8.65-.27,13.65-2.3,13.65-2.3s9.08,6.34,29.48,6.34c20.43.27,34.08,2,44.77,3s46.52-3,56.79-2.67a49.5,49.5,0,0,1,19.34,4.73l-15-43.41-17.44-33.13L1515,541.84s-59.72-35.16-60.18-35.42c-.26-.27-20.69-5.68-20.69-5.68L1380,533.46l-49.08,127-1,26.75,31.77,15c8-13.37,16.78-24.07,25-25.42-7.45.81-13.12.81-13.12.81h0Z"/><path class="cls-22" d="M1373,686.66c-4.74.27-8.65-.68-9.74-4-4-11.36-7.3-13-10.69-13s-8,7.3-10.7,8-5.95-8.38-5.95-8.38l-3-1.36s-17.44,11.36-29.74,24.75-32.46,36.11-41.52,40.16-40.16,5.41-50.81,7.71-22.44,10-24.07,11.76,4.75,3.65,5.69,5.41-10.42.94-11.36,2.67c-.67,1.35,2.67,9.06,4.33,13a22,22,0,0,1,9.32-2.3c10.41-.27,18,6.63,30.43,6.63,30,0,57.2-22,77.21-28.81,14.75-5,27.46-8.66,36.38-16.77,4.33-3.64,12-11.76,19.07-23.8,5.13-8.24,10.14-16,15.15-21.63h0Z"/><path class="cls-23" d="M942.44,1355.91s-2.68-10-27.46-35.84c-7-7.3-11.35-13.37-16.09-17.71-11.76-11.1-18.66-14.07-27-20.42-18.39-13.66-38.41-13.66-53.82-30.43s-33.37-48.8-45.85-81.54c-12.3-32.73-15.69-43.14-15.69-44.09s3.39-7.3,7.71-6.35,4.32,9.32,5.41,11.36a67.64,67.64,0,0,0,7.3,9.32c6.36,7.31,15.41,16,20,29.08a131,131,0,0,0-4.73-23.39s23.8,15,44.08,30.69,28.8,21.1,34.77,31.1,20,36.38,26.74,44.09,99,36.78,99,36.78l43.86,32.71,21.78,47.73-17,26.74-32.73,7L959.46,1379l-17-23.08h0Z"/><path class="cls-24" d="M824.37,1191.47s11.09,17.71,38.13,34.48c24.35,14.74,62.89,28.13,97.24,36.11,19.74,4.73,39.48,8.38,57.2,8.65,47.73.67,80.59-13,121.3-17.44,22-2.3,49.09-4.06,77.22-10.7,36.1-8.65,57.47-18.4,86.54-32.09,21.09-9.73,40.44-17,56.12-26.37,22-13,38.13-27.44,56.8-31.77-2.3,6.36-4.73,17.71-23.12,29.48,9.73-.28,23.12-.94,23.12-.94s-13,7.7-35.83,25c-14.07,10.7-32.73,28.8-51.8,40.84-12.31,7.71-25.7,13.37-34.49,18-21.39,11.77-30,17.72-44.08,32.1,5-.27,5.41,0,5.41,0s-17.72,2.3-30.42,9c-2.67,0-7.31-.94-15.42,1.36-6.36,2-14.75,6.63-23.39,9-12.31,3.66-16.36,2-16.36,2l2,4s-16-.27-21.39.27c.94.27.68.68.68.68a8.48,8.48,0,0,0-2.68.94,27.84,27.84,0,0,1-8.38,3.65c-1.62.27-3,.27-5,.68.68,1.62,6,10.69,8.39,16-2,1.36-32.46,24.35-32.46,24.35a22.49,22.49,0,0,1,2.3,4.73c1,3,1.36,7.3,2.3,9.32,2.3,4.06,3.65,4.74,3.65,4.74s-3.65.68-10,2.3c-5.4,1.35-12,3.64-21.39,5a86.82,86.82,0,0,1-8.66.68c1.35,3,7.3,14.33-3.66,27.44s-14.33,15-17.71,23.4a36,36,0,0,0-5.41-3.38c-3.64-1.63-8.65-4-10.41-7.3a86.19,86.19,0,0,1-4.06,12.71c-3.37,9.05-8.38,18-9.32,24.74-3.66-4-10.41-12-19.75-10.41s-16.76,14.33-18.39,18c0-2.3-1.62-4.06-2-1.36-.28,3-5.41,34.08-34.08,59.23-.27-6.35-.27-20.42-.94-25-2.68,2.67-5.95,6.62-25.43,15-19.06,8.38-16,16.77-16,16.77s-1.62-13.37,8.65-27.46,16.77-20.69,16.77-21.77a6,6,0,0,0-1.35-3c-1.36-1.36-4.06-3-4.06-4.06,1.62-.67,17.71-8.38,16.77-24.35-1-14.32-7-21.76-11.36-27-.67-.68,6.37-5.68,5.41-7.3-.68-1-9.32-7.31-10.41-10.7a32,32,0,0,1,1.35-6c.95-3,1.63-5,1.36-7-.68-3.38-4.33-12.71-5.41-13.66.94.27,7.7,0,7.7,0s-5.4-8.65-6.35-12.71-3-14.74-4.06-16.77c2.3.27,8,.67,8,0,.27-2-5-5.41-2.68-8,1.63.27,4.74,1.62,7.71,5.41-1.63-4.33-4.33-12.71-10-16.09,2.68-.94,11.77-3.39,19.75,1.35a26.53,26.53,0,0,1,10.7,11.35s4.73,3.66,12,9.07c8.38,6.62,19.06,16,36.1,22.71,3.66,2,13,2,19.75.68a30.33,30.33,0,0,0,8.38-3.38,15.57,15.57,0,0,1,3-1.35,64,64,0,0,0-5-8.39c2.3,0,5,.28,5,.28s1.63-3.66-5.67-10.7c1.62-1.62,3.65-2.68,3.65-5.41-2.3-.27-6.36-3.65-7.3-5,1.35-1,3.38-4.06,5.68-5-2-1.63-7-8.39-9.33-9.06a42.69,42.69,0,0,0,6.35-3s-11.36-3-15-5.41c-3.66-2.67-9.06-7.3-12.3-8.65-3.39-1.36-9.34-2-11.77-4.74,2.29.68,6,0,8.66,0,2,0,3,.27,3.64.27-.26-1-.26-3,5-3.65a24.36,24.36,0,0,0,7.3-2.3s-5-.26-10.69-5.67-10.42-9.74-13.66-10.42-9.73,2.3-13.66,2c-5.41-.67-7.71-3.38-7.71-3.38s-18,1.62-57.87-22.71c-34.49-21.1-49.5-39.76-49.5-39.76a58.86,58.86,0,0,1-9.32-4.33c-13-6.76-31-20.83-30.43-39.23h0Z"/><path class="cls-25" d="M1321.87,379.82a17.64,17.64,0,0,1,8,5.42c6.35,7.3,10.41,21.09-4.06,35.83,5.68,2,8,2.68,13,2-5,6-16.36,18.67-17,29.76-.67,9.06,5,11.77,5,11.77s-8.66,10-9.06,26.74a108.55,108.55,0,0,1,13.37-12.71,355.58,355.58,0,0,1,33.13-22.72,19.26,19.26,0,0,0,1,7s17.44-14.34,32.09-8c6.62,3,3.65,12.3,3.65,12.3s9.06-3.38,15.42,3,15.34,22.75,20,29.1c2,3,7.3,8.66,12.7,17.45a220.75,220.75,0,0,1,18.4,38.8c.27-7,2-18,22-11.09,20,7,42.73,21.78,61.8,50.81s23.79,61.82,33.39,74.3c9.74,12,19.75,32,20.42,40.43s-3,35.43,17,108.58c5.68-22.71,14.33-73.15,14.33-73.15l4.74-44.5,5.41-137.66L1502.81,443.92l-112.38-81.55-73.16,7,4.59,10.42h0Z"/><path class="cls-26" d="M1589,584.69s-2-13.37-35.83-36.1c-33.81-22.45-60.18-22.45-84.52-41.51-18.66-15-38.13-49.51-50.81-60.86-12.31-11.23-14.33-43.68-14.33-43.68L1445,367.77l61.74-89.24,52.19-57.47,25,34.77,34.76,40.83L1638,378.61l7,120-56.16,86.14Z"/><path class="cls-27" d="M1630.74,728.47a152.29,152.29,0,0,0-6.63-53.82c-8.91-27.72-28.39-76.94-37.44-95.38-3.65-20.42-.94-22,3-24.34s18.66-10.7,26.74-40.16,33.14-30.43,33.14-30.43L1664.94,473l23.4,58.55,20.41,52.88,6.36,40.43,4.73,34.48-11.09,72.89L1654,781.71l-23.26-53.24h0Z"/><path class="cls-28" d="M866.57,1540.9v-1.49a11.5,11.5,0,0,0,3-2.68c.94-1.35,1.63-3,2.3-3.38,1.35-.67,7.71-2.67,11.09-2s12.31,4.32,17,4.06c9.74-.27,21.09-7.71,39.08-4.33,27.05,5,33.4,23.4,49.09,33.81,10.7,7.31,21.77,4.05,23.39,4.05h3.65c.68,0,5.68-5.68,8.39-5.4,5.41.27,5.94,4.73,9.32,5,8,1,23.4-4,31.11-2a14.86,14.86,0,0,1,9.74,9.72c1.62,5,.26,11.36-3.66,15-8.38,7.7-16.36,15-18,21.39a73.07,73.07,0,0,1,5.94,5A787.29,787.29,0,0,1,866.57,1541Z"/><path class="cls-29" d="M1586.65,1270.71s21.09-28.12,28.4-42c7.3-14.36-23.12-196.21-23.12-196.21l61.13-200.27L1651.42,767s3-60.18,10-86.28c8.39,15,34.49,33.13,40.17,42.73,2.68-18.4,11.76-57.2,10.41-98.58,5,7.7,17,85.19,17,85.19l12,52.19,15.69,55.45,17.45,58.56,10.41,40.43,5.95,9.74,5,17,4.73,18.4L1814,1005l8,35.42,6.35,64.24a97.23,97.23,0,0,1,3,15c.27,7-.94,11.09-.94,12.31s2.3,15.41,1.35,26.1c-1.35,10.7-1.35,19.07-9.74,26.75s-13.66,53.54-13.66,53.54l-15-10s3-13.66-4.06-26.1-20.69-15-28.4-13c-7.7,1.62-23.11,4-28.12,8.38-4.73,4.32-16.36,17.71-27,23.8-13.37,8-35.15,8.66-46.78,11.36s-24.75,10.7-38.41,20a215.08,215.08,0,0,1-33.8,17.83h0Z"/><path class="cls-30" d="M1586.65,1566.19s.89.57,2.62,1.52a794.27,794.27,0,0,0,253.16-187.65c-.78-27.36-1.78-55.42-2.89-65.81-2.29-22-.67-44.49-1.34-57.47s-8-65.86-11.36-79.51c-3.66-13.66-10.7-20.43-11.77-20.43-.94.28-6.63,25.7-6.63,32.09s-1.36,21.78-1.36,25.7c-.94-.27-1.34-2.67-1.34-3.65-1.36,3.38-3,9.33-3.66,10s1-5.68,0-7-2.67-.68-2.3-4.06a38.79,38.79,0,0,1,1-6s-4.06,6-7,21.1-3,15.42-4,16.76c-1,1.64-6.36,7-6.63,9.07-.27,3.65,5,7.3,5.41,9.32.26,3.39-4.74,19.07-6.36,26.75s-.94,22.71-2.67,30.42c-1.36,7-2.68,11.09-7.3,14.06,3.37.68,6.62,1.62,6.62,1.62s4.73,20-7.3,37.06c-4.32,5.94-5.4,8.65-10,14.06-9.07,10-16.1,21.4-16.78,28.81a48,48,0,0,1-.94-6.64s-14.06,16.37-20,25.7c-7.7,12-18.39,11.36-21.39,14.34s-3.66,8.38-2.68,12.71c-2.67.67-7.7,1.62-11.08,12-1.63,5.41-5.68,10.7-12,14.34s-14.07,4.73-18,5.68c3.38.94,4.74.94,6.36,2-2,3.38-11.36,8.66-21.77,15.42-10.41,6.36-15.42,15.68-18,21.77-2.67,5.68-6.62,9.33-13,10,2.68,1.62,6.63,5.4,8.66,6.62-3,.68-8,.68-17,8.39-9.46,7.85-12.71,10.15-17,10.82h0Z"/><path class="cls-31" d="M1398.49,1628.85a76.56,76.56,0,0,1,16.7-8.85c21.09-8.38,43.4-10,52.19-12.7,8.39-2.68,15-6.37,25.42-8.39-.27,2.37-.5,4.6-.75,6.7a788.84,788.84,0,0,1-93.6,23.24Z"/><path class="cls-32" d="M1787.51,1074.09s-4.32,23.39-12,38.14-16,35.16-16,35.16a64.16,64.16,0,0,1,1.62-13.67c-9.73,5.68-33.4,19.34-40.11,25.42-6.36,5.68-17,15.69-19.75,20.43,6.36-18.66,13-35.43,14.07-43.14-9.74,7-55.18,44.49-78.84,69.24l-73.7,59.63a256.57,256.57,0,0,1-26.24,12.29c-12.7,5.4-27.71,10-38.8,14.33a61.56,61.56,0,0,1,14.33-21.78c7-6.62,28.13-29.48,31.37-40.11,3-11.09,3.66-17.71-.26-27-3.66,1-12,1.36-17.72,3s-11.76,7.7-11.76,7.7,4.32-24.74,13.65-48.13c-7,.26-19.06,2.29-19.06,2.29s16.76-28.13,45.46-47.73a147.8,147.8,0,0,0-25.69,8c-16.77,7-35.16,17.44-48.82,23.12,7.7-10.69,61.8-87.89,94-159.84s44.08-90.19,51.11-128.73c3.65-19.07,2.67-47.24,3.65-72.48.94-25,4-47.47,2-62.48,8.38,10.41,39.76,39.76,40.83,105.35s-30,154.16-62.88,201.89c8,2.3,28.81,5,50.17-32.09s21.1-47.46,28.81-62.89c.95,7.72.67,10.42.67,10.42s31.11-37.73,45.85-85.2c3,20.43,11.76,38.41-2,75.87-12.31,33.81-28.4,42.06-28.4,42.06s8-1.36,19.74-8.39c2,5,1.63,10.7,5,12.71s8,5.41,8.66,8.66c3.64-5.41,9.32-12.31,11.08-17.45-1.35,10.7-2.3,57.47,2.68,81.27,10.42-.94,21.1-1.62,28.4-20.42-5,18.4-5,29.48-1.62,45.17,5.54-3.78,10.54-10.54,10.54-10.54h0Z"/><path class="cls-33" d="M1436.15,328.71S1425.73,333,1408,333c-15.41,0-11.09-5.94-35.16-5.94-37,0-166.46,21.39-189.18,21.09-14.75-.27,49.76,6.35,49.76,6.35l164.85,2.3,33.12-2.67,12.31-25.05Z"/><path class="cls-34" d="M1008.69,651s-21.1,16.09-30,28.4-13.66,20.41-23.8,30.43a20.67,20.67,0,0,0,7-.95s0,2.67-1.62,3.38a9.44,9.44,0,0,1,7.7,2.67c-3,1.63-11.09,9.75-4.74,19.35,4.74,7.3,14.75,8,14.75,8s-2.3,6.63,7.3,5.95c20.69-.94,43.81-10,54.49-7.71,10.7,2.67,16.78,3.65,24.35,16.78,8,13,15,15,15,15s4.73-12,3.65-30a89.28,89.28,0,0,0,6.36-30.43l-7-51.79-30.7-38.81-39.75,22-3,7.7Z"/><path class="cls-35" d="M1046.41,643.25s3,7,15.43,7.7c-1.36,3-1.36,3.39-.95,5.68s.67,5.68.67,5.68a12.53,12.53,0,0,0,3.65-2.68c.68,3-.67,7.71,0,11.09a24.61,24.61,0,0,0,2,5.95,12.18,12.18,0,0,1,.68-1.35c.26-.67,2.67,7.3,9.33,13.37a5.43,5.43,0,0,1,.67-2.67,9.32,9.32,0,0,0,1.62,4.73,4.82,4.82,0,0,1-1.35-.94s.67,21.39,4.33,32.46a15.9,15.9,0,0,0,1.62-2.3c0-.67-.27,5.95-1,10.69a46.85,46.85,0,0,0-.26,11.36,35.23,35.23,0,0,1,8-4.73c4-1.64,10.69-6.64,14.74-17.73a117.73,117.73,0,0,0,5.41-19.33,27.08,27.08,0,0,1,2.68,8c.27,3.38,6.63,1.62,6.63,1.62l1.35-14.74,8-33.4L1137,641l35.15-54.76,63.53-48.92,55.44,12.71L1338,486.51l-80.6-48.41-76.27,8L1111.86,542l-55.43,87-10,14.33h0Z"/><path class="cls-36" d="M1445.88,504.51s-4.73.94-18.39,8-23.12,9.33-28.4,19.74-5.68,18.66-5.68,18.66,9.33-4,14.74-5.41c5.68-1.34,12-.94,11.36,1.36a15.82,15.82,0,0,1-2.67,4.32s10.69-.27,10.41,5-2,11.09-4,13.66-10.41,6.63-11.36,9.74c-2.29,6.36,1,6.62-.27,11.76-1,5-5.4,14.74-20,31.78-15,17-21.4,29.08-21.4,29.08s-7.3-13.66-11.09-25.43c-2.67,1.35-17,9.33-17,9.33l-33.27-115.89.67-7.71s3-3.65,3.65-10.41c-5-1.62-5.68-3-12.31-9.33s-12-14.06-23.11-19.34c-1.62-3-3.66-7-11.77-8.65s-13-3-13-3,4.33-1.63,6.36-5c-5,.67-9.06,2.3-20,2s-12.32-.68-18.39.27-13.38,3.65-16.09-5.68c-3-2.3-9.34-.27-14.75,7.7s-7.3,14.33-17.71,17.45a36.15,36.15,0,0,1-4.74,13c-3,5-7.71,10-14.06,17.45-10,11.77-8.39,31.1-24.35,45.85s2.68-40.85,2.68-40.85l25.69-61.51L1230.71,381l113.59-7.71,11.09,58.84,55.45,19.07,35,53.41h0Z"/><path class="cls-25" d="M1463.87,517.49l-47.74-68.83-33.4-25.7s-23.8-43.8-25.42-45.16c-1.36-.94-23.8-3.38-38.14-4.32l2.68,6.62a17.54,17.54,0,0,1,8,5.41c6.36,7.3,10.41,21.09-4.06,35.84,5.68,2,8,2.67,13,2-5,6-16.36,18.67-17,29.76-.68,9.05,5,11.75,5,11.75s-8.66,10-9.06,26.75a107.8,107.8,0,0,1,13.37-12.71c10-8,23.8-17.05,33.14-22.73a19.1,19.1,0,0,0,.94,7s17.44-14.34,32.09-8c6.63,3,3.65,12.31,3.65,12.31s9.07-3.38,15.42,3,15.41,22.71,20,29.07c2,3,7.3,8.66,12.71,17.44a221.18,221.18,0,0,1,18.4,38.81c.26-5.41,1.35-13,10.69-13l-14.2-25.42Z"/><path class="cls-37" d="M748.24,713s-3.38-8.39,0-24.75,8.66-24.06,10.41-48.13,17.45-54.09,17.45-54.09l43.4-19.74,30.7,8.38,9.06,41.11-38.81,21.4s-2,9-13,16.35-26.1,13-29.75,20.43A59.22,59.22,0,0,0,773,688.32s-11.09-2.3-17.71,5c-7,7.44-6.77,14.07-7,19.75Z"/><path class="cls-38" d="M835.87,702.07s-3.66,2.3-6.36,8c-2.67-4.33-9.06-30-9.33-53.15s-1.65-28.85,3.7-36.82,26.32-16.37,23.35-30.72c-3-13.66-15.43-19.34-30.7-15.42-10.7,2.68-18.66,25.43-29.75,36.78-8.39,8.66-18.39,7.31-21.09,12-3.66,6.35-.28,12.71-1.36,16.77-.27,1.35-3.65,8.65-9.74,17.44-12.3,17.71-33.13,42.74-35.84,65.18,1-12.71.28-13,3.66-27l-2-3.38L733.75,648l8.65-36.1,19.35-60.45,34.07-61.8L829,452.56l34.48,2.3,4.06,51.79,19.74,97.23L928.75,655l-66.54,44.77-26.37,2.3h0Z"/><path class="cls-39" d="M856.56,720.45s-5.68,1.35-7.71.27-4.05-2.3-3.38-3.65,4.32-3.65,4.32-4.74a3.78,3.78,0,0,0-3.38-4.05c-3.11-.4-4,1.62-4,1.62s-3-2.29-5.4-2.67a36.58,36.58,0,0,1,4.32-.28,42.34,42.34,0,0,0-11.77-3.38c3.38-2,10-8,14.34-8s7-.66,6.35-3-4.05-5.68-7.7-7c1.35-1.62,2.3-4.05-.94-10.7s-2-11.08-.95-12.7c.95-2,4.32-5.68,5.95-8s3-5.41,5.68-7c1.35-.94,5.67-2.67,10-4.32,4.73-1.63,8.65-3.66,11.35-1.63a3.72,3.72,0,0,1,1.63,4.74s9.33-3.39,17.71.94c8.39,4.05,28.81,6.63,28.81,6.63l7.32,14.74-48.42,41.51-20,10-4,.67h0Z"/><path class="cls-40" d="M923.76,652.58s-15,10-18.39,13.66c2,.28,5.41,1.63,4,3.65-1.62,2-11.36,9.06-16.77,15.69-5.68,6.63-11.09,15-13,19.07-2,3.65-17.44,14.33-22.71,15.68,11.09,0,33.4-13.66,41.78-13.66-.27,4.06,2.3,8.66,7,9.06s18.39,3,36.78-8.38c18.39-11.09,12.32-19.34,20-24.74,14.74-9.75,20.69-18.4,28.8-23.81s12.31-6.63,12.31-6.63.27-4,2.67-3.64a3.63,3.63,0,0,1,3,2.3s14.07-10,32.09-12.72a1.83,1.83,0,0,1-.94-.94s1.34-.68,1.62-1.36c0,0,.94-1.35,1.62-.67s1.62,5.68,3,7.71c3-1.36,8.66-14.07,8.66-14.07L1069,589.7V554l-10.7,2L978.1,590.1l-48.69,50.45-5.68,12Z"/><path class="cls-41" d="M1154.73,477.46a45.28,45.28,0,0,0,12.35-5c-1.62,4.33-1.62,9.07-8.66,19.35s-7.3,11.76-13,22.44c-5.68,11.09-6.35,27-11.76,34.07a24.63,24.63,0,0,1,7.7-2.29s-5.4,4.74-7.7,9.74-6.36,15.41-16.36,21.77S1094.6,588,1080.94,603c-13.67,14.73-27.72,33.4-34.77,40.11,3.66-6.35,8.66-19.07,10-27.45s-.27-18.39,2-29.48,2.3-19.06,13.37-38.41,30-86.55,30-86.55l40.84-13,12.31,29.21h0Z"/><path class="cls-42" d="M1125.25,452.72s-12.3,17.71-15.68,33.4-.27,14.33-2.3,22a28.78,28.78,0,0,0,0,14.34,50.86,50.86,0,0,1,17-16.78c11.63-7,21.1-12,26.74-18,5.68-6.36,10.41-16.77,22.72-24.75-5-.67-12-3-13.38-2.67,5-5.68,20-14.33,35.16-24.75,15-10.69,14.07-15,38.41-25.69-8,1.36-11.76-.67-18.4,0,2.68-5.67,12-8.38,21.4-17.71s-6-23.12-6-23.12l-71.31,43.13-34.48,40.57Z"/><polygon class="cls-43" points="931.74 420.53 933.36 407.55 953.79 374.82 975.15 317.35 975.15 238.78 973.53 193.35 976.91 163.59 979.48 154.13 982.19 150.48 999.62 159.54 1023.7 192.26 1026 255.42 1002.6 355.08 935.8 427.97 931.74 420.53"/><path class="cls-33" d="M984.89,146.82s-10.7.28-13,44.77-3.39,67.88-5,89.93-5.4,35.42-7.3,48.41-3,30.69-9.06,41.52c-2.67,5-8.39,20.69-21.78,32.45-15,13-37.44,22.05-40.83,22.72-6,1.35-36.11,4.33-48.41,11.09-4.33,2.3-11.77,5-20,12.72-16.36,14.73-38.13,41.1-53.82,72.88-24.07,47.47-48.14,181.47-48.14,181.47l5.41-9s.68-12,12.71-33.14c11.77-21.09,8.39-44.76,24.75-85.19,6.36-15.41,14.33-35.43,24.07-52.47,15.42-27.72,34.08-51.52,52.88-64.5,30.69-21.09,64.5-25.69,64.5-25.69l36.38-24.07s6.36-12.3,14.74-26.37c11.76-19.74,26.75-41.78,30-73.83,5-47.47-7-78.57-6.36-106.69s1-48.82,6.63-53.83,1.63-3.11,1.63-3.11h0Z"/><path class="cls-44" d="M984.89,359.13s16-39.49,23.39-74.51c1.35-7,4.06-14.06,4.73-19.74,3.38-33.13,4.33-46.79,0-64.91-3.38-13.37-16.35-25.42-23.12-34.76-6.62-9.75-9.74-13.38-8.38-15.43s6.62-5.4,11.76-5a40.29,40.29,0,0,1,28.81,13.37c10.41,12,18.66,52.88,18.66,52.88l8.67,53.9,22,67.88-86.54,26.38h0Z"/><path class="cls-45" d="M1135.66,318s-3,1.35-8.38,0a12.07,12.07,0,0,1-5.41,11.36c-5.67-2.3-58.83,2.3-58.83,2.3s-24.75-4.33-32.46-37.06c-5.4-21.78,4.06-51.79,1-71.54-4.74-29.07-11.36-34.76-12-43.81s-1.35-11.36-1.35-17c-3-.68-4.73-1.63-7.7-1.63-.68-2.67.67-5-2.3-9.74,1.62.68,12.71,2,25.69,14.33,10.69,10,10.69,13.66,12.31,15.69,2,2,18.39,16,25.42,30s20.69,58.55,23.8,65.85c1,3,3,6,8,12.71,7.84,9.74,19.33,25.85,32.31,28.52h0Z"/><path class="cls-33" d="M1048.05,181.58a373.79,373.79,0,0,1,22,41.11c8,18,12.71,32.73,22.72,44.76-5.41-15.68-15-46.51-20.69-57.47-6.35-11.59-19.33-24.07-24.06-28.39h0Z"/><path class="cls-46" d="M956.09,403.9s-13.66,3.38-39.08,16.77c-8.39,4.32-16.36,8-24.07,11.36-20,9.05-41.52,17.42-58.56,22,1.36,1.62,2,2.29,2,2.29s0,6.63,3.66,10.41c-2,2-29.08,20.43-21.09,82,5.4-2,11.76-4.73,12.7-4.73,1.63.28,2,4.73,4.06,4.73s8.65-2.67,15.69-11.76c-.27,3.65-4.33,40.43,17.44,65.18,4.06-4.74,14.33-20.43,14.33-20.43l.27-5s.95-17.44,6.63-33.4,16.77-27.72,16.77-27.72L964.72,433l-8.65-29.07h0Z"/><path class="cls-47" d="M902,525.22a31.74,31.74,0,0,1-8.65,4.33c-1-3.38-2.3-15,5.68-26.37,9.33-13.67,29.74-31.38,35.42-45.46,3.66-9.07,2-31.78,34.49-60.86s45.16-39.08,45.16-39.08l52.47-26.37,64.5,25.42-32,125.61-24.88,58.83-99-18.66L902,525.22Z"/><path class="cls-48" d="M939.76,491.12l12.32-15.41v-11s13.65-3.65,28.39-18.67,35.15-43.81,53.14-42.05c18,2,19.75,39.08,20.43,49.5s3,34.07,6.62,46.79c4.06,12.71-43.81,60.85-43.81,60.85l-32.51,24.74-44.58-94.79Z"/><path class="cls-49" d="M977.86,619.45s10-15.69,2.67-19.07c4.32-9.73,12.3-20,12.3-20s5.68-14.06,24.07-31.37,29.76-28.81,32.73-40.44a106,106,0,0,0,3-23.12,43.66,43.66,0,0,0,6.36,4.32c3,1.36,17,13,15,36.38s-10.7,33.14-10.7,33.14S1054.9,567.66,1049,572c-6.37,4.32-8.66,9.32-19.35,9.73a12.74,12.74,0,0,1,3.66-2s-11.09-1.35-17,4.06-18.61,22-25,27c-6.35,4.06-13.37,8.66-13.37,8.66h0Z"/><path class="cls-50" d="M1427.49,356.42a163.06,163.06,0,0,0-49.76-9.73c-28.4-.94-69.91.68-110.62.95-43.81.26-83.57-15-138.74-17.72-9-5.41-32.09-29.08-104,21.09,4.32-.26,52.2-11.09,68.83,9.75s12,55.84,9.74,64.22c-4.33,18.67-18.4,45.85-24.07,64.92s-4.33,29.08-8.39,42.46-13,20-7.71,35.42c7-4.32,10.7-4.32,22.45-30.69s9.33-45.17,28.81-67.48c19.07-22.45,50.81-53.15,62.88-60.86s107.91-57.47,208.25-10c24.21-2.57,42.33-42.33,42.33-42.33h0Z"/><path class="cls-51" d="M1064.8,338a12.13,12.13,0,0,0-.66-3,21.58,21.58,0,0,0-3.66-5.41s-23.8-4.33-35.83-3c-21.1,2.3-40.17,28.4-49.09,41.79s-20,34.07-32,44.76a4.47,4.47,0,0,0-.68-3s.68.95-.67,2.3-1.35,2-.67,2.68l2,2c.67,0,19.33-8.39,44.76-32.09,27-24.75,47.73-37.44,58.55-41.79a81.84,81.84,0,0,1,18-5.32h0Z"/><path class="cls-52" d="M1526.48,236.35s-4.33,5.4-9.74,11.36c-12,12.71-27.72,27-41.11,41.78-12.71,14.06-27,25-43.14,43.41s-34.77,38.8-39.49,44.76c-4.32,5.95-7.7,15.69-7.7,20.69-2.3-1.62-5-3.38-5-3.38a33.39,33.39,0,0,0,4,5.95c3.38,4.74,8.65,10.7,11.36,14.34a43.65,43.65,0,0,1,7,15.41c1.63.27,12,2.3,25-19.07s30-44.75,30-44.75l27-40.17,17-34.07,21.4-38.14,3.25-18.12h0Z"/><path class="cls-33" d="M1554.21,209s-16.37,13.37-22.73,21.39-21.39,29.08-21.39,29.08l5.41-.68L1543,234.5l10.69-19.07.55-6.36Z"/><path class="cls-53" d="M1549.2,1283.69s-.27-11.09,6-17.71,22.45-16.37,38.14-52.88,17.43-44.76,17.43-44.76-28.12,24.07-45.46,29.75c4.06-8.39,6.35-14.33,8.39-18.67-2.3-2-12-4.32-13-5.4,5.4-5.41,8.38-18.67,19.33-27.45,14.07-10.7,39.76-29.08,59.73-45.47s59.22-54.49,64.23-65.58a24.44,24.44,0,0,1,3.65,7s-19.74,25.7-30,42.06c-9.07,14.07-8.39,22.05-8.39,22.05l18.66-8s5.41,20-19.06,50.45c10.69-4.06,15-1.62,21.09-5-10,6.37-23.8,15-36.78,38.81-12.71,23.8-30,51.53-59.23,68.83-28.4,18.26-44.77,31.91-44.77,31.91h0Z"/><path class="cls-54" d="M1475.9,370.5s-11.09,23.11-12.71,41.1c-.27,4.34-1.35,7.71-1.35,12.72-.27,16.09.94,34.07-2.68,42.45-1.35-3.37-2-5.67-3.39-7-2,5.68-5.67,23.39-8.65,30-1.35-4.32-4.32-19.33-4-37s.67-21.1.67-24.75c-.67,5.4-4.32,12.71-5.68,17-2-3.65-4.32-8.38-7-12.31-1.62,2.68-3.65,6.63-5.4,8.66-.28-1.62-1-6-1.36-12-.27-7-.68-16.09-.27-18,.67-3.65,6.36-18,18.39-31.11,14.34-15.68,29.08-45.83,33.41-55.17s22.71-48.13,22.71-48.13h14.07l-20.43,46.51s-12.3,25.43-18.65,34.77-19.75,36.11-25.7,46.52c4.32-5.68,8-8.65,12.31-14.07,4.19-3.78,15.81-20.14,15.81-20.14h0Z"/><path class="cls-55" d="M1554.47,207.27a58.3,58.3,0,0,1-10.69,19.35c-8.39,10-26.38,23.39-35.16,34.07-8,10.41-24.07,38.81-16.78,72.48a121.7,121.7,0,0,1,21.1-38.14c13.39-16.36,27.72-35.16,34.77-49.76s8-26.37,8-26.37l2.67-3.37-1.62-7.71-2.3-.55Z"/><path class="cls-33" d="M1828.31,1104.24s-5.41-14.73-7-28.12,2.67-16-2.3-31.37c-3-9.34-8.38-8-9.74-9.34s-2.3-15.41-2-23.12-.27-17.71-1.62-22c-2-1.63-3.38-3-6.36-13-3.38-10-5-15-6.62-18s-6.37-5.68-6.37-8.66c0-6,5.41-9.06,5.41-10.7-.26-3.38-4.32-.67-5.41-1.62-1.34-1.62,3.39-11.36,1.63-12.71-.67-.67-5.41,5-6.63,3.39s-3-17.73-5.41-28.4c-2.29-10.42-4.73-18-5-21.1s-18.67-55.44-23.12-68.15a319.71,319.71,0,0,1-9.06-32.73c-1.36-6.35-2.3-19.34-3-18s-.26,8-1.35,7.71-4.33-23.39-5.4-27-6.64-16-8-25-4.32-32.73-6.35-48.82-3-22.71-3-26.74a167,167,0,0,0-1.62-29.48c-2.68-17-8-37.73-12.71-49.76-9.06-22.72-33.14-80.87-37.44-95.34,0-3.65,4.73-1.62,4.73-1.62s11.76,29.48,20.41,52.19c8.39,22.73,16.37,42.74,18.4,44.77,1.62,2,14.34,24.34,20,60.85s7.71,70.18,11.09,92.63c1.63,10.69,3,22,6.36,33.4,3.65,12.31,9.32,25,16.77,44.49,6.35,16.37,11.09,30,13.65,41.79,3,15,3,26.37,4.74,33.81,1.63,6.36,4,19.06,9.74,37.44s14.06,42.06,19.74,56.79c11.09,29.48,16,54.09,17.72,67.22,1.48,13.52,6.49,60.31,5.13,74.37h0Z"/><path class="cls-56" d="M1555.15,205.65l-.68,1.62s2,.68,1.63,3.39a82.25,82.25,0,0,1-.68,11.09c-.67,4.73-2,8.38-2.29,11.36,0,6.35.94,13.65-8,31.77-2.67,5-4.32,9.33-5.67,12.31-3.38,7.3-4.06,8.38-7,11.76,4.74-2.67,21.78-13.37,30.43-11.76-6,3.37-15,10-20.69,18.66,1.35.27,7,1.36,16,0,15-2.3,31.78-7.71,46.52-6.63,16.1.95,9.74-19.33,9.74-19.33l-18.58-40.84-35.16-24.74-5.54,1.35Z"/><path class="cls-57" d="M1646.83,511.54s-15.69-15.69-22-69.53c-6.36-54.09-5-133.71-5-133.71l-12.71-31.11s-2.68-20.69-9.34-28.39-19.73-20.69-25.69-27-12.71-15-16.77-16.37c2-3.38,11.09-22.45,45.84-22.71s45.46,19.06,49.09,26.1,20,37.44,26.09,95.38c5.68,57.87,6,62.2,5,82.22-.67,11.09-4.33,36.78-10.69,64.22-5.82,23.27-12.17,49.24-23.8,61Z"/><path class="cls-54" d="M1597.64,557.65a26.59,26.59,0,0,0,15-3.38c5-.27,23.12,2,37-15.68,1,4,3.39,15-3,24.74,3.38-3.38,8.39-4.73,9.06-5.68.27,5,5,20.42-15,57.88,5.4-5.95,11.76-5.68,17.44-6.36.27,7,4,30.69-6,43.41-6.62,8.66-17.44,5.95-17.44,5.95a33.67,33.67,0,0,0,0-5.68c-.27-3.65-1.63-7.3-.67-9.73a48.55,48.55,0,0,1-14.07-9.75c-11.77-11.09-27-30-28.12-44.08-1.36-15.69,12.71-19.07,12.71-19.07a15,15,0,0,1-3-3.65c-.68-2.29-1.35-6-4-8.92Z"/><path class="cls-58" d="M1493.34,387.54s-.68-1-4.32,3.37c.67-4.32,1.35-8.38,1.62-12.31a42.31,42.31,0,0,1,6.63-10c-2,4-3.39,7.7-3.39,7.7s5-9.33,12.31-15c5-4.05,11.36-5.94,14.06-9.73,3-4.06,2.3-4.74,3-5.41,0,0,6.63-4.33,16.77-17,1.35-1.62,3.38-3.38,4.74-5,2.29-.94,7.7-3.38,14.06-6.63,6.63-3.65,14.06-8.65,18.66-10.7,9.06-4,18.67-3.64,23.13-10,3.37-.94,7-11.09,6.35-19.73,5,2,30.69,18,39.49,52.87,6.36,24.74-5,62.88-9.74,81.28s-5.4,32-12,40.42c-8.38,11.1-35.42,26.74-42.05,34.49-5.68,6.36-22.72,22.45-22,34.07.68,8.66,11.36,13.37,13.67,15s2.29,3.66,6.62,2.68,6-3,7.71-3c2,.27,2,.68,3,.68a9.83,9.83,0,0,0,2-.28s-.67,12.31-29.48,16.05c-2,.27-4,.94-6.63,1.35,3.39-1.62,5.41-1.62,9.07-6.62-4.06-.68-15.69-1.36-18.67-2.3a36.28,36.28,0,0,1,6.62-8c2.3-2-.26-2.67-2.29-1.62a109.49,109.49,0,0,0-10,7.7c-3.38,3-6.35,7-11.76,10.7-1.63-5.41-1.36-15.69,5-23.13-1.64.27-4.75,5-7.72,4.06a43.26,43.26,0,0,1,1-14.74c1.62-6.09,10.41-16.77,10.41-16.77l42.46-75.87,9.06-57.47-97.23,18.89h0Z"/><path class="cls-59" d="M1491.05,390.78s-2.3,1.62,2.3,4.73c-.68.95-2.3,4.33-4.33,6.63-2.3,2.67-4.74,4.33-5.68,6.63-2,4.73-3.65,8-3.65,10s-.68,15-6.35,23.39a98.45,98.45,0,0,0-6,11.36c-3.38,5.94-6.36,10.69-7,13.37-1.35,4.73-2.29,17.71-2.29,17.71s3-3.65,4-5c-1.63,3.38-3.39,7-5.95,9.73,1.62-1.35,6.35-4.73,14.33-11.76,11.09-9.33,28.4-25,49.5-37.44-6.36,2.3-11.76,2.3-16.09,3,3.38-3.38,33.81-39.08,49.76-42.46a6.4,6.4,0,0,0,1.36-4.34L1541.35,395l-27.72,5.94-4.05-21.39-18.53,11.22Z"/><path class="cls-60" d="M1535.14,512.49s-3.66,3.64-7,12.71a42.76,42.76,0,0,1-6.63-9.07c-5-8.38-12.7-19.07-30.69-13-.27-5.68-.68-8.65,0-12.71,3-.67,12-8,21.09-18.66,6.37-7.3,12.31-15.69,16.37-26.36,2.67-2,7.3-5.42,13.37-9.34,8.66-5.94,19.07-14.06,20.69-23.12-4.06,1.62-12.71,5.68-25.7,5,5-2.3,12.71-4.73,11.77-14.75,2-1.35,3.65-2.3,3.65-2.3a13.55,13.55,0,0,0-4.73-.67c-.28-.95-.68-2.29-3-1.63s-2.67.68-3,1.63c-.94.27-4,0-6.35,1.63s-8.66,7-11.09,8c.94-1.62,2.29-4.05,2.29-4.05a47.24,47.24,0,0,0-11.36,2.67c-8.65,3-18.66,8.39-28.8,13.66,1-1.62,1.36-2.67,2-3s2.3-.66,2.3-.94-.66-2.67-.26-3.65a125,125,0,0,1,10.69-18.39c4.74-6.36,5.68-15.42,5.68-15.42l20.69-10.41L1585.29,357l37.73,2.3-4.73,26.1L1596,430.94l-19.06,41.51-21.78,25.43-20,14.61h0Z"/><path class="cls-61" d="M1629.39,399.53s-22.72,28.13-29.08,32.46c4.06-8.66,29.08-60.18,38.13-74.51-2-1.63-4.73-1.63,1.63-26.75-5.4,12.71-7.3,19.34-11.76,22.72s-5,2.3-8,2.3a5.68,5.68,0,0,0,.67-3.38s-19.07-2.3-32.1-2.3-38.8,7-53.14,12.71c-11.36,4.73-17.72,4.73-21.77,7.7-4.06,3.38-6.36,7-8.39,8-1.62,1-9.32,3.38-11.09,6s-4.32,5.67-4.32,6.35-.68,1.63,1.35.95c.67-.27,5.68-3,11.36-6.36,7.7-4.32,17-9.32,23.8-12.3,19.34-7.71,25.42-6.36,34.07-8,9.06-1.62,22-5.41,30.69-5.41,8.66-.27,25,0,28.81.68-1.62,1.35-3,3-2.3,8.65,0,1.63-1.35,3.38-2.67,7.3-4,11.09-11.76,29.48-16,38.82-5.94,12.7-12.7,23.39-16,30s-10.7,24.07-18,33.4-11.09,15-13.37,17.05-18.67,14.05-17.45,18.39c3-1,21.78-8,35.43-23.39s16.36-24.75,27-33.14,19.07-22.44,24.07-34.07c4.19-10.82,3.25-14.2,8.51-23.8h0Z"/><path class="cls-62" d="M1139.73,609.45s-3,12.3-9.74,18.39-18.39,11.09-19.74,21.1c-1.62,10,11.77,15,11.77,15s-7.31,12-7.31,21.09c0,9.33-.27,11.09.67,20a8.86,8.86,0,0,0-2.67,2.68s.67,8.65,7.3,14,12.3,8.66,15.68,7.3a32.83,32.83,0,0,1,1.36,3.39s5-12.71,8.38-23.8c3.38-11.36,6.36-9.74,7.71-25s16-41.52,16-41.52l10-22.41L1162.85,607l-23.12,2.44Z"/><path class="cls-63" d="M1170.15,631.48a99.56,99.56,0,0,0-9.31,11.09c-4.33,6-7.7,11.36-14.06,13.67s-10.41,2.29-10,8.65,6.36,9.06,9.73,12.3c3.66,3.38,6.64,9.06,5,15.43,2-1,5.68-2,9.06-9.34s27-51.79,27-51.79h-17.43Z"/><path class="cls-64" d="M1263.35,528.84s2-5.4,0-9.32-14.33-5.41-20.42-10c-6.36-4.73-14.07-8-20.42-5.95.94-2.3,4.73-7.31,1.62-8.39s-14.06,4.06-17,6.36-9.74,5-11.09,6.63-3.65,4.74-5,3.38c-1.35-.94-2-3.38-4.32-2s-13.37,10.41-15.41,15.69-6.63,17-20.42,30.42-19.75,22-15.69,27,5.95,1.35,6.63,5.68a36.48,36.48,0,0,1-.68,12.71c-1.62,7-4.32,13.65-.68,15,9.34,3,18.4-2.67,20.43-1,4.05,3.65-2.3,16.77,7.3,19.34s19.34-2.3,19.34-2.3l35.43-19.07,34.08-18,17.43-34.49-9.35-28.8-1.78-3Z"/><path class="cls-65" d="M1229.92,611.2s-6-9.05,1.36-17,17.71-11.36,21.77-16.36a6.24,6.24,0,0,0-3-2,26.92,26.92,0,0,1,11.77-11.1,11.3,11.3,0,0,0-7.71-3.65c-6.63,0-10.69,4.06-16.77,4.06s-6.63-3-6.63-3,10-.94,9.06-5.41c-.94-4.73-2.67-4.73-2.67-4.73s19.33-8,22.71-12.3,3-9.34,3.66-11.36c2.29,0,15.68-7,21.09-4.06s1.62,11.09,1.62,11.09S1302.57,523,1310.92,511c7.3.68,10.69-5,16-5,6.64,0,17,9.06,19.07,28.39,1.36,11.09,3.38,17.45,1.36,37.06-1,11.09-.68,34.76,2.67,46.51,2.29,9.34,7.7,8.39,7.7,8.39a15.11,15.11,0,0,1-4.73,7.3c-3.66,3.38-4.06,12.31-3.66,15.69a65.82,65.82,0,0,0,2,7.3s-4.33,5-5.41,8.39-5.41,5.68-8.66,5.68-1.62-.28-5.95,0-5.67.94-8.38,0-4.74-2-3.65-10.7-33.4-28.8-33.4-28.8l-56.16-20h0Z"/><path class="cls-66" d="M1165.42,696.66S1177.72,713,1228.3,713c24.07,0,32.46-2.3,37.44-3.65,5.41-1.36,25.69-9.33,46.11-33.41,18.39-21.77,14.34-30.69,14.34-30.69l-10.7-1.62-34.76,4.73-102.87,43.82-12.48,4.45Z"/><path class="cls-67" d="M1203.14,700.72s-43.81,9.74-43.81-18c0-27,27.05-55.45,33.81-60.45,7-5,23.8-10.7,23.8-10.7h40.44l7.7,20.43-3.38,44.08-58.56,24.61Z"/><path class="cls-68" d="M1243.58,619.86s-8.38-7.71-27.45,2.67-34.49,32.09-35.43,51.8c-1,17.44,14.33,30.43,38.13,31.1,17.72.67,28.4-1.35,33.82-2.67-1.36-1.62-8.39-10.41-8.39-10.41l-.67-72.48h0Z"/><path class="cls-69" d="M1235.33,624.17s-2-1.62-8,1.63c-5,2.67-12.3,9.74-18,14.74-3.65,3-5.95,4.32-8,6.62-8.39,10-15.42,26.38-11.36,34.49s17.45,17.45,51.53,11.09l-6.24-68.56h.09Z"/><path class="cls-67" d="M1224.24,641s-5.41,8.39-5.41,21.78c0,13.65,7.71,35.42,36.12,37,21.76,1.36,36.37-31.36,52.19-44.08,12-9.73,19.33-10,19.33-10s-12.3-13.37-45.16-30.69c-32.45-17.44-68.83-19.74-88.58,7,9.34-.67,39.49-8.38,39.49-8.38l14.75,4.73L1224.24,641h0Z"/><path class="cls-70" d="M1266.7,658.66c-.94-2-1.62-4.73,2.3-5.4s5.68-.28,7,2.67,2.67,5.42.67,6.64-7.31,0-10-3.93Zm-6.35-19.07s-1.36.95-.68-.94c.27-2.29,2-6.36,6.36-5.4s3.38,5.68,2.67,7-4.32,3.65-7,2.68a2.26,2.26,0,0,1-1.63-2.75,2.35,2.35,0,0,1,.27-.63Z"/><path class="cls-71" d="M894.3,648.24s10.7,8,23.13,7.71,28.12-13,35.42-21.1c4.32-4.73,8-9.73,12-13.65,3.39-3.38,5.68-5,7.31-7.31,2.3-2.67,4.73-7.7,5.95-9.33-3,2.3-7.3,6.37-11.77,9.07s-13.65,7.7-17.44,9-41.52,21.4-41.52,21.4l-13.11,4.16Z"/><path class="cls-72" d="M910.65,548.32s6-4.05,17.45-6.63C939.19,539,961.5,537,961.5,537l18.39,8,7.3,27.72-13.37,28.81-17,10.7-19.34-31.1L910.7,548.37h0Z"/><path class="cls-73" d="M886.58,573.07l-6.36,4.75s1.63-3,3-12,8.39-31.1,18.67-43.81,10-12,10-12a6.79,6.79,0,0,0-5.41,1.34c1.36-3,10-13.69,18.67-19s12-7,21.09-2.67,11.36,6.62,18,6.35,12.3-7.3,12.3-7.3,1.35,4.33-3.65,14.34-24.74,30.42-24.74,30.42L907,561.51l-20.42,11.58h0Z"/><path class="cls-74" d="M917,544.94s29.75,4.06,38.81-4.32c.27.94,1.36.94,1.36,1.62a2.46,2.46,0,0,1-.68,1.35,21.16,21.16,0,0,1,3-.27,17.4,17.4,0,0,0,3.65.68,21.31,21.31,0,0,0,3-.28,5.07,5.07,0,0,1-2,3.39c1.36,0,2.68.27,2.68,1.35s.27,4.33-1.36,5a6.13,6.13,0,0,1-4-.28,16.73,16.73,0,0,0,2,7.31c2.67,5,8.38,10.7,16,9.06,0,0,4,9.73-13,31.36-2.29,3-4.74,7-7.7,10.42a39.34,39.34,0,0,0-2.68,8s28.81-11.08,37.06-36.37,10-50.44,8.39-73.83c-.28-6.63-1.36-11.36-3-14.75-4.06-8.38-15.42-7-20-2.3-6.64,6.64-17.72,23.13-33.14,34.48C929.67,537.9,929,539.92,917,544.94h0Z"/><path class="cls-66" d="M881.3,581.46s-5.67,3.37-8.65,16c-3,13,2.67,28.8,6,33.8s10.69,18.67,26.1,19.35a28.6,28.6,0,0,0,11.09-2.3,70.54,70.54,0,0,0,15-9.33c6.63-5,12-9.33,11.35-9.74-1.62-.68-40.83-33.13-40.83-33.13l-14.75-16.46-5.27,1.78Z"/><path class="cls-75" d="M918.37,635.27s8-.67,12.71-3.64-27.72-35.16-27.72-35.16l2.3,34.76Z"/><path class="cls-76" d="M883.87,579s-4,7.71-4,9.75c-.68,6.62,1.35,27.44,3,34.07,1.63,7,10.42,17.71,21.78,17.71,7,0,16.77-4.32,16.77-5.4,0-1.36-10-2.68-12.71-7.71-1.63-2.68-2.3-9.33-2.68-16-.26-4.32-.26-9.06,1.36-10.7,3.65-4,4.32-15.69,4.32-15.69l13-24.11H907.54l-20.42,12.71Z"/><path class="cls-67" d="M878.87,586.46s13.37-17.72,25.42-21.78,17.45-1.62,17.45-1.62l-7,18-10,11.09.67,5.67s-1.63,15,8.38,25.43,17.45,10,21.78,10,16.77-3.66,23.12-18.67c5.68-14.06,10.42-32.09-.94-50.17-11.1-18-30.7-18.68-34.49-18.68s-33.54,1.49-44.35,40.7h0Z"/><path class="cls-77" d="M1222.21,646.63c-5-2.3-.27-16.36,4.74-20.69s11.35-9.33,22.45-10c4-.27,8,2.3,7.3,5-.94,5-8,12-14.33,17C1233.58,644.87,1227.89,649.2,1222.21,646.63Z"/><path class="cls-78" d="M951.75,570c3.66-.27,8.39,2.67,9.34,6.63.94,4.32-2.3,13-9.34,13-5.67,0-8.65-7-8.65-9.06a10.34,10.34,0,0,1,1.35-4.73C944.72,575.37,945.4,570.63,951.75,570Z"/><path class="cls-79" d="M899,573.07s-9.34,4.32-13.66,13.37a35.46,35.46,0,0,0-2.67,21.39c.67,3.38,4,11.76,6.35,14.74s5.41,5,7.71,4.73,7-6.35,7-10,.27-19.07,4.73-27.46c3.92-8.38-9.47-16.76-9.47-16.76h0Z"/><path class="cls-80" d="M900.37,572.39c-1.62.94-4.32,2.3-3.65,4.06s6.35,2.67,8.39,6.63c2.3,4,2.3,8.38,1.62,10.41a16.53,16.53,0,0,0,4.73-3.39c3-3.38,6.63-8,9.74-8,2,0,4,1,5.95,1,3,0,6-1,6.36-4.06.67-4-5.68-7.71-9.34-7,.68-2.68,1.63-6.62-1.35-9.33s-12.3,2-14.34,3.38-8.11,6.36-8.11,6.36h0Z"/><path class="cls-81" d="M1115.25,856.5l20-5.91,5.68,4.06s4,8.66,10.41,9.73c-2,4.33-7.31,8-7,11.09s3,5.42,3,5.42-18,29.74,17.44,59.72c-8.39,3.38-19.07,8-24.74,10.7,4,.94,12.7,2.67,16.35,6s3.66,4.33,7,6.36,5.4,4.73,4.73,5.94c-2.3-1.35-10-5.4-11.36-1.62s-33.4,2.3-33.4,2.3l-54.09,10.41s2-5.41-3.65-10.41c-6.63-5.94-14.74.27-23.4-6.35-11.35-8.66-11.76-18.67-15.41-22.45,3.65-2.3,11.09-5.68,28.8-8-.67-1.36-3-5.41-1.62-9.06,1.62-4.73,8.38-7.71,6.36-13.37,3-.68,4.32-.68,11.76-10,7-9.34,11.36-11.36,16.77-12s8.66,0,18.67-9.33c7-6.62,4.73-12.3,4.73-12.3s4.59-1.49,3-10.82h0Z"/><path class="cls-82" d="M1056.16,859.51c.27-1.36,1.35-2,8.65-1.36s53.55-4.32,66.13-5c12.71-.94,57.47-.27,79.25,4.33s43.81,10,54.49,12.71c10.7,3,14.07,4,13.66,5.4s-2.68,2.67-4.06,2.3-36.78-11.09-47.73-13.37-48.82-8.39-69.53-8c-19.33.27-27-.27-43.4,1.62s-43.41,4.73-51.53,3.65-6.36-.94-5.95-2.3h0Z"/><path class="cls-83" d="M1165,965.5s27.72,15,37.73,33.4c7.3,13.66-4.32,20.42-4.32,20.42s15.69,0,13.66,8.66c-.95,5.4-27,20-44.49,27.71-17.72,7.71-17,7.31-25.69,8.66-8.39,1.35-31.38-2.68-36.12,4.06s-2.67,13.66-1.35,14.74,12.31,2.3,12.31,2.3-2.3,6.35-25,7-28.41,2.29-29.76,4.74c-1.36,2.29,4.32.94,14.74,2.67s25,2.67,25,2.67-4.74,4.06-17,7.31c-14.06,3.64-36.11,7-42.73,11.08,3.38,2.3,8.39,5.68,10.69,6-5.67,1.36-13.66,4.33-15,5.41,2,1.36,4.74,3,4.74,3s-11.37,13.66-18,17-44.76,21.09-57.88,17.72c-32.73-8.66-36.78-44.5-44.76-47.2-12-4-17.71,4.05-28.4-1.63,4.73-3.38,7.31-5.4,12.31-7.7-5.41-2.67-33.4-20.42-33.4-20.42a207.79,207.79,0,0,0-9.74-18.66c-5.41-9.33-13.37-21.78-19.34-32.73-13-24.07-13.66-35.16-25.42-48.82,2-2.67,9-2.3,9-2.3l98.59,32.46,174.82,5.06,45.46-64.9,19.34,2.3Z"/><path class="cls-84" d="M906.05,1064.48a15.38,15.38,0,0,0,3.65,3c3.38,2.3,8.39,5,11.76,9.06,1.36-2,4.74-5.68,10.7,0s13.37,1.63,18,3c4.73,1.64,5,2.3,5,2.3a33.94,33.94,0,0,1,8.66-4.73c3.65-1.35,8-2.3,12.71-3.65,4.32-.94,9.06-2.3,12.31-2.3,3,2,13.66,13.38,56.52-3.37,40.44-15.69,49.76-17.45,56.53-15,.68-1.63,1.35-4.74,11.77-4.33,0-4.32-8.66-19.07-8.66-19.07L1057.25,1013h-26.11l-78.3,14.33-43.38,24.76-3.38,12.48Z"/><path class="cls-85" d="M880,1037s.94,7.3,11.77,15,14,12.3,14,12.3,2-2.68,3.66-5.4c1.62-3,3-6.36,5.68-7.3,5.41-2.3,17.71,2,20.42,1.34,2.3-.67,1.62-5.4,4.06-5.4,5.67-.28,9.32,3.65,11.35,3.65s7-.27,7.7-1.35,1-12.31,8.66-17.72c8.39-6,18.67-3.38,21.39-2,0,2,.27,7,5.68,7.3s6-.68,10.7.94,10.41-.27,13,7.7c2.3-.67,7.71-1.34,6.36-9,2.67-2,5-3.38,10.69-11.36,1.36-2,3.65-4.32,5.41-7.3,4.74,0,10.42-1,18,5.68-2.3,1.62-3.65,2.67-4.32,4.32a48.16,48.16,0,0,1,5.4,6.36c2,2.67,3.39,6,6,6.63,5.68,1.62,15-.68,25.42,0a51.24,51.24,0,0,1,22,6.62c1.35-.67,1.35-.94,4.73-.27s5.94,1,2.3-3.37c2,.94,4.32,3,6.35.94s3.65-5,9.33-5.68,7.71.27,10-5.68c3-7.3-7.3-7.3-7.3-7.3s4.73-4.33,10-10c6.35-5.94,13.66-13.65,15.41-23.12,3-17.45-14.06-19.74-14.06-19.74l-82.62,25.43-101-5L880,1037h0Z"/><path class="cls-86" d="M805.71,798.36s-2.67,3.38-4.32,11.35-.95,7-2.3,12.72-18,62.2-11.76,81.27,17,26.1,23.8,41.51c1.36,3.38,2.68,5.41,3.38,8.39,2.3,10,.28,17.71,3,27.72.94,3.38,3.39,7.3,7,11.36,8,8.38,21.1,16.36,26.74,22,8,8.39,19.34,25.44,33.81,27,7.71,1,18.66-2.3,27.72-7.7,8-5,13-12,21.39-16,6-3,12.31-4,18-5.41,11.77-2.3,22.46-2.67,28.82-1.35,9.73,2,32.72,9.06,45.46,9.06a123.87,123.87,0,0,0,29.48-4c19.33-5.68,42.72-15.42,58.14-19.75,9.06-2.67,16.36-3.38,23.81-5,12.71-3,23.39-7,29.48-14.74-4.06-4.74-9.06-12-36.12-11.77-30.69.68-66.12,17.71-83.57,20.42s-25,5-44.49-2c-19.09-7.1-19.73-11.8-19.73-11.8s-20-14-28.43-49.77,0-61.79,21.78-86.55c5.67-6.35,4.32-12,4.32-12s14.33-19.34,10.41-37.44c-4.32-18-32-14.34-32-14.34l-153.75,26.9h0Z"/><path class="cls-87" d="M828.84,858.54a13.93,13.93,0,0,0-1.63,7.3c.27,3.64,1.36,8.38,12.31,19.07,9.33,9.32,7.3,19.73,7.3,19.73s4.69,1,17.44-5c10-4.73,13.37,3.66,13.37,3.66a28.2,28.2,0,0,1,9.34-3,20.33,20.33,0,0,0,8.37-2.67s11.77,12,22,17.71c9.33,5,14.74,8.39,19.34,5,4.33-3,4.33-9.07,4-11.77a34.87,34.87,0,0,0-4-7c-3-4.33-7.71-9.33-8-13.37-.68-9.33,7-20.43,5.4-23.13s-7.7-3.38-22.71,2c-15.55,5.13-82.63-8.53-82.63-8.53h0Z"/><path class="cls-88" d="M864.26,919s-7.7-7.3-5-42.73a44.17,44.17,0,0,1,9.73.94S873.19,904.65,864.26,919Z"/><path class="cls-67" d="M809.37,771.31a20.9,20.9,0,0,0,3-2.67c-2.67,5-15,25-5,56.52s35.16,54.76,66.13,55.85,47.25-14.07,65.86-36.78c7.3-9.06,15.69-20.42,23.12-28.12,11.09-12.05,19.75-15.43,19.75-27.05,0-23.8-24.35-34.49-60.18-45.17s-68.16-9.36-84.93-2c-16.36,8-23.39,16.36-27.72,29.48h0Z"/><path class="cls-89" d="M924.44,929.66l2.68-1.35s.66-10.7,5-10.41c4.32.67,6.35,6.36,5.94,8.39s-1.34,5.41-5.68,5c-5.67.13-8-1.63-8-1.63Z"/><path class="cls-90" d="M912.41,884.23s2.67-1,5.94,2.3c2.68,0,14.34-1.36,18,.94s4.73,4.33,4.73,4.33-13.65,3-21.1,0C912.41,889.23,912.41,884.23,912.41,884.23Z"/><path class="cls-91" d="M972.59,886.25c0-.68-7.3-5.68-15-7.31-1.36-.27-1.64.68-2.68.68-.68-.27-.94-2.3-.94-2.3l-4.39,2.31s-.68.94,1.62,2.67c2,1.62,5.41,3,6.36,5.68s.94,3.65,1.35,4.06,5,0,7.3-1.36,6.64-3.56,6.36-4.46h0Z"/><path class="cls-92" d="M904.29,913.71s1.35-9.33,10.42-9.74c9.32-.67,11.09,8.38,11.09,8.38l-5.41,5.41c0-.13-4.06-5.81-16-4Z"/><path class="cls-93" d="M963.12,873.54s-5,5.41-16.09,7c-.95-1.35-3-4.05,0-8.38s6.36-5.67,9.73-4.33A7.91,7.91,0,0,1,963.12,873.54Z"/><path class="cls-91" d="M983.53,880.17c.28-1.35-.67-1.62,0-2.3s4.34-2,5-1.35c.27.27,0,1.35,0,2.67a6.48,6.48,0,0,1-.67,3.65,5.5,5.5,0,0,1-5,1.63c-1.35-.4-1.62-2.3-1.62-2.68C981.91,881.53,983.53,880.85,983.53,880.17Zm23.09-14.6c0-.68,2.3-2,3.66-2,2,0,2,1.62,2.3,2,.66.27.66-.28,1.34.95s1.63,3.37,1,4.73-3.38,2.29-4,2C1009.88,872.59,1006.9,866.52,1006.62,865.57Z"/><path class="cls-86" d="M960.14,883.28s3,.67,7,4.06c-1.36.94-3.39,2-3.39,2a10.15,10.15,0,0,0-3.65-6.09Z"/><path class="cls-66" d="M953.52,853.53c-.68-.67,2-2.29,3.65-2s2.3,1.36,4.05,1.63,2-.68,2.68-1.36,3-.27,3.37,0a7.13,7.13,0,0,1,.68,1A3.78,3.78,0,0,1,969.3,850a4.28,4.28,0,0,1,3.65-.68c.27.95,1.62,4.33,1.36,5s-4.33,1.63-5,.94c.67,1.63,3.65,5,4.05,5.68s-3,2.3-4.32,2c-1.89-.13-13.52-6.9-15.55-9.47Zm17.71-22.45a3.16,3.16,0,0,0-1.35-1.62c-1-.27-4.06,0-4.06,1.62s2.68,10.7,5.68,15.42c3.39,4.74,5.68,8.65,8,9.74a3.13,3.13,0,0,0,4-1.36c.27-.68,1-5.68.68-17.44s-.68-23.13-1.35-23.8-3.38-.67-4.33.67-7,14.75-7.31,16.77h0Z"/><path class="cls-93" d="M959.2,900.32s-4.74-3-9.34-1c-4.32,2-4.05,10-4.05,10a6.4,6.4,0,0,0,6-.67c3-2,6.76-5.41,7.44-8.38Z"/><path class="cls-91" d="M968.12,911c-.27-2.68-2.67-2.68-2.67-4.06a3,3,0,0,1,3-2.3c1.36,0,2.68,1.62,4.34,2.67s4,2.68,4.32,4.74-2.67,7.7-6,7.7-2.3-6.09-3-8.79Zm26.1-3.66s-5.41,1.62-5,0,1.63-2,3.39-2A5.27,5.27,0,0,1,996,903.7a2.91,2.91,0,0,1,2,.67s3.66-1.62,4.73-.67.28.94.95,2a9.49,9.49,0,0,1,1.63,4.06c0,1.07-4,3.37-7.31,3C994.22,912,994.89,908,994.22,907.35Zm31.5-6.09s1.63,1,.28,2c-.94.94-5.68,2.67-9.74,3-4.06,0-7.7.67-7.7-.67s3.37-4.06,5.4-4.74a4.29,4.29,0,0,1,3.39-1.62c1.62,0,8-.68,9.73-1s3,.67,2,2c-.4.94-3.38.94-3.38.94Zm9.34-41.75s-2,4.32-4.33,4.32c-2.3-.27-2.3-.94-2.3-1.62,0-1,2.3-3.38,2-4.06-.67,0-2.3,0-2-1.62,0-1.35,2.3-3,4.33-2.67a8.92,8.92,0,0,1,5.41-2c2.3,0,4.32.67,4.32,2s-2.67,4.32-3.65,5c-1.08,1.08-2.44,1.78-3.78.67Zm-30.84,79.91s-2.67.28-2.67,1.63c0,.67.67.67,1.62.27a7.31,7.31,0,0,0,1.62-.27c.27.27.27,1.62,2.3,1.62a13.09,13.09,0,0,0,4.74-1.62c1.62-.67,3-1.36,3-2.68-.67-2.3-2-3.38-4-3.38a5.43,5.43,0,0,0-3,.67s-.68-1.35-3,0-2,1.36-1.35,2c1.21,1.07.81,1.78.81,1.78Zm-15.28,14.07c0-.68,3.38-2,4.33-1.62s3.64,5.4,3.64,6-3.37,2.29-4.73,2.29-3.65-2.29-3.65-2.67,1.63-.67,1.63-.94c.4-.67-1.22-2.3-1.22-3Zm-10.69-19.74c.67-.27.67-1,1.62-1.63a2.35,2.35,0,0,1,2-.26,3.31,3.31,0,0,1,2.3-1.63c1.62-.27,3,0,2.68.67,0,2,1.35,3.38,1.35,5s-.94,3.66-4.32,5c-3.38,1-8,1-8.66.68s-1.35-3-.68-4.33a11.1,11.1,0,0,1,3.66-3.51h0Z"/><path class="cls-86" d="M982.55,934.66s-2.3,1.36-2.3,2a6,6,0,0,0-.26,2c0,.4,3-.27,3.37-.68C983.5,937.78,982.55,935.37,982.55,934.66Z"/><path class="cls-66" d="M962.44,928.31c1.35.28,3.65,0,5.4.68,1.36.67,2.3,2,.95,3.65s-2.67,4.06-5.68,3.65c-3.38-.27-6.62-2-6.62-3.38a6.45,6.45,0,0,1,1.62-4.73c1.36-1.08,2-.41,4.32.13h0Z"/><path class="cls-93" d="M960.82,929.66s-4.32,3.38-5.41,5c-1.36,1.63-8,10-10,11.76a26.41,26.41,0,0,1,2.29-3.38,13.82,13.82,0,0,0-5.68,7.3c-1.62,5,9.07,7.71,16.09,9.75s9.74,2.67,9.74,2.67a76.3,76.3,0,0,1-6.63-12.3c-2.67-6.36-4.05-7-2.3-10,1.36-3,3.39-5,3.39-7.3C961.5,931,960.82,929.66,960.82,929.66Z"/><path class="cls-67" d="M806.66,940.35a8.23,8.23,0,0,0,3,0c2-.27,23.13-8,45.17-6.63a242.37,242.37,0,0,1,48.82,8c27.72,7.3,62.2,21.77,84.51,30,6,2.29,11.77,6.35,16,8,17,6.63,17.71,6.63,27.72,8.38,11.77,1.63,23.8-2.3,36.38-5,15.41-3.38,41.78-5,64.91-8.39a132.15,132.15,0,0,0,22-5s-18.39,18.39-62.48,25a195.54,195.54,0,0,1-53.81.67c-14.07-1.35-23.4-3.38-30.43-5.41-8-2.3-24.34-8.38-44.49-13.37-14.07-3.65-29.76-6.35-47.74-9.73-44.35-8.12-92.49-17.45-109.64-26.5Z"/><line class="cls-94" x1="783.67" y1="768.88" x2="671.02" y2="663.67"/><path class="cls-5" d="M756.89,856.78c-10.7,9.06-22,17.71-33.13,26.09l-33.4,25.67c-11.35,8.38-22.44,17-33.81,25.42S633.84,950.32,621.78,958c10.7-9.06,22.05-17.45,33.41-25.69s23.13-16.33,34.08-24.69L722.68,882c11.49-8.38,22.58-17,34.21-25.15ZM697.8,951.44s12-10,27-24.07c18.66-17.43,41.52-39.75,48.82-43.8l-75.87,67.88Z"/><path class="cls-5" d="M697.8,951.43c6-5.94,12.31-11.76,18.66-17.44l9.74-8.38c3-2.68,6.36-5.68,9.33-8.66,6-5.94,11.77-12.31,17.71-18.39a112.27,112.27,0,0,1,9.34-8.65,25.05,25.05,0,0,1,5.4-3.66c1.63-.94,3.39-2.67,5.68-3-1.35,2-3,3-4.33,4.74-1.62,1.35-3,3-4.32,4.32-3,3-6.36,5.68-9.33,8.39-6.36,5.41-13,10.7-19.34,16.36s-12.3,11.76-18.66,17.44c-6.9,5.82-13.25,11.5-19.88,16.94Zm80.87-54.09s-44.08,43.15-53.15,50.17Z"/><path class="cls-5" d="M778.67,897.34a144.42,144.42,0,0,1-12.73,13L752.57,923c-4.33,4.33-8.39,8.66-13,13-4.74,4.06-9.06,8-14.07,11.77l13-12.71c4.33-4.33,9.06-8,13.66-12.31l13-12.71C769.6,905.6,773.93,901.26,778.67,897.34Zm2,23.39a281.46,281.46,0,0,1-14.33,33.14C755,976.59,738,1005,730.52,1019.46l50.17-98.73Z"/><path class="cls-5" d="M780.69,920.74c0,5-1.36,9.33-3,13.66a133.82,133.82,0,0,1-5.4,12.71c-2,4.06-4.33,8.39-6.63,12.31s-5,8-7,12L745,995.52c-4.74,8-9.33,16.09-14.34,23.8,3.38-8.65,8-16.76,12.31-24.74,4.74-8,9.06-16.05,13.38-24.35a136.07,136.07,0,0,0,5.67-12.7c2-4.33,4-8.39,5.68-12.31,2-4.32,3.65-8.39,5.68-12.3,2.29-4.2,4.19-8.26,7.3-12.18Z"/><path class="cls-95" d="M828.84,1031.62s-13.38,17.72-12,40.16C820.45,1060,825.05,1042,828.84,1031.62Zm12.71,17.76s-4.74,48.14-8.66,71.81C838.44,1093.83,839.52,1096.13,841.55,1049.38ZM930.12,1124s-20,58.83-20.42,75.18c4.33-16.81,12.71-51.16,20.42-75.22Z"/><path class="cls-96" d="M976.91,1028s32.46,53.55,56.8,99.25C1027.12,1104.24,1012,1062.06,976.91,1028Z"/><path class="cls-97" d="M1064.14,1106.82a983,983,0,0,1,48.13,97.22C1109.57,1181.05,1102.26,1141.71,1064.14,1106.82Z"/><path class="cls-98" d="M1320.53,1185.77c5.4-3.38,16.09-21.78,25.42-26.37s16.36-5.68,24.75-15c8.38-9.74,10.69-15.69,29.07-23.39,25.7-11.1,8-25.43,8-25.43a83.27,83.27,0,0,1,9.06-7.71c6.63-5,14.33-11.08,13.66-21.77-.94-18-4.32-44.08-19.07-59.23,14.34-3,41.78-5,58.84-9.32,19.73-5,28.8-12,28.8-12s-11.36-19.33,7-38.8,33.4-31.1,44.49-52.88c-12.71-1.62-32.09-8.38-81.54,10.41a62.06,62.06,0,0,1,7.71,4.33s-30.43,8.38-41.52,17.72c-19.34,16.36-21.77,29.74-42.73,39.75s-42.06,7.31-59.49,15.42-20,15-26.38,18c1.35,1.62-.27,4.32,2.3,6.62-1.62,2.3-11.09,17.71-20.69,17.71.94,3.66,9,6.36,9,6.36s-5.94,4.33-21.09,5.41c7.71,8,15,16.77,35.16,29.48-1.62,3.38-8.39,8.39-5.68,14.74,3,6.36,10.7,15,41.52,22-15.69.67-34.07,4.32-58.84.94-24.74-3-28.8-4.73-44.08-.94,1.62,1.62,6,1.62,9.74,5.94-4.06.27-29.48-3-38.14,8.39-9.06,11.76-13,31.1-12.3,44.08-4.73,2.3-9.33,6.36-7,14.75s14.33,11.09,22,16.35c7.7,5.68,8.38,7.71,15.69,6.36,7.7-1.62,19.06-9.32,25.69-9.32s11.36,5,11.36,5,18-8.66,19.74-7,.27,12,2,13.66c1.78,1.22,22-10.81,27.45-14.2Z"/><path class="cls-99" d="M1713.64,644.6c-84.52-218.25-293.45-258.69-293.45-258.69H824.1l2.3,222.32H945.11v496.42h-121v221.91h579.6c139.68,0,251.66-140.37,251.66-140.37,179.31-254.49,58.28-541.59,58.28-541.59Zm-306.84,392s-45.46,65.59-94.93,65.59h-98.95l-2.34-493.45h127s58.84,12.3,99.94,128.73C1437.5,737.5,1492,904.2,1406.8,1036.63Z"/></g></g></g></svg>