<svg width="18" height="18" viewBox="0 0 18 18" fill="none" xmlns="http://www.w3.org/2000/svg">
<path d="M18 4.1543H0V5.53874H18V4.1543Z" fill="#F5F5F5"/>
<path d="M17.0603 1.38477H0.940152C0.598855 1.78513 0.336203 2.25457 0.176453 2.7694H17.824C17.6642 2.25457 17.4016 1.78513 17.0603 1.38477Z" fill="#F5F5F5"/>
<path d="M18 6.92285H0V8.3073H18V6.92285Z" fill="#F5F5F5"/>
<path d="M18 9.69238H0V11.0768H18V9.69238Z" fill="#F5F5F5"/>
<path d="M18 12.4619H0V13.8464H18V12.4619Z" fill="#F5F5F5"/>
<path d="M17.824 15.2305H0.176453C0.336167 15.7453 0.598855 16.2147 0.940152 16.6151H17.0602C17.4016 16.2147 17.6642 15.7453 17.824 15.2305Z" fill="#F5F5F5"/>
<path d="M14.0623 0H3.93726C2.73674 0 1.66191 0.537434 0.939697 1.38463H17.0598C16.3376 0.537434 15.2628 0 14.0623 0Z" fill="#FF4B55"/>
<path d="M18 5.53809H0V6.92254H18V5.53809Z" fill="#FF4B55"/>
<path d="M18 3.93777C18 3.53098 17.9383 3.13864 17.8238 2.76953H0.176238C0.0616992 3.13864 0 3.53098 0 3.93777V4.15412H18V3.93777Z" fill="#FF4B55"/>
<path d="M18 8.30762H0V9.69207H18V8.30762Z" fill="#FF4B55"/>
<path d="M18 14.0621V13.8457H0V14.0621C0 14.4688 0.0616992 14.8612 0.176238 15.2303H17.8238C17.9383 14.8612 18 14.4688 18 14.0621Z" fill="#FF4B55"/>
<path d="M17.0598 16.6152H0.939697C1.66191 17.4624 2.73674 17.9999 3.93726 17.9999H14.0623C15.2628 17.9999 16.3376 17.4624 17.0598 16.6152Z" fill="#FF4B55"/>
<path d="M18 11.0771H0V12.4616H18V11.0771Z" fill="#FF4B55"/>
<path d="M9.6923 0H3.9375C1.76288 0 0 1.76288 0 3.9375V9.6923H9.6923V0Z" fill="#41479B"/>
<path d="M1.04576 1.51409C1.03655 1.54324 1.06971 1.56735 1.0946 1.54956L1.28665 1.41232L1.47871 1.54956C1.50357 1.56735 1.53675 1.54324 1.52754 1.51409L1.45635 1.28902L1.64627 1.14878C1.67084 1.13061 1.65818 1.09162 1.6276 1.09137L1.39156 1.08955L1.35127 0.96875C1.25009 1.05696 1.15359 1.15033 1.06194 1.24831L1.11703 1.28902L1.04576 1.51409Z" fill="#F5F5F5"/>
<path d="M1.31682 2.73367L1.39149 2.95761L1.62753 2.95944C1.65808 2.95969 1.67077 2.99868 1.6462 3.01685L1.45628 3.15709L1.52748 3.38216C1.53669 3.41131 1.50353 3.43539 1.47864 3.41763L1.28658 3.28035L1.09453 3.41763C1.06967 3.43542 1.03648 3.41131 1.04569 3.38216L1.11688 3.15709L0.92697 3.01685C0.902396 2.99871 0.915052 2.95969 0.945603 2.95944L1.18164 2.95761L1.25631 2.73367C1.26612 2.70466 1.30715 2.70466 1.31682 2.73367Z" fill="#F5F5F5"/>
<path d="M1.31682 4.80496L1.39149 5.0289L1.62753 5.03073C1.65808 5.03098 1.67077 5.06997 1.6462 5.08814L1.45628 5.22838L1.52748 5.45345C1.53669 5.4826 1.50353 5.50668 1.47864 5.48893L1.28658 5.35168L1.09453 5.48893C1.06967 5.50668 1.03648 5.4826 1.04569 5.45345L1.11688 5.22838L0.92697 5.08814C0.902396 5.07 0.915052 5.03098 0.945603 5.03073L1.18164 5.0289L1.25631 4.80496C1.26612 4.77595 1.30715 4.77595 1.31682 4.80496Z" fill="#F5F5F5"/>
<path d="M1.31682 6.70925L1.39149 6.9332L1.62753 6.93503C1.65808 6.93527 1.67077 6.97426 1.6462 6.99244L1.45628 7.13268L1.52748 7.35775C1.53669 7.38689 1.50353 7.41098 1.47864 7.39322L1.28658 7.25594L1.09453 7.39322C1.06967 7.41098 1.03648 7.38689 1.04569 7.35775L1.11688 7.13268L0.92697 6.99244C0.902396 6.9743 0.915052 6.93527 0.945603 6.93503L1.18164 6.9332L1.25631 6.70925C1.26612 6.68025 1.30715 6.68025 1.31682 6.70925Z" fill="#F5F5F5"/>
<path d="M1.31682 8.44167L1.39149 8.66562L1.62753 8.66745C1.65808 8.66769 1.67077 8.70668 1.6462 8.72486L1.45628 8.86509L1.52748 9.09016C1.53669 9.11931 1.50353 9.14339 1.47864 9.12563L1.28658 8.98838L1.09453 9.12563C1.06967 9.14339 1.03648 9.11931 1.04569 9.09016L1.11688 8.86509L0.92697 8.72486C0.902396 8.70672 0.915052 8.66769 0.945603 8.66745L1.18164 8.66562L1.25631 8.44167C1.26612 8.41267 1.30715 8.41267 1.31682 8.44167Z" fill="#F5F5F5"/>
<path d="M2.22589 1.75027L2.30056 1.97421L2.5366 1.97604C2.56715 1.97629 2.57984 2.01528 2.55527 2.03342L2.36536 2.17366L2.43655 2.39873C2.44576 2.42787 2.4126 2.45199 2.38771 2.4342L2.19573 2.29691L2.00367 2.4342C1.97881 2.45199 1.94563 2.42787 1.95484 2.39873L2.02603 2.17366L1.83615 2.03342C1.81158 2.01528 1.82423 1.97625 1.85478 1.97604L2.09082 1.97421L2.16549 1.75027C2.1752 1.72126 2.21622 1.72126 2.22589 1.75027Z" fill="#F5F5F5"/>
<path d="M2.22584 3.82156L2.30051 4.0455L2.53655 4.04733C2.5671 4.04758 2.57979 4.08657 2.55522 4.10474L2.3653 4.24498L2.43649 4.47005C2.4457 4.4992 2.41255 4.52331 2.38766 4.50552L2.1956 4.36824L2.00355 4.50552C1.97869 4.52331 1.9455 4.4992 1.95471 4.47005L2.02591 4.24498L1.83603 4.10474C1.81145 4.0866 1.82411 4.04758 1.85466 4.04733L2.0907 4.0455L2.16537 3.82156C2.17514 3.79255 2.21617 3.79255 2.22584 3.82156Z" fill="#F5F5F5"/>
<path d="M2.22584 5.79028L2.30051 6.01423L2.53655 6.01606C2.5671 6.0163 2.57979 6.05529 2.55522 6.07347L2.3653 6.21371L2.43649 6.43878C2.4457 6.46792 2.41255 6.492 2.38766 6.47425L2.1956 6.33696L2.00355 6.47425C1.97869 6.49204 1.9455 6.46792 1.95471 6.43878L2.02591 6.21371L1.83603 6.07347C1.81145 6.05533 1.82411 6.0163 1.85466 6.01606L2.0907 6.01423L2.16537 5.79028C2.17514 5.76131 2.21617 5.76131 2.22584 5.79028Z" fill="#F5F5F5"/>
<path d="M2.22584 7.55789L2.30051 7.78183L2.53655 7.78366C2.5671 7.7839 2.57979 7.82289 2.55522 7.84107L2.3653 7.9813L2.43649 8.20637C2.4457 8.23552 2.41255 8.25963 2.38766 8.24185L2.1956 8.1046L2.00355 8.24185C1.97869 8.25963 1.9455 8.23552 1.95471 8.20637L2.02591 7.9813L1.83603 7.84107C1.81145 7.82293 1.82411 7.7839 1.85466 7.78366L2.0907 7.78183L2.16537 7.55789C2.17514 7.52888 2.21617 7.52888 2.22584 7.55789Z" fill="#F5F5F5"/>
<path d="M3.13563 0.865477L3.2103 1.08942L3.44634 1.09125C3.47689 1.0915 3.48958 1.13048 3.46501 1.14863L3.27509 1.28886L3.34629 1.51393C3.3555 1.54308 3.32234 1.56716 3.29745 1.54941L3.1054 1.41212L2.91334 1.54941C2.88848 1.5672 2.85529 1.54308 2.86451 1.51393L2.9357 1.28886L2.74582 1.14863C2.72124 1.13048 2.7339 1.09146 2.76445 1.09125L3.00049 1.08942L3.07516 0.865477C3.08493 0.836508 3.12596 0.836508 3.13563 0.865477Z" fill="#F5F5F5"/>
<path d="M3.13563 2.73367L3.2103 2.95761L3.44634 2.95944C3.47689 2.95969 3.48958 2.99868 3.46501 3.01685L3.27509 3.15709L3.34629 3.38216C3.3555 3.41131 3.32234 3.43539 3.29745 3.41763L3.1054 3.28035L2.91334 3.41763C2.88848 3.43542 2.85529 3.41131 2.86451 3.38216L2.9357 3.15709L2.74582 3.01685C2.72124 2.99871 2.7339 2.95969 2.76445 2.95944L3.00049 2.95761L3.07516 2.73367C3.08493 2.70466 3.12596 2.70466 3.13563 2.73367Z" fill="#F5F5F5"/>
<path d="M3.13563 4.80496L3.2103 5.0289L3.44634 5.03073C3.47689 5.03098 3.48958 5.06997 3.46501 5.08814L3.27509 5.22838L3.34629 5.45345C3.3555 5.4826 3.32234 5.50668 3.29745 5.48893L3.1054 5.35168L2.91334 5.48893C2.88848 5.50668 2.85529 5.4826 2.86451 5.45345L2.9357 5.22838L2.74582 5.08814C2.72124 5.07 2.7339 5.03098 2.76445 5.03073L3.00049 5.0289L3.07516 4.80496C3.08493 4.77595 3.12596 4.77595 3.13563 4.80496Z" fill="#F5F5F5"/>
<path d="M3.13563 6.70925L3.2103 6.9332L3.44634 6.93503C3.47689 6.93527 3.48958 6.97426 3.46501 6.99244L3.27509 7.13268L3.34629 7.35775C3.3555 7.38689 3.32234 7.41098 3.29745 7.39322L3.1054 7.25594L2.91334 7.39322C2.88848 7.41098 2.85529 7.38689 2.86451 7.35775L2.9357 7.13268L2.74582 6.99244C2.72124 6.9743 2.7339 6.93527 2.76445 6.93503L3.00049 6.9332L3.07516 6.70925C3.08493 6.68025 3.12596 6.68025 3.13563 6.70925Z" fill="#F5F5F5"/>
<path d="M3.13563 8.44167L3.2103 8.66562L3.44634 8.66745C3.47689 8.66769 3.48958 8.70668 3.46501 8.72486L3.27509 8.86509L3.34629 9.09016C3.3555 9.11931 3.32234 9.14339 3.29745 9.12563L3.1054 8.98838L2.91334 9.12563C2.88848 9.14339 2.85529 9.11931 2.86451 9.09016L2.9357 8.86509L2.74582 8.72486C2.72124 8.70672 2.7339 8.66769 2.76445 8.66745L3.00049 8.66562L3.07516 8.44167C3.08493 8.41267 3.12596 8.41267 3.13563 8.44167Z" fill="#F5F5F5"/>
<path d="M4.04472 1.75027L4.11939 1.97421L4.35543 1.97604C4.38598 1.97629 4.39868 2.01528 4.37407 2.03342L4.18419 2.17366L4.25538 2.39873C4.26459 2.42787 4.23144 2.45199 4.20655 2.4342L4.01449 2.29691L3.82243 2.4342C3.79757 2.45199 3.76439 2.42787 3.7736 2.39873L3.84479 2.17366L3.65487 2.03342C3.6303 2.01528 3.64296 1.97625 3.67354 1.97604L3.90958 1.97421L3.98425 1.75027C3.99406 1.72126 4.03505 1.72126 4.04472 1.75027Z" fill="#F5F5F5"/>
<path d="M4.04472 3.82156L4.11939 4.0455L4.35543 4.04733C4.38598 4.04758 4.39868 4.08657 4.37407 4.10474L4.18419 4.24498L4.25538 4.47005C4.26459 4.4992 4.23144 4.52331 4.20655 4.50552L4.01449 4.36824L3.82243 4.50552C3.79757 4.52331 3.76439 4.4992 3.7736 4.47005L3.84479 4.24498L3.65487 4.10474C3.6303 4.0866 3.64296 4.04758 3.67354 4.04733L3.90958 4.0455L3.98425 3.82156C3.99406 3.79255 4.03505 3.79255 4.04472 3.82156Z" fill="#F5F5F5"/>
<path d="M4.04472 5.79028L4.11939 6.01423L4.35543 6.01606C4.38598 6.0163 4.39868 6.05529 4.37407 6.07347L4.18419 6.21371L4.25538 6.43878C4.26459 6.46792 4.23144 6.492 4.20655 6.47425L4.01449 6.33696L3.82243 6.47425C3.79757 6.49204 3.76439 6.46792 3.7736 6.43878L3.84479 6.21371L3.65487 6.07347C3.6303 6.05533 3.64296 6.0163 3.67354 6.01606L3.90958 6.01423L3.98425 5.79028C3.99406 5.76131 4.03505 5.76131 4.04472 5.79028Z" fill="#F5F5F5"/>
<path d="M4.04472 7.55789L4.11939 7.78183L4.35543 7.78366C4.38598 7.7839 4.39868 7.82289 4.37407 7.84107L4.18419 7.9813L4.25538 8.20637C4.26459 8.23552 4.23144 8.25963 4.20655 8.24185L4.01449 8.1046L3.82243 8.24185C3.79757 8.25963 3.76439 8.23552 3.7736 8.20637L3.84479 7.9813L3.65487 7.84107C3.6303 7.82293 3.64296 7.7839 3.67354 7.78366L3.90958 7.78183L3.98425 7.55789C3.99406 7.52888 4.03505 7.52888 4.04472 7.55789Z" fill="#F5F5F5"/>
<path d="M4.95375 0.865477L5.02842 1.08942L5.26446 1.09125C5.29501 1.0915 5.3077 1.13048 5.28309 1.14863L5.09321 1.28886L5.1644 1.51393C5.17361 1.54308 5.14046 1.56716 5.11557 1.54941L4.92351 1.41212L4.73145 1.54941C4.7066 1.5672 4.67341 1.54308 4.68262 1.51393L4.75381 1.28886L4.56393 1.14863C4.53936 1.13048 4.55201 1.09146 4.5826 1.09125L4.81864 1.08942L4.89331 0.865477C4.90309 0.836508 4.94408 0.836508 4.95375 0.865477Z" fill="#F5F5F5"/>
<path d="M4.95377 2.73367L5.02844 2.95762L5.26448 2.95945C5.29503 2.95969 5.30772 2.99868 5.28311 3.01686L5.09323 3.1571L5.16446 3.38213C5.17367 3.41128 5.14052 3.43536 5.11563 3.4176L4.92357 3.28032L4.73151 3.4176C4.70666 3.43539 4.67347 3.41128 4.68268 3.38213L4.75387 3.15706L4.56399 3.01682C4.53942 2.99868 4.55207 2.95966 4.58266 2.95941L4.8187 2.95758L4.89337 2.73364C4.90311 2.70467 4.9441 2.70467 4.95377 2.73367Z" fill="#F5F5F5"/>
<path d="M4.95375 4.80496L5.02842 5.0289L5.26446 5.03073C5.29501 5.03098 5.3077 5.06997 5.28309 5.08814L5.09321 5.22838L5.1644 5.45345C5.17361 5.4826 5.14046 5.50668 5.11557 5.48893L4.92351 5.35168L4.73145 5.48893C4.7066 5.50668 4.67341 5.4826 4.68262 5.45345L4.75381 5.22838L4.56393 5.08814C4.53936 5.07 4.55201 5.03098 4.5826 5.03073L4.81864 5.0289L4.89331 4.80496C4.90309 4.77595 4.94408 4.77595 4.95375 4.80496Z" fill="#F5F5F5"/>
<path d="M4.95375 6.70925L5.02842 6.9332L5.26446 6.93503C5.29501 6.93527 5.3077 6.97426 5.28309 6.99244L5.09321 7.13268L5.1644 7.35775C5.17361 7.38689 5.14046 7.41098 5.11557 7.39322L4.92351 7.25594L4.73145 7.39322C4.7066 7.41098 4.67341 7.38689 4.68262 7.35775L4.75381 7.13268L4.56393 6.99244C4.53936 6.9743 4.55201 6.93527 4.5826 6.93503L4.81864 6.9332L4.89331 6.70925C4.90309 6.68025 4.94408 6.68025 4.95375 6.70925Z" fill="#F5F5F5"/>
<path d="M4.95375 8.44167L5.02842 8.66562L5.26446 8.66745C5.29501 8.66769 5.3077 8.70668 5.28309 8.72486L5.09321 8.86509L5.1644 9.09016C5.17361 9.11931 5.14046 9.14339 5.11557 9.12563L4.92351 8.98838L4.73145 9.12563C4.7066 9.14339 4.67341 9.11931 4.68262 9.09016L4.75381 8.86509L4.56393 8.72486C4.53936 8.70672 4.55201 8.66769 4.5826 8.66745L4.81864 8.66562L4.89331 8.44167C4.90309 8.41267 4.94408 8.41267 4.95375 8.44167Z" fill="#F5F5F5"/>
<path d="M5.86272 1.75027L5.93739 1.97421L6.17342 1.97604C6.20398 1.97629 6.21667 2.01528 6.19206 2.03342L6.00214 2.17366L6.07334 2.39873C6.08255 2.42787 6.04936 2.45199 6.0245 2.4342L5.83245 2.29691L5.64039 2.4342C5.61553 2.45199 5.58235 2.42787 5.59156 2.39873L5.66275 2.17366L5.47287 2.03342C5.44829 2.01528 5.46095 1.97625 5.4915 1.97604L5.72754 1.97421L5.80221 1.75027C5.81205 1.72126 5.85305 1.72126 5.86272 1.75027Z" fill="#F5F5F5"/>
<path d="M5.86272 3.82156L5.93739 4.0455L6.17342 4.04733C6.20398 4.04758 6.21667 4.08657 6.19206 4.10474L6.00214 4.24498L6.07334 4.47005C6.08255 4.4992 6.04936 4.52331 6.0245 4.50552L5.83245 4.36824L5.64039 4.50552C5.61553 4.52331 5.58235 4.4992 5.59156 4.47005L5.66275 4.24498L5.47287 4.10474C5.44829 4.0866 5.46095 4.04758 5.4915 4.04733L5.72754 4.0455L5.80221 3.82156C5.81205 3.79255 5.85305 3.79255 5.86272 3.82156Z" fill="#F5F5F5"/>
<path d="M5.86272 5.79028L5.93739 6.01423L6.17342 6.01606C6.20398 6.0163 6.21667 6.05529 6.19206 6.07347L6.00214 6.21371L6.07334 6.43878C6.08255 6.46792 6.04936 6.492 6.0245 6.47425L5.83245 6.33696L5.64039 6.47425C5.61553 6.49204 5.58235 6.46792 5.59156 6.43878L5.66275 6.21371L5.47287 6.07347C5.44829 6.05533 5.46095 6.0163 5.4915 6.01606L5.72754 6.01423L5.80221 5.79028C5.81205 5.76131 5.85305 5.76131 5.86272 5.79028Z" fill="#F5F5F5"/>
<path d="M5.86272 7.55789L5.93739 7.78183L6.17342 7.78366C6.20398 7.7839 6.21667 7.82289 6.19206 7.84107L6.00214 7.9813L6.07334 8.20637C6.08255 8.23552 6.04936 8.25963 6.0245 8.24185L5.83245 8.1046L5.64039 8.24185C5.61553 8.25963 5.58235 8.23552 5.59156 8.20637L5.66275 7.9813L5.47287 7.84107C5.44829 7.82293 5.46095 7.7839 5.4915 7.78366L5.72754 7.78183L5.80221 7.55789C5.81205 7.52888 5.85305 7.52888 5.86272 7.55789Z" fill="#F5F5F5"/>
<path d="M6.77254 0.865477L6.84721 1.08942L7.08325 1.09125C7.1138 1.0915 7.1265 1.13048 7.10189 1.14863L6.91197 1.28886L6.98316 1.51393C6.99237 1.54308 6.95919 1.56716 6.93433 1.54941L6.74227 1.41212L6.55021 1.54941C6.52536 1.5672 6.49217 1.54308 6.50138 1.51393L6.57257 1.28886L6.38266 1.14863C6.35808 1.13048 6.37074 1.09146 6.40133 1.09125L6.63736 1.08942L6.71204 0.865477C6.72188 0.836508 6.76287 0.836508 6.77254 0.865477Z" fill="#F5F5F5"/>
<path d="M6.77254 2.73367L6.84721 2.95761L7.08325 2.95944C7.1138 2.95969 7.1265 2.99868 7.10189 3.01685L6.91197 3.15709L6.98316 3.38216C6.99237 3.41131 6.95919 3.43539 6.93433 3.41763L6.74227 3.28035L6.55021 3.41763C6.52536 3.43542 6.49217 3.41131 6.50138 3.38216L6.57257 3.15709L6.38266 3.01685C6.35808 2.99871 6.37074 2.95969 6.40133 2.95944L6.63736 2.95761L6.71204 2.73367C6.72188 2.70466 6.76287 2.70466 6.77254 2.73367Z" fill="#F5F5F5"/>
<path d="M6.77254 4.80496L6.84721 5.0289L7.08325 5.03073C7.1138 5.03098 7.1265 5.06997 7.10189 5.08814L6.91197 5.22838L6.98316 5.45345C6.99237 5.4826 6.95919 5.50668 6.93433 5.48893L6.74227 5.35168L6.55021 5.48893C6.52536 5.50668 6.49217 5.4826 6.50138 5.45345L6.57257 5.22838L6.38266 5.08814C6.35808 5.07 6.37074 5.03098 6.40133 5.03073L6.63736 5.0289L6.71204 4.80496C6.72188 4.77595 6.76287 4.77595 6.77254 4.80496Z" fill="#F5F5F5"/>
<path d="M6.77254 6.70925L6.84721 6.9332L7.08325 6.93503C7.1138 6.93527 7.1265 6.97426 7.10189 6.99244L6.91197 7.13268L6.98316 7.35775C6.99237 7.38689 6.95919 7.41098 6.93433 7.39322L6.74227 7.25594L6.55021 7.39322C6.52536 7.41098 6.49217 7.38689 6.50138 7.35775L6.57257 7.13268L6.38266 6.99244C6.35808 6.9743 6.37074 6.93527 6.40133 6.93503L6.63736 6.9332L6.71204 6.70925C6.72188 6.68025 6.76287 6.68025 6.77254 6.70925Z" fill="#F5F5F5"/>
<path d="M6.77254 8.44167L6.84721 8.66562L7.08325 8.66745C7.1138 8.66769 7.1265 8.70668 7.10189 8.72486L6.91197 8.86509L6.98316 9.09016C6.99237 9.11931 6.95919 9.14339 6.93433 9.12563L6.74227 8.98838L6.55021 9.12563C6.52536 9.14339 6.49217 9.11931 6.50138 9.09016L6.57257 8.86509L6.38266 8.72486C6.35808 8.70672 6.37074 8.66769 6.40133 8.66745L6.63736 8.66562L6.71204 8.44167C6.72188 8.41267 6.76287 8.41267 6.77254 8.44167Z" fill="#F5F5F5"/>
<path d="M7.6815 1.75027L7.75617 1.97421L7.99225 1.97604C8.0228 1.97629 8.03549 2.01528 8.01088 2.03342L7.82097 2.17366L7.89216 2.39873C7.90137 2.42787 7.86818 2.45199 7.84333 2.4342L7.65127 2.29691L7.45921 2.4342C7.43435 2.45199 7.40117 2.42787 7.41038 2.39873L7.48157 2.17366L7.29166 2.03342C7.26708 2.01528 7.27974 1.97625 7.31029 1.97604L7.54636 1.97421L7.62103 1.75027C7.63084 1.72126 7.67183 1.72126 7.6815 1.75027Z" fill="#F5F5F5"/>
<path d="M7.6815 3.82156L7.75617 4.0455L7.99225 4.04733C8.0228 4.04758 8.03549 4.08657 8.01088 4.10474L7.82097 4.24498L7.89216 4.47005C7.90137 4.4992 7.86818 4.52331 7.84333 4.50552L7.65127 4.36824L7.45921 4.50552C7.43435 4.52331 7.40117 4.4992 7.41038 4.47005L7.48157 4.24498L7.29166 4.10474C7.26708 4.0866 7.27974 4.04758 7.31029 4.04733L7.54636 4.0455L7.62103 3.82156C7.63084 3.79255 7.67183 3.79255 7.6815 3.82156Z" fill="#F5F5F5"/>
<path d="M7.6815 5.79028L7.75617 6.01423L7.99225 6.01606C8.0228 6.0163 8.03549 6.05529 8.01088 6.07347L7.82097 6.21371L7.89216 6.43878C7.90137 6.46792 7.86818 6.492 7.84333 6.47425L7.65127 6.33696L7.45921 6.47425C7.43435 6.49204 7.40117 6.46792 7.41038 6.43878L7.48157 6.21371L7.29166 6.07347C7.26708 6.05533 7.27974 6.0163 7.31029 6.01606L7.54636 6.01423L7.62103 5.79028C7.63084 5.76131 7.67183 5.76131 7.6815 5.79028Z" fill="#F5F5F5"/>
<path d="M7.6815 7.55789L7.75617 7.78183L7.99225 7.78366C8.0228 7.7839 8.03549 7.82289 8.01088 7.84107L7.82097 7.9813L7.89216 8.20637C7.90137 8.23552 7.86818 8.25963 7.84333 8.24185L7.65127 8.1046L7.45921 8.24185C7.43435 8.25963 7.40117 8.23552 7.41038 8.20637L7.48157 7.9813L7.29166 7.84107C7.26708 7.82293 7.27974 7.7839 7.31029 7.78366L7.54636 7.78183L7.62103 7.55789C7.63084 7.52888 7.67183 7.52888 7.6815 7.55789Z" fill="#F5F5F5"/>
<path d="M8.59056 0.865477L8.66523 1.08942L8.90128 1.09125C8.93183 1.0915 8.94452 1.13048 8.91994 1.14863L8.73003 1.28886L8.80122 1.51393C8.81043 1.54308 8.77724 1.56716 8.75239 1.54941L8.56033 1.41212L8.36827 1.54941C8.34341 1.5672 8.31023 1.54308 8.31944 1.51393L8.39063 1.28886L8.20071 1.14863C8.17614 1.13048 8.1888 1.09146 8.21935 1.09125L8.45539 1.08942L8.53006 0.865477C8.5399 0.836508 8.58089 0.836508 8.59056 0.865477Z" fill="#F5F5F5"/>
<path d="M8.59056 2.73367L8.66523 2.95761L8.90128 2.95944C8.93183 2.95969 8.94452 2.99868 8.91994 3.01685L8.73003 3.15709L8.80122 3.38216C8.81043 3.41131 8.77724 3.43539 8.75239 3.41763L8.56033 3.28035L8.36827 3.41763C8.34341 3.43542 8.31023 3.41131 8.31944 3.38216L8.39063 3.15709L8.20071 3.01685C8.17614 2.99871 8.1888 2.95969 8.21935 2.95944L8.45539 2.95761L8.53006 2.73367C8.5399 2.70466 8.58089 2.70466 8.59056 2.73367Z" fill="#F5F5F5"/>
<path d="M8.59056 4.80496L8.66523 5.0289L8.90128 5.03073C8.93183 5.03098 8.94452 5.06997 8.91994 5.08814L8.73003 5.22838L8.80122 5.45345C8.81043 5.4826 8.77724 5.50668 8.75239 5.48893L8.56033 5.35168L8.36827 5.48893C8.34341 5.50668 8.31023 5.4826 8.31944 5.45345L8.39063 5.22838L8.20071 5.08814C8.17614 5.07 8.1888 5.03098 8.21935 5.03073L8.45539 5.0289L8.53006 4.80496C8.5399 4.77595 8.58089 4.77595 8.59056 4.80496Z" fill="#F5F5F5"/>
<path d="M8.59056 6.70925L8.66523 6.9332L8.90128 6.93503C8.93183 6.93527 8.94452 6.97426 8.91994 6.99244L8.73003 7.13268L8.80122 7.35775C8.81043 7.38689 8.77724 7.41098 8.75239 7.39322L8.56033 7.25594L8.36827 7.39322C8.34341 7.41098 8.31023 7.38689 8.31944 7.35775L8.39063 7.13268L8.20071 6.99244C8.17614 6.9743 8.1888 6.93527 8.21935 6.93503L8.45539 6.9332L8.53006 6.70925C8.5399 6.68025 8.58089 6.68025 8.59056 6.70925Z" fill="#F5F5F5"/>
<path d="M8.59056 8.44167L8.66523 8.66562L8.90128 8.66745C8.93183 8.66769 8.94452 8.70668 8.91994 8.72486L8.73003 8.86509L8.80122 9.09016C8.81043 9.11931 8.77724 9.14339 8.75239 9.12563L8.56033 8.98838L8.36827 9.12563C8.34341 9.14339 8.31023 9.11931 8.31944 9.09016L8.39063 8.86509L8.20071 8.72486C8.17614 8.70672 8.1888 8.66769 8.21935 8.66745L8.45539 8.66562L8.53006 8.44167C8.5399 8.41267 8.58089 8.41267 8.59056 8.44167Z" fill="#F5F5F5"/>
</svg>
