<svg id="Layer_1" data-name="Layer 1" xmlns="http://www.w3.org/2000/svg" viewBox="0 0 2496 2496"><defs><style>.cls-1{fill:#cddfff;}.cls-2{fill:#008ce7;}.cls-3{fill:#fff;}</style></defs><path class="cls-1" d="M787.65,2029.43h89.43c82.17,0,130,47.19,130,114.18v.66c0,67-48.51,116.16-131.34,116.16H787.65Zm64,56.43v117.81h26.07c38.61,0,64-21.12,64-58.41v-.66c0-37.29-25.41-58.74-64-58.74Z"/><path class="cls-1" d="M1103.79,2027.78h61.71l98.35,232.65H1195.2l-16.5-41.58h-89.43l-16.5,41.58h-67Zm56.1,141.24-25.74-65.34L1108.08,2169Z"/><path class="cls-1" d="M1265.5,2226.11l35.64-42.57c23.43,18.48,48.51,27.72,74.91,27.72,17.49,0,26.73-5.61,26.73-15.84v-.66c0-9.9-7.59-14.52-39.27-22.44-48.84-11.22-87.13-24.75-87.13-72.27v-.66c0-43.23,34-73.92,89.44-73.92,39.6,0,70,10.56,95,30.69l-32,45.21c-21.12-15.51-43.89-22.77-64.68-22.77-15.51,0-23.1,5.94-23.1,14.85v.66c0,10.23,7.92,15.51,40.26,22.44,52.8,11.55,85.8,28.71,85.8,71.94v.66c0,47.19-37.29,75.24-93.39,75.24C1332.49,2264.39,1294.54,2251.52,1265.5,2226.11Z"/><path class="cls-1" d="M1498.14,2029.43h64v86.46h82.17v-86.46h64v231h-64v-87.78h-82.17v87.78h-64Z"/><circle class="cls-2" cx="1248" cy="854.66" r="848.01"/><path class="cls-3" d="M1411.56,430.87H1025.93L994,609.32l347.79.53c171.24,0,222.07,62.17,220.43,165.36-.74,52.9-23.8,142.36-33.55,171.2-26.34,77.38-80.61,165.46-284,165.2l-338-.21-31.91,178.66h384.62c135.63,0,193.4-15.85,254.4-44,135.37-62.44,216-196.16,248.36-370.69,48-259.7-11.87-444.51-350.59-444.51Z"/><path class="cls-3" d="M1237.77,844c12.56-52.21,16.54-73.14,16.54-73.14H859.67c-100.92,0-115.33,65.72-124.93,105.47-12.56,52-16.53,73.19-16.53,73.19H1112.9C1213.76,949.48,1228.18,883.76,1237.77,844Z"/></svg>