<svg xmlns="http://www.w3.org/2000/svg" xmlns:xlink="http://www.w3.org/1999/xlink" width="41" height="32" viewBox="0 0 41 32">
  <defs>
    <linearGradient id="master-card-c" x1="50%" x2="50%" y1="0%" y2="100%">
      <stop offset="0%" stop-color="#F9F9F9"/>
      <stop offset="100%" stop-color="#F5F5F5"/>
    </linearGradient>
    <path id="master-card-b" d="M30.9435897,26 L4.05685897,26 C1.81641026,26 0,24.1205714 0,21.8028571 L0,4.19714286 C0,1.87942857 1.81641026,0 4.05685897,0 L30.9435897,0 C33.1840385,0 35,1.87942857 35,4.19714286 L35,21.8028571 C35,24.1205714 33.1840385,26 30.9435897,26 Z"/>
    <filter id="master-card-a" width="125.7%" height="134.6%" x="-12.9%" y="-17.3%" filterUnits="objectBoundingBox">
      <feOffset in="SourceAlpha" result="shadowOffsetOuter1"/>
      <feGaussianBlur in="shadowOffsetOuter1" result="shadowBlurOuter1" stdDeviation="1.5"/>
      <feColorMatrix in="shadowBlurOuter1" values="0 0 0 0 0   0 0 0 0 0   0 0 0 0 0  0 0 0 0.14 0"/>
    </filter>
  </defs>
  <g fill="none" fill-rule="evenodd" transform="translate(3 3)">
    <use fill="#000" filter="url(#master-card-a)" xlink:href="#master-card-b"/>
    <use fill="url(#master-card-c)" xlink:href="#master-card-b"/>
    <path fill="#FC9F3A" fill-rule="nonzero" d="M28.2069165,13.3239377 C28.2069165,17.0890203 25.1712821,20.140991 21.4269034,20.140991 C17.6825247,20.140991 14.6468902,17.0890203 14.6468902,13.3239377 C14.6468902,9.55885517 17.6825247,6.50688443 21.4269034,6.50688443 C25.1712821,6.50688443 28.2069165,9.55885517 28.2069165,13.3239377 Z"/>
    <path fill="#F14840" fill-rule="nonzero" d="M19.8425378,13.3239377 C19.8425378,17.0890203 16.8069034,20.140991 13.0625247,20.140991 C9.31814596,20.140991 6.28251151,17.0890203 6.28251151,13.3239377 C6.28251151,9.55885517 9.31814596,6.50688443 13.0625247,6.50688443 C16.8069034,6.50688443 19.8425378,9.55885517 19.8425378,13.3239377 Z"/>
    <path fill="#F46B3E" fill-rule="nonzero" d="M17.2444839,7.95740188 C15.6622354,9.20534754 14.6469822,11.1451595 14.6469822,13.3232911 C14.6469822,15.5023465 15.6622354,17.4430821 17.2444839,18.6910278 C18.8267324,17.4430821 19.8419855,15.5023465 19.8419855,13.3232911 C19.8419855,11.1451595 18.8267324,9.20534754 17.2444839,7.95740188"/>
  </g>
</svg>
