<?xml version="1.0" encoding="utf-8"?>
<!-- Generator: Adobe Illustrator 25.0.0, SVG Export Plug-In . SVG Version: 6.00 Build 0)  -->
<svg version="1.1" id="layer" xmlns="http://www.w3.org/2000/svg" xmlns:xlink="http://www.w3.org/1999/xlink" x="0px" y="0px"
	 viewBox="0 0 600 138.8" style="enable-background:new 0 0 600 138.8;" xml:space="preserve">
<style type="text/css">
	.st0{fill:#FF3399;}
</style>
<path class="st0" d="M0,136.6V23.9C0,13.7,8,6.3,18.8,6.3s17.1,4.2,21.9,13.5L69,76.1h0.4V8.4h31.7V120c0,11.7-8.8,18.7-16.8,18.7
	c-8.2,0-14.2-3.8-22.6-20.1L32.2,61.5h-0.4v75H0V136.6z M158.7,101.4l-11.9-19l25.5-17c-4.7-3-8.4-3.4-12-3.4
	c-12.8,0-19.8,13.3-19.8,24.7c0,11.9,8.4,24.3,21,24.3c11.7,0,23.1-10.5,27.8-21.6l22.3,11.7c-8.9,21.8-28.8,37.6-52.3,37.6
	c-26,0-48.8-22.8-48.8-50.4c0-27.7,22.7-50.4,48.8-50.4c21.8,0,36.1,11.9,46.3,30.7L158.7,101.4z M241.6,88.3
	c0-11.1,8-20.4,18.9-20.4s18.9,9.3,18.9,20.4s-8,20.4-18.9,20.4S241.6,99.4,241.6,88.3L241.6,88.3z M211.6,88.3
	c0,27.7,22.8,50.4,48.9,50.4s48.9-22.8,48.9-50.4c0-27.7-22.8-50.4-48.9-50.4C234.4,37.9,211.6,60.6,211.6,88.3z M315.8,109.1h29.5
	c3.6,0,5.4-1.8,5.4-4.3c0-9-33.9-5.6-33.9-37c0-17.9,15.3-26.9,29.9-26.9h29.8v25.3h-24c-3.6,0-6.3,1.9-6.3,4.5
	c0,7.6,35.8,9.5,35.8,35c0,19.3-11.9,29.8-32,29.8h-34.3L315.8,109.1L315.8,109.1z M421.8,95.6c0,8.2,4.1,13.3,10.8,13.3
	c6.7,0,10.8-5.1,10.8-13.3V41h30.3v54.6c0,24.7-14.3,43.2-41.1,43.2c-26.7,0-41.1-18.4-41.1-43.2V41h30.3L421.8,95.6L421.8,95.6z
	 M509.7,56.8h0.4c4.6-13.4,13.4-15.8,26.7-15.8v28.4c-21.2,0.8-23.1,5.4-23.1,21.8v44.4h-30.6V41h26.6V56.8z M543.2,135.6V34.1
	c0-19.6,15.2-34.1,39.2-34.1H600v28.3h-14.8c-8,0-10,4.5-10,12.4h18.6V69h-18.6v66.6H543.2z"/>
</svg>
