<svg width="80" height="72" viewBox="0 0 80 72" fill="none" xmlns="http://www.w3.org/2000/svg">
<path d="M47.2038 8.01253C45.4589 10.1117 42.667 11.7675 39.8751 11.5309C39.5262 8.69255 40.893 5.67677 42.4925 3.81408C44.2375 1.65572 47.2911 0.118266 49.7631 0C50.0539 2.95665 48.9197 5.85417 47.2038 8.01253ZM49.734 12.0927C45.6916 11.8562 42.2308 14.4285 40.3114 14.4285C38.3629 14.4285 35.4256 12.211 32.2265 12.2701C28.0678 12.3292 24.1999 14.7241 22.0769 18.5382C17.7145 26.1664 20.9427 37.4608 25.1596 43.6697C27.2244 46.7447 29.6964 50.1152 32.9536 49.997C36.0363 49.8787 37.2577 47.9569 40.9803 47.9569C44.7319 47.9569 45.8079 49.997 49.0651 49.9378C52.4386 49.8787 54.5616 46.8629 56.6265 43.788C58.9821 40.2992 59.9418 36.899 60 36.7216C59.9418 36.6625 53.4856 34.1493 53.4274 26.5803C53.3693 20.2531 58.5168 17.2373 58.7495 17.0599C55.8413 12.684 51.3044 12.211 49.734 12.0927Z" fill="white"/>
<path d="M0 69.4446H1.98235L3.11512 66.7951H8.32272L9.43976 69.4446H11.485L6.6393 58.3919H4.84574L0 69.4446ZM3.8231 65.0862L5.71106 60.6965L7.61474 65.0862H3.8231Z" fill="white"/>
<path d="M13.1376 71.953H15.057V68.159C15.6392 68.9272 16.5045 69.617 17.889 69.617C19.8556 69.617 21.7435 68.0649 21.7435 65.3214V65.29C21.7435 62.5308 19.8398 60.9944 17.889 60.9944C16.5359 60.9944 15.6706 61.6842 15.057 62.5465V61.1669H13.1376V71.953ZM17.4327 67.9709C16.1426 67.9709 15.0098 66.9048 15.0098 65.3214V65.29C15.0098 63.7066 16.1426 62.6405 17.4327 62.6405C18.7071 62.6405 19.8084 63.6909 19.8084 65.29V65.3214C19.8084 66.9518 18.7385 67.9709 17.4327 67.9709Z" fill="white"/>
<path d="M23.6928 71.953H25.6122V68.159C26.1944 68.9272 27.0597 69.617 28.4442 69.617C30.4108 69.617 32.2987 68.0649 32.2987 65.3214V65.29C32.2987 62.5308 30.395 60.9944 28.4442 60.9944C27.0911 60.9944 26.2258 61.6842 25.6122 62.5465V61.1669H23.6928V71.953ZM27.9879 67.9709C26.6978 67.9709 25.565 66.9048 25.565 65.3214V65.29C25.565 63.7066 26.6978 62.6405 27.9879 62.6405C29.2623 62.6405 30.3636 63.6909 30.3636 65.29V65.3214C30.3636 66.9518 29.2937 67.9709 27.9879 67.9709Z" fill="white"/>
<path d="M34.3582 69.4446H36.2776V58H34.3582V69.4446Z" fill="white"/>
<path d="M42.5728 69.6327C44.0989 69.6327 45.1845 69.0213 45.9711 68.0806L44.8541 67.0929C44.1933 67.7357 43.5325 68.0806 42.6043 68.0806C41.3771 68.0806 40.4174 67.3281 40.2129 65.9798H46.3173C46.333 65.7917 46.3487 65.6193 46.3487 65.4468C46.3487 63.0638 45.0114 60.9944 42.3683 60.9944C39.9926 60.9944 38.3092 62.9384 38.3092 65.3057V65.3371C38.3092 67.8925 40.1657 69.6327 42.5728 69.6327ZM40.1972 64.7256C40.3702 63.4401 41.1883 62.5465 42.3526 62.5465C43.6112 62.5465 44.3349 63.5028 44.4608 64.7256H40.1972Z" fill="white"/>
<path d="M53.1976 69.4446H55.1328V65.9171H57.3196C59.7425 65.9171 61.7248 64.6316 61.7248 62.1702V62.1389C61.7248 59.9283 60.1201 58.4703 57.5399 58.4703H53.1976V69.4446ZM55.1328 64.1769V60.2262H57.3826C58.83 60.2262 59.7582 60.9003 59.7582 62.1859V62.2172C59.7582 63.3617 58.8457 64.1769 57.3826 64.1769H55.1328Z" fill="white"/>
<path d="M65.7242 69.617C66.9986 69.617 67.8639 69.084 68.4303 68.4099V69.4446H70.2868V64.5375C70.2868 63.4558 70.0036 62.5778 69.39 61.9821C68.8079 61.3863 67.8796 61.0571 66.6367 61.0571C65.3152 61.0571 64.4184 61.3236 63.4901 61.7312L64.0093 63.2206C64.7645 62.9071 65.4567 62.7032 66.385 62.7032C67.7223 62.7032 68.446 63.3303 68.446 64.5062V64.71C67.801 64.5062 67.1402 64.3651 66.2119 64.3651C64.1824 64.3651 62.7664 65.243 62.7664 67.0302V67.0616C62.7664 68.7234 64.1666 69.617 65.7242 69.617ZM66.2591 68.2374C65.3466 68.2374 64.6386 67.7828 64.6386 66.9832V66.9518C64.6386 66.0896 65.3624 65.5722 66.5895 65.5722C67.3447 65.5722 67.9898 65.7133 68.4775 65.9015V66.4658C68.4775 67.5162 67.5178 68.2374 66.2591 68.2374Z" fill="white"/>
<path d="M75.8465 67.3124L73.518 61.1669H71.4728L74.934 69.4602C74.6193 70.1657 74.2889 70.4009 73.754 70.4009C73.3607 70.4009 72.9831 70.2755 72.637 70.0873L71.9919 71.4826C72.5741 71.8119 73.1719 72 73.9586 72C75.2959 72 76.0353 71.3729 76.6961 69.6641L80 61.1669H78.0177L75.8465 67.3124Z" fill="white"/>
</svg>
