<svg width="80" height="68" viewBox="0 0 80 68" fill="none" xmlns="http://www.w3.org/2000/svg">
<path d="M41.3408 26.5556L53.7127 4.41919L60.4495 8.43733C64.8009 11.0326 66.2918 16.7801 63.7795 21.2744L56.814 33.7375C55.244 36.5469 51.7666 37.5089 49.047 35.8878L42.7944 32.1587C40.8953 31.0264 40.2441 28.5174 41.3408 26.5556Z" fill="url(#paint0_linear_6371_16363)"/>
<path d="M40.0237 11.189L24.6362 38.7212L31.373 42.7393C35.7244 45.3345 41.2883 43.7942 43.7998 39.2994L53.7811 21.4406C55.3511 18.6311 54.4192 15.0392 51.6996 13.4173L45.447 9.68817C43.5486 8.55517 41.1206 9.22725 40.0237 11.189Z" fill="#FDBD00"/>
<path d="M53.7134 4.4192L48.946 1.57569C43.5073 -1.66818 36.5522 0.257265 33.4118 5.87539L24.5678 21.6997C22.9977 24.5092 23.9297 28.1011 26.6493 29.723L31.4167 32.5667C34.1365 34.1886 37.6137 33.2259 39.1839 30.4164L49.743 11.5238C51.9359 7.5995 56.7935 6.25534 60.5917 8.52061" fill="#2DA94F"/>
<path d="M34.7848 10.5134L29.5235 7.38309C27.1783 5.98746 24.1787 6.81545 22.8247 9.23284L16.5106 20.5024C13.4012 26.0509 15.246 33.1442 20.6304 36.3471L24.6374 38.7313L29.4957 41.6217L31.6043 42.8742C27.8604 40.285 26.6727 35.0999 28.9608 31.0167L30.5947 28.1012L36.5799 17.4166C37.9345 15.0001 37.1309 11.9091 34.7848 10.5134Z" fill="url(#paint1_linear_6371_16363)"/>
<path d="M58.3812 59.7297V64.1703H56.894V53.2065H60.8373C61.8392 53.2065 62.6902 53.5231 63.391 54.1559C64.1023 54.789 64.4575 55.5596 64.4575 56.4681C64.4575 57.3972 64.1023 58.1731 63.391 58.7956C62.7015 59.4184 61.8505 59.7297 60.8373 59.7297H58.3812ZM58.3812 54.554V58.3822H60.8696C61.4622 58.3822 61.9531 58.1934 62.3406 57.8156C62.7386 57.4381 62.9389 56.9887 62.9389 56.4681C62.9389 55.9578 62.7386 55.5137 62.3406 55.1359C61.9531 54.7481 61.4622 54.554 60.8696 54.554H58.3812Z" fill="white"/>
<path d="M68.3499 56.4221C69.4487 56.4221 70.3159 56.7002 70.9521 57.2568C71.5875 57.8134 71.9056 58.5762 71.9056 59.5459V64.1703H70.483V63.129H70.4184C69.804 63.9865 68.9853 64.4153 67.9616 64.4153C67.0888 64.4153 66.3589 64.1703 65.772 63.6802C65.1842 63.1902 64.8911 62.5778 64.8911 61.8428C64.8911 61.0671 65.2003 60.4493 65.8196 59.9899C66.4397 59.5305 67.2664 59.3009 68.3007 59.3009C69.1839 59.3009 69.9114 59.454 70.483 59.7602V59.4387C70.483 58.9487 70.2779 58.5328 69.8686 58.1909C69.4592 57.849 68.9797 57.6777 68.4298 57.6777C67.6007 57.6777 66.9435 58.0096 66.4582 58.673L65.1495 57.8921C65.8713 56.9121 66.9378 56.4221 68.3499 56.4221ZM66.4267 61.8734C66.4267 62.2409 66.5906 62.5471 66.9192 62.7921C67.2478 63.0372 67.633 63.1596 68.0754 63.1596C68.7003 63.1596 69.2574 62.9403 69.7475 62.5012C70.2384 62.0624 70.483 61.5468 70.483 60.9546C70.0196 60.6077 69.3729 60.434 68.5437 60.434C67.9398 60.434 67.4368 60.5718 67.0323 60.8474C66.6286 61.1231 66.4267 61.4652 66.4267 61.8734Z" fill="white"/>
<path d="M80.0001 56.6672L75.0388 67.4779H73.5032L75.3456 63.6957L72.0806 56.6672H73.6969L76.0569 62.0572H76.0892L78.3838 56.6672H80.0001Z" fill="white"/>
<path d="M6.67538 59.3619V57.6666H12.6647C12.7257 57.9653 12.7617 58.3209 12.7617 58.706C12.7617 59.9775 12.3943 61.5515 11.2124 62.6719C10.0623 63.8072 8.59298 64.4125 6.64438 64.4125C3.03468 64.4125 0 61.6272 0 58.2062C0 54.7853 3.03468 52 6.64438 52C8.64078 52 10.0623 52.7419 11.1327 53.7106L9.87074 54.9065C9.10389 54.2253 8.06593 53.6956 6.64438 53.6956C4.00902 53.6956 1.9486 55.7088 1.9486 58.2066C1.9486 60.7044 4.00902 62.7175 6.64438 62.7175C8.35351 62.7175 9.32786 62.0666 9.95059 61.4763C10.4582 60.9953 10.7923 60.3053 10.9223 59.3622L6.67538 59.3619Z" fill="white"/>
<path d="M21.8892 60.4164C21.8892 62.7174 19.9884 64.4127 17.6565 64.4127C15.3246 64.4127 13.4238 62.7174 13.4238 60.4164C13.4238 58.1005 15.3246 56.4202 17.6565 56.4202C19.9887 56.4202 21.8892 58.1002 21.8892 60.4164ZM20.0366 60.4164C20.0366 58.9783 18.9346 57.9946 17.6568 57.9946C16.3791 57.9946 15.2768 58.9783 15.2768 60.4164C15.2768 61.8392 16.3787 62.8383 17.6568 62.8383C18.9346 62.8383 20.0366 61.8392 20.0366 60.4164Z" fill="white"/>
<path d="M31.1222 60.4164C31.1222 62.7174 29.2214 64.4127 26.8894 64.4127C24.5575 64.4127 22.6567 62.7174 22.6567 60.4164C22.6567 58.1005 24.5575 56.4202 26.8894 56.4202C29.2217 56.4202 31.1222 58.1002 31.1222 60.4164ZM29.2695 60.4164C29.2695 58.9783 28.1676 57.9946 26.8898 57.9946C25.6121 57.9946 24.5097 58.9783 24.5097 60.4164C24.5097 61.8392 25.6117 62.8383 26.8898 62.8383C28.1676 62.8383 29.2695 61.8392 29.2695 60.4164Z" fill="white"/>
<path d="M39.9723 56.6621V63.8371C39.9723 66.789 38.1354 68 35.9632 68C33.9186 68 32.689 66.6981 32.2256 65.6387L33.8387 65.0028C34.1264 65.6537 34.8289 66.4255 35.9632 66.4255C37.3528 66.4255 38.2153 65.6081 38.2153 64.0793V63.504H38.1513C37.736 63.9884 36.9375 64.4121 35.9312 64.4121C33.8226 64.4121 31.8901 62.6715 31.8901 60.4312C31.8901 58.1756 33.8226 56.4199 35.9312 56.4199C36.9375 56.4199 37.736 56.8436 38.1513 57.313H38.2153V56.6621H39.9723ZM38.3429 60.4315C38.3429 59.0237 37.3524 57.9943 36.0908 57.9943C34.8131 57.9943 33.7428 59.0237 33.7428 60.4315C33.7428 61.824 34.8128 62.8383 36.0908 62.8383C37.3528 62.8383 38.3429 61.824 38.3429 60.4315Z" fill="white"/>
<path d="M43.1099 52.4634V64.1706H41.2573V52.4634H43.1099Z" fill="white"/>
<path d="M50.2652 61.7331L51.7031 62.6413C51.2397 63.2922 50.1215 64.4121 48.1888 64.4121C45.7929 64.4121 44.0039 62.6562 44.0039 60.4159C44.0039 58.0394 45.8087 56.4197 47.981 56.4197C50.1691 56.4197 51.2397 58.0696 51.5909 58.9627L51.7822 59.4169L46.1442 61.6269C46.5756 62.429 47.2464 62.8378 48.1888 62.8378C49.1308 62.8384 49.7864 62.3994 50.2652 61.7331ZM45.8407 60.2953L49.6096 58.8119C49.4021 58.3124 48.7796 57.9644 48.0447 57.9644C47.1026 57.9641 45.7929 58.7512 45.8407 60.2953Z" fill="white"/>
<defs>
<linearGradient id="paint0_linear_6371_16363" x1="44.4347" y1="17.5904" x2="62.9305" y2="24.1072" gradientUnits="userSpaceOnUse">
<stop offset="0.2" stop-color="#D93025"/>
<stop offset="0.6" stop-color="#EA4335"/>
</linearGradient>
<linearGradient id="paint1_linear_6371_16363" x1="16.5635" y1="19.8239" x2="37.1675" y2="27.0836" gradientUnits="userSpaceOnUse">
<stop offset="0.2" stop-color="#4285F4"/>
<stop offset="0.8" stop-color="#1B74E8"/>
</linearGradient>
</defs>
</svg>
