<svg id="Layer_1" data-name="Layer 1" xmlns="http://www.w3.org/2000/svg" viewBox="0 0 2496 2496"><defs><style>.cls-1{fill:#26a17b;}.cls-2{fill:#fff;}.cls-3{fill:#cddfff;}.cls-4{fill:#e55f5f;}</style></defs><path class="cls-1" d="M1250.05,1702.67c467.55-1.13,845.66-381.08,844.53-848.63S1713.51,8.38,1246,9.51C779.2,10.64,401.42,389.33,401.42,856.08c.56,468.12,380.51,847.15,848.63,846.59Z"/><path class="cls-2" d="M1340.47,934.23h0c-5.8,0-36.17,2-102.37,2-53.91,0-91.79,0-105.09-2h0c-207.47-8.88-362-45.05-362-88S925.88,767,1133,757.81V897c13.3,0,52.2,3.41,106.12,3.41,64.15,0,96.57-2.73,102.37-3.41V758.15c205.76,9.22,359.65,45,359.65,88s-154.24,79.16-361,88.38Zm0-190.75V617.91h288.68V426.14H844.33V617.91h288.34V743.48c-234.43,10.92-409.48,57-409.48,112.6s176.42,102.37,409.48,112.61v403H1341.5v-403c234.08-10.58,409.47-57,409.47-112.61S1574.89,753.72,1341.5,743.82"/><path class="cls-3" d="M629.61,1954.83h-69v-56.1h202.3v56.1H693.63v174.9h-64Z"/><path class="cls-3" d="M791,1898.73H976.77v54.12H854.34v35.31H965.22v50.49H854.34v36.63H978.42v54.45H791Z"/><path class="cls-3" d="M1067.85,1954.83h-69v-56.1h202.29v56.1h-69.3v174.9h-64Z"/><path class="cls-3" d="M1229.22,1898.73h64v86.46h82.17v-86.46h64v231h-64V2042h-82.17v87.78h-64Z"/><path class="cls-3" d="M1480.34,1898.73h185.79v54.12H1543.7v35.31h110.88v50.49H1543.7v36.63h124.08v54.45H1480.34Z"/><path class="cls-3" d="M1700.78,1898.73H1810c35.64,0,59.73,9.24,75.24,24.75,13.53,13.53,20.46,31.68,20.46,53.79v.66c0,35.64-18.48,59.07-47.52,71.28l55.11,80.52h-73.59l-46.53-70H1764.8v70h-64Zm106.59,110.88c21.45,0,34.32-10.56,34.32-27.39v-.66c0-18.48-13.53-27.72-34.65-27.72H1764.8v55.77Z"/><path class="cls-4" d="M689.94,2320h-67.1V2265.4H819.66V2320H752.24v170.18h-62.3Z"/><path class="cls-4" d="M847,2265.4H953.24c34.67,0,58.11,9,73.21,24.08,13.16,13.17,19.9,30.83,19.9,52.34v.64c0,34.68-18,57.48-46.23,69.36l53.62,78.34h-71.6l-45.28-68.07H909.25v68.07H847Zm103.71,107.89c20.87,0,33.39-10.28,33.39-26.66V2346c0-18-13.16-27-33.71-27h-41.1v54.27Z"/><path class="cls-4" d="M1070.44,2378.42v-.64c0-65.5,50.09-116.88,118.16-116.88,45.59,0,75.78,19.27,95.36,46.56l-46.88,36.29c-12.84-15.74-27.29-26.33-49.12-26.33-31.47,0-53.63,27-53.63,59.72v.64c0,33.72,22.16,60,53.63,60,23.44,0,36.92-10.91,50.73-27.29l46.88,33.4c-21.51,29.21-49.77,50.73-99.22,50.73C1122.13,2494.66,1070.44,2445.53,1070.44,2378.42Z"/><path class="cls-4" d="M1302.27,2363h105.31v53.3H1302.27Z"/><path class="cls-4" d="M1431,2443.28l84.13-64.21c20.87-16.38,29.22-26.66,29.22-40.46,0-14.45-10-23.12-25.37-23.12-15.09,0-27,9-44.63,29.22l-42.06-35c24.08-30.83,48.16-48.16,91.51-48.16,48.8,0,82.84,29.22,82.84,71.6v.64c0,36-18.62,54.59-52,78.67l-38.53,27h92.8v50.73H1431Z"/><path class="cls-4" d="M1634,2378.42v-.64c0-63.58,40.46-116.88,104.36-116.88S1842,2313.56,1842,2377.14v.64c0,63.58-40.14,116.88-104.36,116.88C1673.77,2494.66,1634,2442,1634,2378.42Zm145.46,0v-.64c0-36-17-62-41.75-62s-41.09,25.37-41.09,61.33v.64c0,36.28,17,61.65,41.74,61.65C1763.35,2439.43,1779.41,2414.06,1779.41,2378.42Z"/></svg>