<svg id="Layer_1" data-name="Layer 1" xmlns="http://www.w3.org/2000/svg" viewBox="0 0 2496 2496"><defs><style>.cls-1{fill:#cddfff;}.cls-2{fill:#e55f5f;}.cls-3{fill:#2775ca;}.cls-4{fill:#fff;}</style></defs><path class="cls-1" d="M815.26,2028.42V1898.73h64.68V2027.1c0,33.33,16.5,49.17,42.57,49.17,26.4,0,42.9-14.85,42.9-47.52v-130h64.68v128c0,74.25-42.57,107.25-108.24,107.25C856.51,2134,815.26,2101,815.26,2028.42Z"/><path class="cls-1" d="M1050.55,2095.41l35.64-42.57c23.43,18.48,48.51,27.72,74.91,27.72,17.49,0,26.73-5.61,26.73-15.84v-.66c0-9.9-7.59-14.52-39.27-22.44-48.84-11.22-87.12-24.75-87.12-72.27v-.66c0-43.23,34-73.92,89.43-73.92,39.6,0,70,10.56,95,30.69l-32,45.21c-21.12-15.51-43.89-22.77-64.68-22.77-15.51,0-23.1,5.94-23.1,14.85v.66c0,10.23,7.92,15.51,40.26,22.44,52.8,11.55,85.8,28.71,85.8,71.94v.66c0,47.19-37.29,75.24-93.39,75.24C1117.54,2133.69,1079.59,2120.82,1050.55,2095.41Z"/><path class="cls-1" d="M1283.2,1898.73h89.43c82.17,0,130,47.19,130,114.18v.66c0,67-48.51,116.16-131.34,116.16H1283.2Zm64,56.43V2073h26.07c38.61,0,64-21.12,64-58.41v-.66c0-37.29-25.41-58.74-64-58.74Z"/><path class="cls-1" d="M1528.38,2014.89v-.66c0-67.32,51.48-120.12,121.44-120.12,46.86,0,77.89,19.8,98,47.85l-48.18,37.29c-13.19-16.17-28.05-27.06-50.49-27.06-32.34,0-55.11,27.72-55.11,61.38v.66c0,34.65,22.77,61.71,55.11,61.71,24.09,0,37.95-11.22,52.15-28l48.18,34.32c-22.11,30-51.16,52.14-102,52.14C1581.51,2134.35,1528.38,2083.86,1528.38,2014.89Z"/><path class="cls-2" d="M488.8,2265.4h96.65c56.51,0,93.12,28.9,93.12,78.67v.64c0,53.3-40.78,81.23-96.33,81.23H551.1v64.22H488.8ZM581,2377.14c21.83,0,35.64-11.56,35.64-29.54V2347c0-19.27-13.81-29.22-36-29.22H551.1v59.4Z"/><path class="cls-2" d="M697.51,2378.42v-.64c0-64.54,52-116.88,121.38-116.88s120.72,52,120.72,116.24v.64c0,64.54-52,116.88-121.37,116.88S697.51,2442.64,697.51,2378.42Zm178.21,0v-.64c0-32.75-23.12-60.69-57.48-60.69s-57.15,27.62-57.15,60v.64c0,32.11,23.44,60.69,57.8,60.69C852.92,2438.47,875.72,2410.85,875.72,2378.42Z"/><path class="cls-2" d="M971.73,2265.4H1034v170.18h108.85v54.58H971.73Z"/><path class="cls-2" d="M1193.28,2406l-85.73-140.64h71l46.24,81.88,46.56-81.88H1341l-85.41,139.67v85.09h-62.29Z"/><path class="cls-2" d="M1332,2378.42v-.64c0-65.5,51.37-116.88,120.73-116.88,39.81,0,67.1,11.88,91.19,32.43l-36.61,44.31c-16.37-13.8-31.46-21.19-54.26-21.19-32.11,0-57.48,27-57.48,61.33v.64c0,36.61,25.37,62.62,61,62.62,15.41,0,27-3.22,36-9.32v-27.29h-44v-45.59h103.07v100.82c-24.08,20.23-56.19,35-97.61,35C1383.69,2494.66,1332,2446.82,1332,2378.42Z"/><path class="cls-2" d="M1578.92,2378.42v-.64c0-64.54,52-116.88,121.37-116.88s120.73,52,120.73,116.24v.64c0,64.54-52,116.88-121.37,116.88S1578.92,2442.64,1578.92,2378.42Zm178.2,0v-.64c0-32.75-23.11-60.69-57.47-60.69s-57.16,27.62-57.16,60v.64c0,32.11,23.44,60.69,57.8,60.69C1734.33,2438.47,1757.12,2410.85,1757.12,2378.42Z"/><path class="cls-2" d="M1853.13,2265.4h58.12l92.47,118.8V2265.4h61.65v224.76h-54.26l-96.33-123.3v123.3h-61.65Z"/><path class="cls-3" d="M1277.09,1707.67c471.78,0,851.33-379.55,851.33-851.34S1748.87,5,1277.09,5,425.76,384.55,425.76,856.33,805.31,1707.67,1277.09,1707.67Z"/><path class="cls-4" d="M1511.21,991.12c0-124.15-74.5-166.71-223.48-184.45-106.42-14.19-127.7-42.56-127.7-92.23s35.48-81.58,106.42-81.58c63.85,0,99.32,21.28,117.06,74.49,3.55,10.64,14.19,17.73,24.83,17.73h56.75c14.19,0,24.83-10.64,24.83-24.82v-3.55c-14.19-78-78-138.34-159.62-145.43V466.14c0-14.19-10.64-24.83-28.38-28.38h-53.21c-14.19,0-24.83,10.64-28.38,28.38v81.58c-106.42,14.2-173.81,85.14-173.81,173.82,0,117.06,70.94,163.17,219.93,180.91,99.32,17.73,131.25,39,131.25,95.77S1348,1094,1280.64,1094c-92.23,0-124.16-39-134.8-92.23-3.54-14.19-14.18-21.29-24.83-21.29h-60.3c-14.19,0-24.83,10.64-24.83,24.84v3.55c14.18,88.67,70.94,152.52,188,170.26v85.14c0,14.18,10.64,24.82,28.38,28.37h53.2c14.2,0,24.84-10.64,28.39-28.37v-85.14c106.41-17.74,177.36-92.23,177.36-188Z"/><path class="cls-4" d="M1096.18,1363.58c-276.68-99.31-418.57-407.92-315.7-681.06,53.21-149,170.27-262.5,315.7-315.7,14.19-7.09,21.28-17.74,21.28-35.48V281.68c0-14.19-7.09-24.83-21.28-28.37-3.55,0-10.64,0-14.19,3.54C745,363.27,560.55,721.54,667,1058.52c63.85,198.65,216.39,351.18,415,415,14.19,7.09,28.38,0,31.92-14.19,3.55-3.54,3.55-7.09,3.55-14.19v-49.66C1117.46,1384.87,1106.82,1370.68,1096.18,1363.58Zm376-1106.73c-14.19-7.09-28.38,0-31.93,14.19-3.55,3.55-3.55,7.09-3.55,14.19v49.66c0,14.19,10.65,28.38,21.29,35.48,276.68,99.31,418.57,407.92,315.7,681.06-53.21,149-170.27,262.49-315.7,315.7-14.19,7.09-21.29,17.74-21.29,35.48v49.66c0,14.19,7.1,24.83,21.29,28.37,3.55,0,10.64,0,14.19-3.54,337-106.42,521.44-464.69,415-801.68-63.85-202.19-219.93-354.72-415-418.57Z"/></svg>