<svg id="Layer_1" data-name="Layer 1" xmlns="http://www.w3.org/2000/svg" viewBox="0 0 2496 2496"><defs><style>.cls-1{fill:#cddfff;}.cls-2{fill:#26a17b;}.cls-3{fill:#fff;}.cls-4{fill:#e55f5f;}</style></defs><path class="cls-1" d="M632.4,1954.83h-69v-56.1H765.72v56.1h-69.3v174.9h-64Z"/><path class="cls-1" d="M793.76,1898.73H979.55v54.12H857.12v35.31H968v50.49H857.12v36.63H981.21v54.45H793.76Z"/><path class="cls-1" d="M1070.63,1954.83h-69v-56.1H1204v56.1h-69.3v174.9h-64Z"/><path class="cls-1" d="M1232,1898.73h64v86.46h82.17v-86.46h64v231h-64V2042H1296v87.78h-64Z"/><path class="cls-1" d="M1483.12,1898.73h185.8v54.12H1546.49v35.31h110.88v50.49H1546.49v36.63h124.08v54.45H1483.12Z"/><path class="cls-1" d="M1703.57,1898.73H1812.8c35.64,0,59.73,9.24,75.24,24.75,13.53,13.53,20.46,31.68,20.46,53.79v.66c0,35.64-18.48,59.07-47.52,71.28l55.11,80.52H1842.5l-46.53-70h-28.38v70h-64Zm106.59,110.88c21.45,0,34.32-10.56,34.32-27.39v-.66c0-18.48-13.53-27.72-34.65-27.72h-42.24v55.77Z"/><path class="cls-2" d="M1250.06,1702.67c470-1.14,850.09-383.07,849-853.08S1715.94-.5,1245.94.64c-469.2,1.13-849,381.81-849,851,.57,470.57,382.5,851.58,853.08,851Z"/><path class="cls-3" d="M1341,930.2h0c-5.83,0-36.36,2.06-102.91,2.06-54.19,0-92.27,0-105.65-2.06h0c-208.55-8.92-363.93-45.28-363.93-88.5s155.72-79.58,363.93-88.84V892.81c13.38,0,52.49,3.43,106.68,3.43,64.49,0,97.07-2.74,102.91-3.43V753.2c206.83,9.26,361.53,45.28,361.53,88.5s-155,79.58-362.91,88.84Zm0-191.75V612.22h290.19V419.45H842.21V612.22h289.85V738.45c-235.65,11-411.62,57.29-411.62,113.2s177.34,102.9,411.62,113.19v405.1H1342V964.84c235.3-10.63,411.61-57.28,411.61-113.19S1576.61,748.74,1342,738.8"/><path class="cls-4" d="M636.53,2265.4H817.31v52.66H698.18v34.35H806.07v49.13H698.18v35.64H818.91v53H636.53Z"/><path class="cls-4" d="M851,2265.4H957.31c34.67,0,58.11,9,73.21,24.08,13.16,13.17,19.9,30.83,19.9,52.34v.64c0,34.68-18,57.48-46.23,69.36l53.62,78.34h-71.6l-45.28-68.07H913.32v68.07H851Zm103.71,107.89c20.87,0,33.39-10.28,33.39-26.66V2346c0-18-13.16-27-33.71-27h-41.1v54.27Z"/><path class="cls-4" d="M1074.51,2378.42v-.64c0-65.5,50.09-116.88,118.16-116.88,45.59,0,75.78,19.27,95.36,46.56l-46.88,36.29c-12.84-15.74-27.29-26.33-49.12-26.33-31.47,0-53.63,27-53.63,59.72v.64c0,33.72,22.16,60,53.63,60,23.44,0,36.92-10.91,50.73-27.29l46.88,33.4c-21.52,29.21-49.77,50.73-99.22,50.73C1126.2,2494.66,1074.51,2445.53,1074.51,2378.42Z"/><path class="cls-4" d="M1306.34,2363h105.31v53.3H1306.34Z"/><path class="cls-4" d="M1435.09,2443.28l84.13-64.21c20.87-16.38,29.22-26.66,29.22-40.46,0-14.45-10-23.12-25.37-23.12-15.09,0-27,9-44.63,29.22l-42.06-35c24.08-30.83,48.16-48.16,91.51-48.16,48.8,0,82.84,29.22,82.84,71.6v.64c0,36-18.62,54.59-52,78.67l-38.53,27H1613v50.73H1435.09Z"/><path class="cls-4" d="M1638,2378.42v-.64c0-63.58,40.46-116.88,104.36-116.88s103.71,52.66,103.71,116.24v.64c0,63.58-40.14,116.88-104.36,116.88C1677.84,2494.66,1638,2442,1638,2378.42Zm145.46,0v-.64c0-36-17-62-41.75-62s-41.1,25.37-41.1,61.33v.64c0,36.28,17,61.65,41.75,61.65C1767.42,2439.43,1783.48,2414.06,1783.48,2378.42Z"/></svg>