<svg id="Layer_1" data-name="Layer 1" xmlns="http://www.w3.org/2000/svg" viewBox="0 0 2496 2496"><defs><style>.cls-1{fill:#f0b90b;fill-rule:evenodd;}.cls-2{fill:#fff;}.cls-3{fill:#cddfff;}.cls-4{fill:#e55f5f;}</style></defs><path class="cls-1" d="M1278.14,3C1762,3,2154.19,383.45,2154.19,852.83s-392.19,849.84-876,849.84S402.09,1322.22,402.09,852.83,794.28,3,1278.14,3Z"/><path class="cls-2" d="M883.57,852.83l.63,224.72L1081,1189.91v131.56L769,1143.94V787.12l114.56,65.71Zm0-224.71v131L768.94,693.29V562.34l114.63-65.78,115.19,65.78L883.57,628.12Zm279.66-65.78,114.63-65.78,115.19,65.78-115.19,65.78-114.63-65.78Z"/><path class="cls-2" d="M966.4,1031V899.41L1081,965.19v131L966.4,1031ZM1163.23,1237l114.63,65.78L1393.05,1237v131l-115.19,65.78L1163.23,1368V1237Zm394.22-674.69,114.63-65.78,115.19,65.78V693.29l-115.19,65.78v-131l-114.63-65.78Zm114.63,515.21.63-224.72,114.63-65.78v356.82l-312,177.53V1189.84l196.76-112.29Z"/><polygon class="cls-2" points="1589.88 1030.97 1475.25 1096.14 1475.25 965.19 1589.88 899.41 1589.88 1030.97"/><path class="cls-2" d="M1589.88,674.7l.63,131.56L1393.12,918.61v225.26L1278.49,1209l-114.63-65.17V918.61L966.47,806.26V674.7l115.12-65.79,196.2,112.91,197.39-112.91,115.19,65.79ZM966.4,450.05l311.46-178.14,312,178.14-114.63,65.78-197.39-112.9L1081,515.83,966.4,450.05Z"/><path class="cls-3" d="M216.55,1898.73H335c29,0,49.5,7.26,63,20.46,9.24,9.57,14.85,21.78,14.85,37.62v.66c0,26.73-14.85,42.57-35.64,51.48,28.05,9.24,45.87,25.08,45.87,56.43v.66c0,39.93-32,63.69-87.45,63.69H216.55ZM349.87,1970c0-13.2-9.57-19.8-29-19.8H278.92v40.59h40.26c19.8,0,30.69-6.6,30.69-20.13Zm9.24,86.46c0-12.87-9.9-20.79-31.35-20.79H278.92v42.57h49.5c19.8,0,30.69-7.59,30.69-21.12Z"/><path class="cls-3" d="M449.19,1888.83h65V1935h-65Zm1.32,62.37h62.38v178.53H450.51Z"/><path class="cls-3" d="M548.19,1951.2h62.7v25.08c11.55-14.85,28.05-29,53.46-29,38.28,0,60.72,24.75,60.72,65.67v116.82H662.7V2033c0-19.8-9.9-30.36-25.41-30.36s-26.4,10.56-26.4,30.36v96.69h-62.7Z"/><path class="cls-3" d="M748.83,2078.58v-.66c0-37.29,28-56.1,70-56.1,16.83,0,32.67,3,42.9,6.93v-3c0-18.81-11.55-29.37-35.64-29.37-18.81,0-33.33,3.63-49.5,9.9l-12.87-43.89c20.13-8.25,41.58-13.86,72.27-13.86,32,0,53.79,7.59,68,21.78,13.53,13.2,19.14,31.68,19.14,56.76v102.63H861.36v-18.81c-12.87,13.53-29,22.77-52.8,22.77C774.57,2133.69,748.83,2113.89,748.83,2078.58Zm113.52-13.53v-8.25a68.92,68.92,0,0,0-24.75-4.62c-18.48,0-28.71,8.58-28.71,22.11v.66c0,12.21,9.24,19.47,22.11,19.47C849.48,2094.42,862.35,2083.2,862.35,2065.05Z"/><path class="cls-3" d="M955.08,1951.2h62.7v25.08c11.55-14.85,28-29,53.46-29,38.28,0,60.72,24.75,60.72,65.67v116.82h-62.37V2033c0-19.8-9.9-30.36-25.41-30.36s-26.4,10.56-26.4,30.36v96.69h-62.7Z"/><path class="cls-3" d="M1157.36,2041.29v-.66c0-50.49,38.94-93.06,95.38-93.06,37,0,60.72,15.84,76.23,39.6l-42.24,31.68c-8.91-11.55-18.48-18.81-33.33-18.81-20.46,0-35.31,17.82-35.31,39.93v.66c0,22.77,14.52,40.59,35.64,40.59,15.51,0,24.75-6.93,34.32-18.48L1330,2093.1c-16.83,24.75-39.93,40.92-79.2,40.92C1196.63,2134,1157.36,2091.78,1157.36,2041.29Z"/><path class="cls-3" d="M1340.18,2041.29v-.66c0-51.81,37.29-93.39,90.09-93.39,61.38,0,89.76,45.21,89.76,97.68,0,4,0,8.58-.33,12.87H1400.24c5,19.8,18.81,29.37,38.61,29.37,15.51,0,26.73-5.28,39.6-18.15l34.65,28.71c-17.16,22.11-41.58,36.3-77.22,36.3C1379.78,2134,1340.18,2096.4,1340.18,2041.29Zm121.44-15.51c-2.31-19.8-14.19-32.34-31.35-32.34-16.83,0-27.39,12.54-31,32.34Z"/><path class="cls-3" d="M1649.71,1898.73h118.47c29,0,49.5,7.26,63,20.46,9.24,9.57,14.85,21.78,14.85,37.62v.66c0,26.73-14.85,42.57-35.64,51.48,28,9.24,45.87,25.08,45.87,56.43v.66c0,39.93-32,63.69-87.45,63.69H1649.71ZM1783,1970c0-13.2-9.57-19.8-29-19.8h-41.91v40.59h40.26c19.8,0,30.69-6.6,30.69-20.13Zm9.24,86.46c0-12.87-9.9-20.79-31.35-20.79h-48.84v42.57h49.5c19.8,0,30.69-7.59,30.69-21.12Z"/><path class="cls-3" d="M1885.66,1898.73h59.73l95,122.1v-122.1h63.36v231H2048L1949,2003v126.72h-63.36Z"/><path class="cls-3" d="M2144.71,1898.73h118.47c29,0,49.5,7.26,63,20.46,9.24,9.57,14.85,21.78,14.85,37.62v.66c0,26.73-14.85,42.57-35.64,51.48,28,9.24,45.87,25.08,45.87,56.43v.66c0,39.93-32,63.69-87.45,63.69H2144.71ZM2278,1970c0-13.2-9.57-19.8-29-19.8h-41.91v40.59h40.26c19.8,0,30.69-6.6,30.69-20.13Zm9.24,86.46c0-12.87-9.9-20.79-31.35-20.79h-48.84v42.57h49.5c19.8,0,30.69-7.59,30.69-21.12Z"/><path class="cls-4" d="M685.08,2265.4H800.36c28.25,0,48.16,7.06,61.32,19.91,9,9.31,14.45,21.19,14.45,36.6v.64c0,26-14.45,41.42-34.68,50.09,27.3,9,44.64,24.41,44.64,54.91v.64c0,38.85-31.15,62-85.09,62H685.08Zm129.72,69.35c0-12.84-9.31-19.26-28.25-19.26H745.77V2355h39.17c19.27,0,29.86-6.42,29.86-19.58Zm9,84.13c0-12.52-9.63-20.23-30.5-20.23H745.77v41.42h48.16c19.27,0,29.86-7.38,29.86-20.55Z"/><path class="cls-4" d="M914.67,2265.4h180.77v52.66H976.32v34.35H1084.2v49.13H976.32v35.64h120.73v53H914.67Z"/><path class="cls-4" d="M1129.16,2265.4h96.65c56.51,0,93.11,28.9,93.11,78.67v.64c0,53.3-40.78,81.23-96.32,81.23h-31.15v64.22h-62.29Zm92.15,111.74c21.84,0,35.64-11.56,35.64-29.54V2347c0-19.27-13.8-29.22-36-29.22h-29.54v59.4Z"/><path class="cls-4" d="M1338.19,2363h105.32v53.3H1338.19Z"/><path class="cls-4" d="M1466.94,2443.28l84.13-64.21c20.87-16.38,29.22-26.66,29.22-40.46,0-14.45-10-23.12-25.37-23.12-15.09,0-27,9-44.63,29.22l-42.06-35c24.08-30.83,48.16-48.16,91.51-48.16,48.8,0,82.84,29.22,82.84,71.6v.64c0,36-18.62,54.59-52,78.67l-38.53,27h92.8v50.73H1466.94Z"/><path class="cls-4" d="M1669.87,2378.42v-.64c0-63.58,40.46-116.88,104.36-116.88s103.71,52.66,103.71,116.24v.64c0,63.58-40.14,116.88-104.35,116.88C1709.69,2494.66,1669.87,2442,1669.87,2378.42Zm145.46,0v-.64c0-36-17-62-41.74-62s-41.1,25.37-41.1,61.33v.64c0,36.28,17,61.65,41.74,61.65C1799.27,2439.43,1815.33,2414.06,1815.33,2378.42Z"/></svg>