<svg id="Layer_1" data-name="Layer 1" xmlns="http://www.w3.org/2000/svg" viewBox="0 0 2496 2496"><defs><style>.cls-1{fill:#cddfff;}.cls-2{fill:#e55f5f;}.cls-3{fill:#f0b90b;stroke:#f0b90b;}</style></defs><path class="cls-1" d="M74.87,1898.73H193.34c29,0,49.5,7.26,63,20.46,9.24,9.57,14.85,21.78,14.85,37.62v.66c0,26.73-14.85,42.57-35.64,51.48,28,9.24,45.87,25.08,45.87,56.43v.66c0,39.93-32,63.69-87.45,63.69H74.87ZM208.19,1970c0-13.2-9.57-19.8-29-19.8H137.24v40.59H177.5c19.8,0,30.69-6.6,30.69-20.13Zm9.24,86.46c0-12.87-9.9-20.79-31.35-20.79H137.24v42.57h49.5c19.8,0,30.69-7.59,30.69-21.12Z"/><path class="cls-1" d="M307.52,1888.83h65V1935h-65Zm1.32,62.37h62.37v178.53H308.84Z"/><path class="cls-1" d="M406.51,1951.2h62.7v25.08c11.55-14.85,28.05-29,53.46-29,38.28,0,60.72,24.75,60.72,65.67v116.82H521V2033c0-19.8-9.9-30.36-25.41-30.36s-26.4,10.56-26.4,30.36v96.69h-62.7Z"/><path class="cls-1" d="M607.15,2078.58v-.66c0-37.29,28.05-56.1,70-56.1,16.83,0,32.67,3,42.9,6.93v-3c0-18.81-11.55-29.37-35.64-29.37-18.81,0-33.33,3.63-49.5,9.9L622,1962.42c20.13-8.25,41.58-13.86,72.27-13.86,32,0,53.79,7.59,68,21.78,13.53,13.2,19.14,31.68,19.14,56.76v102.63H719.68v-18.81c-12.87,13.53-29,22.77-52.8,22.77C632.89,2133.69,607.15,2113.89,607.15,2078.58Zm113.52-13.53v-8.25a68.92,68.92,0,0,0-24.75-4.62c-18.48,0-28.71,8.58-28.71,22.11v.66c0,12.21,9.24,19.47,22.11,19.47C707.8,2094.42,720.67,2083.2,720.67,2065.05Z"/><path class="cls-1" d="M813.4,1951.2h62.7v25.08c11.55-14.85,28-29,53.46-29,38.28,0,60.72,24.75,60.72,65.67v116.82H927.91V2033c0-19.8-9.9-30.36-25.41-30.36s-26.4,10.56-26.4,30.36v96.69H813.4Z"/><path class="cls-1" d="M1015.68,2041.29v-.66c0-50.49,39-93.06,95.38-93.06,37,0,60.72,15.84,76.23,39.6l-42.24,31.68c-8.91-11.55-18.48-18.81-33.33-18.81-20.46,0-35.31,17.82-35.31,39.93v.66c0,22.77,14.52,40.59,35.64,40.59,15.51,0,24.75-6.93,34.32-18.48l41.91,30.36c-16.83,24.75-39.93,40.92-79.2,40.92C1055,2134,1015.68,2091.78,1015.68,2041.29Z"/><path class="cls-1" d="M1198.5,2041.29v-.66c0-51.81,37.29-93.39,90.09-93.39,61.38,0,89.76,45.21,89.76,97.68,0,4,0,8.58-.33,12.87H1258.56c5,19.8,18.81,29.37,38.61,29.37,15.51,0,26.73-5.28,39.6-18.15l34.65,28.71c-17.16,22.11-41.58,36.3-77.22,36.3C1238.1,2134,1198.5,2096.4,1198.5,2041.29Zm121.44-15.51c-2.31-19.8-14.19-32.34-31.35-32.34-16.83,0-27.39,12.54-31,32.34Z"/><path class="cls-1" d="M1508,1898.73H1626.5c29,0,49.5,7.26,63,20.46,9.24,9.57,14.85,21.78,14.85,37.62v.66c0,26.73-14.85,42.57-35.64,51.48,28,9.24,45.87,25.08,45.87,56.43v.66c0,39.93-32,63.69-87.45,63.69H1508ZM1641.35,1970c0-13.2-9.57-19.8-29-19.8H1570.4v40.59h40.26c19.8,0,30.69-6.6,30.69-20.13Zm9.24,86.46c0-12.87-9.9-20.79-31.35-20.79H1570.4v42.57h49.5c19.8,0,30.69-7.59,30.69-21.12Z"/><path class="cls-1" d="M1741.34,2028.42V1898.73H1806V2027.1c0,33.33,16.5,49.17,42.57,49.17,26.4,0,42.9-14.85,42.9-47.52v-130h64.68v128c0,74.25-42.57,107.25-108.24,107.25C1782.59,2134,1741.34,2101,1741.34,2028.42Z"/><path class="cls-1" d="M1976.63,2095.41l35.64-42.57c23.43,18.48,48.51,27.72,74.91,27.72,17.49,0,26.73-5.61,26.73-15.84v-.66c0-9.9-7.59-14.52-39.27-22.44-48.84-11.22-87.12-24.75-87.12-72.27v-.66c0-43.23,34-73.92,89.43-73.92,39.6,0,70,10.56,95,30.69l-32,45.21c-21.12-15.51-43.89-22.77-64.68-22.77-15.51,0-23.1,5.94-23.1,14.85v.66c0,10.23,7.92,15.51,40.26,22.44,52.8,11.55,85.8,28.71,85.8,71.94v.66c0,47.19-37.29,75.24-93.39,75.24C2043.62,2133.69,2005.67,2120.82,1976.63,2095.41Z"/><path class="cls-1" d="M2209.28,1898.73h89.43c82.17,0,130,47.19,130,114.18v.66c0,67-48.51,116.16-131.34,116.16h-88.11Zm64,56.43V2073h26.07c38.61,0,64-21.12,64-58.41v-.66c0-37.29-25.41-58.74-64-58.74Z"/><path class="cls-2" d="M654.94,2265.4H770.21c28.26,0,48.17,7.06,61.33,19.91,9,9.31,14.45,21.19,14.45,36.6v.64c0,26-14.45,41.42-34.68,50.09,27.3,9,44.63,24.41,44.63,54.91v.64c0,38.85-31.14,62-85.08,62H654.94Zm129.72,69.35c0-12.84-9.31-19.26-28.25-19.26H715.63V2355H754.8c19.27,0,29.86-6.42,29.86-19.58Zm9,84.13c0-12.52-9.63-20.23-30.5-20.23H715.63v41.42h48.16c19.27,0,29.86-7.38,29.86-20.55Z"/><path class="cls-2" d="M884.52,2265.4H1065.3v52.66H946.17v34.35h107.89v49.13H946.17v35.64H1066.9v53H884.52Z"/><path class="cls-2" d="M1099,2265.4h96.64c56.52,0,93.12,28.9,93.12,78.67v.64c0,53.3-40.78,81.23-96.33,81.23h-31.14v64.22H1099Zm92.15,111.74c21.83,0,35.64-11.56,35.64-29.54V2347c0-19.27-13.81-29.22-36-29.22h-29.54v59.4Z"/><path class="cls-2" d="M1308.05,2363h105.31v53.3H1308.05Z"/><path class="cls-2" d="M1436.8,2443.28l84.13-64.22c20.87-16.37,29.22-26.65,29.22-40.45,0-14.45-10-23.12-25.37-23.12-15.09,0-27,9-44.63,29.22l-42.06-35c24.08-30.83,48.16-48.16,91.51-48.16,48.8,0,82.84,29.22,82.84,71.6v.64c0,36-18.62,54.59-52,78.67l-38.53,27h92.8v50.73H1436.8Z"/><path class="cls-2" d="M1639.73,2378.42v-.64c0-63.58,40.46-116.88,104.36-116.88s103.71,52.66,103.71,116.24v.64c0,63.58-40.14,116.88-104.36,116.88C1679.55,2494.66,1639.73,2442,1639.73,2378.42Zm145.46,0v-.64c0-36-17-62-41.75-62s-41.1,25.37-41.1,61.33v.64c0,36.28,17,61.65,41.75,61.65C1769.13,2439.43,1785.19,2414.06,1785.19,2378.42Z"/><g id="Layer_2" data-name="Layer 2"><g id="Layer_1-2" data-name="Layer 1-2"><path class="cls-3" d="M1248,0l210.3,215.37L928.75,744.92l-210.3-210.3Z"/><path class="cls-3" d="M1567.25,319.25l210.3,215.37-848.8,848.8-210.3-210.3Z"/><path class="cls-3" d="M609.5,638.5,819.8,853.87l-210.3,210.3L399.2,853.87Z"/><path class="cls-3" d="M1886.5,638.5l210.3,215.37L1248,1702.67l-210.3-210.3Z"/></g></g></svg>