<svg id="Layer_1" data-name="Layer 1" xmlns="http://www.w3.org/2000/svg" viewBox="0 0 2496 2496"><defs><style>.cls-1{fill:#cddfff;}.cls-2{fill:#e55f5f;}.cls-3{fill:#8247e5;}.cls-4{fill:#fff;}</style></defs><path class="cls-1" d="M721.09,1898.73h67.65l55.11,89.43L899,1898.73h67.65v231H902.92V1997.07l-59.07,90.42h-1.32l-58.74-90.09v132.33h-62.7Z"/><path class="cls-1" d="M1087.39,1897.08h61.71l98.34,232.65H1178.8l-16.5-41.58h-89.43l-16.5,41.58h-67Zm56.1,141.24L1117.75,1973l-26.07,65.34Z"/><path class="cls-1" d="M1296.61,1954.83h-69v-56.1h202.29v56.1h-69.3v174.9h-64Z"/><path class="cls-1" d="M1459.63,1898.73h64v231h-64Z"/><path class="cls-1" d="M1558.3,2014.89v-.66c0-67.32,51.48-120.12,121.44-120.12,46.86,0,77.88,19.8,98,47.85l-48.18,37.29c-13.2-16.17-28-27.06-50.49-27.06-32.34,0-55.11,27.72-55.11,61.38v.66c0,34.65,22.77,61.71,55.11,61.71,24.09,0,38-11.22,52.14-28l48.18,34.32c-22.11,30-51.15,52.14-102,52.14C1611.43,2134.35,1558.3,2083.86,1558.3,2014.89Z"/><path class="cls-2" d="M455.36,2265.4H552c56.51,0,93.11,28.9,93.11,78.67v.64c0,53.3-40.78,81.23-96.32,81.23H517.65v64.22H455.36Zm92.15,111.74c21.84,0,35.64-11.56,35.64-29.54V2347c0-19.27-13.8-29.22-36-29.22H517.65v59.4Z"/><path class="cls-2" d="M664.07,2378.42v-.64c0-64.54,52-116.88,121.37-116.88s120.73,52,120.73,116.24v.64c0,64.54-52,116.88-121.37,116.88S664.07,2442.64,664.07,2378.42Zm178.2,0v-.64c0-32.75-23.12-60.69-57.47-60.69s-57.16,27.62-57.16,60v.64c0,32.11,23.44,60.69,57.8,60.69C819.48,2438.47,842.27,2410.85,842.27,2378.42Z"/><path class="cls-2" d="M938.28,2265.4h62.29v170.18h108.85v54.58H938.28Z"/><path class="cls-2" d="M1159.83,2406,1074.1,2265.4h71l46.23,81.88,46.56-81.88h69.68l-85.41,139.67v85.09h-62.3Z"/><path class="cls-2" d="M1298.55,2378.42v-.64c0-65.5,51.38-116.88,120.73-116.88,39.82,0,67.11,11.88,91.19,32.43l-36.6,44.31c-16.38-13.8-31.47-21.19-54.27-21.19-32.11,0-57.47,27-57.47,61.33v.64c0,36.61,25.36,62.62,61,62.62,15.41,0,27-3.22,36-9.32v-27.29h-44v-45.59h103.07v100.82c-24.08,20.23-56.19,35-97.61,35C1350.25,2494.66,1298.55,2446.82,1298.55,2378.42Z"/><path class="cls-2" d="M1545.47,2378.42v-.64c0-64.54,52-116.88,121.38-116.88s120.73,52,120.73,116.24v.64c0,64.54-52,116.88-121.38,116.88S1545.47,2442.64,1545.47,2378.42Zm178.21,0v-.64c0-32.75-23.12-60.69-57.48-60.69s-57.15,27.62-57.15,60v.64c0,32.11,23.44,60.69,57.8,60.69C1700.88,2438.47,1723.68,2410.85,1723.68,2378.42Z"/><path class="cls-2" d="M1819.69,2265.4h58.11l92.48,118.8V2265.4h61.65v224.76h-54.27l-96.32-123.3v123.3h-61.65Z"/><path class="cls-3" d="M392.47,851.49C392.47,381.4,773.55.31,1243.64.31s851.18,381.09,851.18,851.18-381.08,851.18-851.18,851.18S392.47,1321.58,392.47,851.49Z"/><path class="cls-4" d="M1523,703.88c-19.85-11.23-45.38-11.23-68.07,0l-158.84,92.66-107.79,59-156,92.66c-19.86,11.23-45.38,11.23-68.08,0l-122-73a68.32,68.32,0,0,1-34-59V675.8c0-22.46,11.35-44.93,34-59l122-70.19c19.86-11.23,45.39-11.23,68.08,0l122,73a68.33,68.33,0,0,1,34,59v92.66l107.79-61.78V614c0-22.47-11.35-44.93-34-59l-226.91-132c-19.86-11.23-45.39-11.23-68.08,0L734.5,557.87c-22.69,11.23-34,33.69-34,56.16V878c0,22.46,11.34,44.92,34,59l229.75,132c19.86,11.23,45.39,11.23,68.08,0l156-89.85,107.79-61.77,156-89.86c19.85-11.23,45.38-11.23,68.07,0l122,70.2a68.32,68.32,0,0,1,34,59V1097c0,22.46-11.35,44.93-34,59L1523,1226.14c-19.85,11.23-45.38,11.23-68.07,0L1333,1156a68.33,68.33,0,0,1-34-59v-89.85l-107.78,61.77v92.66c0,22.47,11.34,44.93,34,59l229.75,132c19.85,11.23,45.38,11.23,68.07,0l229.75-132a68.32,68.32,0,0,0,34-59V894.81c0-22.46-11.35-44.92-34-59Z"/></svg>