<svg width="32" height="32" viewBox="0 0 32 32" fill="none" xmlns="http://www.w3.org/2000/svg">
<g clip-path="url(#clip0_8405_18071)">
<path d="M25 0H7C3.134 0 0 3.134 0 7V25C0 28.866 3.134 32 7 32H25C28.866 32 32 28.866 32 25V7C32 3.134 28.866 0 25 0Z" fill="#FF4B55"/>
<path d="M7.12641 5.45027L7.92153 7.83439L10.4347 7.85389C10.76 7.85639 10.895 8.27164 10.6332 8.46495L8.61147 9.95789L9.36954 12.3541C9.46766 12.6643 9.11447 12.921 8.84972 12.7317L6.8051 11.2703L4.76047 12.7317C4.49578 12.9209 4.14253 12.6643 4.24066 12.3541L4.99872 9.95789L2.97697 8.46495C2.71522 8.27164 2.85015 7.85645 3.17553 7.85389L5.68866 7.83439L6.48378 5.45027C6.58685 5.14158 7.02347 5.14158 7.12641 5.45027Z" fill="#FFE15A"/>
<path d="M16.2522 6.03771L16.8223 6.81521L17.7425 6.52746C17.8616 6.49021 17.9596 6.62602 17.8867 6.72734L17.3234 7.50984L17.8814 8.29609C17.9537 8.3979 17.8547 8.53302 17.7358 8.49502L16.8176 8.20115L16.2423 8.97477C16.1678 9.07496 16.0087 9.02265 16.0082 8.89784L16.0039 7.93371L15.0904 7.62565C14.972 7.58577 14.9727 7.41827 15.0912 7.37915L16.0068 7.07721L16.0175 6.11315C16.0189 5.98827 16.1783 5.93702 16.2522 6.03771Z" fill="#FFE15A"/>
<path d="M12.7811 3.71881L13.7396 3.823L14.1484 2.94987C14.2014 2.83681 14.3677 2.85618 14.3932 2.97844L14.5904 3.92219L15.5471 4.04125C15.671 4.05669 15.7039 4.22087 15.5956 4.28287L14.7589 4.76194L14.9414 5.70863C14.965 5.83119 14.819 5.91331 14.7266 5.82944L14.0124 5.18175L13.1684 5.64781C13.0591 5.70813 12.9359 5.59469 12.9871 5.48081L13.3823 4.60144L12.6782 3.94275C12.5871 3.85756 12.657 3.70531 12.7811 3.71881Z" fill="#FFE15A"/>
<path d="M14.2963 13.0611L13.7261 13.8386L12.806 13.5509C12.6868 13.5136 12.5888 13.6495 12.6618 13.7508L13.225 14.5333L12.667 15.3195C12.5948 15.4213 12.6936 15.5565 12.8126 15.5185L13.7308 15.2246L14.3061 15.9982C14.3806 16.0984 14.5398 16.0461 14.5403 15.9213L14.5445 14.9572L15.4581 14.6491C15.5763 14.6092 15.5758 14.4417 15.4573 14.4027L14.5416 14.1007L14.531 13.1366C14.5296 13.0117 14.3701 12.9605 14.2963 13.0611Z" fill="#FFE15A"/>
<path d="M17.7677 10.8829L16.8092 10.9871L16.4003 10.1139C16.3474 10.0009 16.181 10.0203 16.1555 10.1424L15.9584 11.0862L15.0017 11.2053C14.8778 11.2207 14.8448 11.3849 14.9532 11.4469L15.7898 11.9259L15.6074 12.8726C15.5838 12.9952 15.7298 13.0773 15.8222 12.9934L16.5364 12.3458L17.3804 12.8118C17.4897 12.8721 17.6128 12.7587 17.5617 12.6448L17.1665 11.7654L17.8705 11.1068C17.9617 11.0216 17.8918 10.8694 17.7677 10.8829Z" fill="#FFE15A"/>
</g>
<defs>
<clipPath id="clip0_8405_18071">
<rect width="32" height="32" fill="white"/>
</clipPath>
</defs>
</svg>
