<svg id="Layer_1" data-name="Layer 1" xmlns="http://www.w3.org/2000/svg" viewBox="0 0 2496 2496"><defs><style>.cls-1{fill:#cddfff;}.cls-2{fill:#08c;}.cls-3{fill:#fff;fill-rule:evenodd;}</style></defs><path class="cls-1" d="M954.31,2085.53h-69v-56.1h202.29v56.1h-69.3v174.9h-64Z"/><path class="cls-1" d="M1098.18,2145.59v-.66c0-66.33,53.47-120.12,124.75-120.12S1347,2078.27,1347,2144.27v.66c0,66.33-53.46,120.12-124.74,120.12S1098.18,2211.59,1098.18,2145.59Zm183.16,0v-.66c0-33.66-23.76-62.37-59.07-62.37s-58.74,28.38-58.74,61.71v.66c0,33,24.09,62.37,59.4,62.37C1257.91,2207.3,1281.34,2178.92,1281.34,2145.59Z"/><path class="cls-1" d="M1380,2029.43h59.73l95,122.1v-122.1h63.36v231h-55.77l-99-126.72v126.72H1380Z"/><circle class="cls-2" cx="1248" cy="851.33" r="851.33"/><path class="cls-3" d="M1012.32,559.75h475c16.81,0,33.6,2.47,51.15,10.65,21,9.8,32.2,25.26,40,36.69.61.89,1.18,1.81,1.71,2.75a106.57,106.57,0,0,1,13.92,53c0,18-4.29,37.72-13.92,54.86-.09.17-.19.33-.28.49l-300.13,515.56a36.82,36.82,0,0,1-63.78-.23L921.43,719.09l-.26-.42c-6.74-11.11-17.16-28.3-19-50.47a100.23,100.23,0,0,1,57.38-99.08C979.45,559.82,999.61,559.75,1012.32,559.75Zm198.86,73.65H1012.32c-13.07,0-18.08.8-21.59,2.44a26.34,26.34,0,0,0-11.64,10.7,26.93,26.93,0,0,0-3.51,15.63c.26,3.13,1.54,6.71,9.07,19.13l.46.78,226.07,394.76Zm73.65,0v445.39l231.3-397.33a40.25,40.25,0,0,0,4.38-18.6,32.61,32.61,0,0,0-3.81-15.69,59,59,0,0,0-5.85-7.52,10.73,10.73,0,0,0-3.44-2.5c-5.47-2.55-11.07-3.75-20-3.75Z"/></svg>