<svg id="Layer_1" data-name="Layer 1" xmlns="http://www.w3.org/2000/svg" viewBox="0 0 2496 2496"><defs><style>.cls-1{fill:#26a17b;}.cls-2{fill:#fff;}.cls-3{fill:#cddfff;}.cls-4{fill:#e55f5f;}</style></defs><path class="cls-1" d="M1250.05,1702.67c467.55-1.13,845.66-381.08,844.53-848.63S1713.51,8.38,1246,9.51C779.2,10.64,401.42,389.33,401.42,856.08c.56,468.12,380.51,847.15,848.63,846.59Z"/><path class="cls-2" d="M1340.47,934.23h0c-5.8,0-36.17,2-102.37,2-53.91,0-91.79,0-105.09-2h0c-207.47-8.88-362-45.05-362-88S925.88,767,1133,757.81V897c13.3,0,52.2,3.41,106.12,3.41,64.15,0,96.57-2.73,102.37-3.41V758.15c205.76,9.22,359.65,45,359.65,88s-154.24,79.16-361,88.38Zm0-190.75V617.91h288.68V426.14H844.33V617.91h288.34V743.48c-234.43,10.92-409.48,57-409.48,112.6s176.42,102.37,409.48,112.61v403H1341.5v-403c234.08-10.58,409.47-57,409.47-112.61S1574.89,753.72,1341.5,743.82"/><path class="cls-3" d="M629.61,1954.83h-69v-56.1h202.3v56.1h-69.3v174.9h-64Z"/><path class="cls-3" d="M791,1898.73H976.77v54.12H854.34v35.31H965.22v50.49H854.34v36.63H978.42v54.45H791Z"/><path class="cls-3" d="M1067.85,1954.83h-69v-56.1h202.29v56.1h-69.3v174.9h-64Z"/><path class="cls-3" d="M1229.22,1898.73h64v86.46h82.17v-86.46h64v231h-64V2042h-82.17v87.78h-64Z"/><path class="cls-3" d="M1480.34,1898.73h185.79v54.12H1543.7v35.31h110.88v50.49H1543.7v36.63h124.08v54.45H1480.34Z"/><path class="cls-3" d="M1700.78,1898.73H1810c35.64,0,59.73,9.24,75.24,24.75,13.53,13.53,20.46,31.68,20.46,53.79v.66c0,35.64-18.48,59.07-47.52,71.28l55.11,80.52h-73.59l-46.53-70H1764.8v70h-64Zm106.59,110.88c21.45,0,34.32-10.56,34.32-27.39v-.66c0-18.48-13.53-27.72-34.65-27.72H1764.8v55.77Z"/><path class="cls-4" d="M446.87,2265.4h96.65c56.51,0,93.12,28.9,93.12,78.67v.64c0,53.3-40.78,81.23-96.33,81.23H509.16v64.22H446.87ZM539,2377.14c21.83,0,35.64-11.56,35.64-29.54V2347c0-19.27-13.81-29.22-36-29.22H509.16v59.4Z"/><path class="cls-4" d="M655.58,2378.42v-.64c0-64.54,52-116.88,121.37-116.88s120.73,52,120.73,116.24v.64c0,64.54-52,116.88-121.37,116.88S655.58,2442.64,655.58,2378.42Zm178.21,0v-.64c0-32.75-23.12-60.69-57.48-60.69s-57.15,27.62-57.15,60v.64c0,32.11,23.44,60.69,57.79,60.69C811,2438.47,833.79,2410.85,833.79,2378.42Z"/><path class="cls-4" d="M929.79,2265.4h62.3v170.18h108.85v54.58H929.79Z"/><path class="cls-4" d="M1151.35,2406l-85.73-140.64h71l46.24,81.88,46.55-81.88h69.68l-85.41,139.67v85.09h-62.29Z"/><path class="cls-4" d="M1290.07,2378.42v-.64c0-65.5,51.37-116.88,120.73-116.88,39.81,0,67.1,11.88,91.19,32.43l-36.61,44.31c-16.37-13.8-31.47-21.19-54.26-21.19-32.11,0-57.48,27-57.48,61.33v.64c0,36.61,25.37,62.62,61,62.62,15.41,0,27-3.22,36-9.32v-27.29h-44v-45.59h103.07v100.82c-24.08,20.23-56.19,35-97.61,35C1341.76,2494.66,1290.07,2446.82,1290.07,2378.42Z"/><path class="cls-4" d="M1537,2378.42v-.64c0-64.54,52-116.88,121.37-116.88s120.73,52,120.73,116.24v.64c0,64.54-52,116.88-121.37,116.88S1537,2442.64,1537,2378.42Zm178.2,0v-.64c0-32.75-23.12-60.69-57.47-60.69s-57.16,27.62-57.16,60v.64c0,32.11,23.44,60.69,57.8,60.69C1692.4,2438.47,1715.19,2410.85,1715.19,2378.42Z"/><path class="cls-4" d="M1811.2,2265.4h58.12l92.47,118.8V2265.4h61.65v224.76h-54.26l-96.33-123.3v123.3H1811.2Z"/></svg>