<svg id="Layer_1" data-name="Layer 1" xmlns="http://www.w3.org/2000/svg" viewBox="0 0 2496 2496"><defs><style>.cls-1{fill:#cddfff;}.cls-2{fill:#cbc6c6;}.cls-3{fill:#fff;}</style></defs><path class="cls-1" d="M456.5,2029.43h64v174.9H632.39v56.1H456.5Z"/><path class="cls-1" d="M661.76,2029.43h64v231h-64Z"/><path class="cls-1" d="M824.45,2085.53h-69v-56.1H957.77v56.1h-69.3v174.9h-64Z"/><path class="cls-1" d="M985.81,2029.43H1171.6v54.12H1049.17v35.31h110.88v50.49H1049.17V2206h124.08v54.45H985.81Z"/><path class="cls-1" d="M1197,2145.59v-.66c0-67.32,51.48-120.12,121.44-120.12,46.86,0,77.88,19.8,98,47.85L1368.29,2110c-13.2-16.17-28-27.06-50.49-27.06-32.34,0-55.11,27.72-55.11,61.38v.66c0,34.65,22.77,61.71,55.11,61.71,24.09,0,38-11.22,52.14-28l48.18,34.32c-22.11,30-51.15,52.14-102,52.14C1250.15,2265.05,1197,2214.56,1197,2145.59Z"/><path class="cls-1" d="M1431.65,2145.59v-.66c0-66.33,53.46-120.12,124.74-120.12s124.08,53.46,124.08,119.46v.66c0,66.33-53.46,120.12-124.74,120.12S1431.65,2211.59,1431.65,2145.59Zm183.15,0v-.66c0-33.66-23.76-62.37-59.07-62.37s-58.74,28.38-58.74,61.71v.66c0,33,24.09,62.37,59.4,62.37C1591.37,2207.3,1614.8,2178.92,1614.8,2145.59Z"/><path class="cls-1" d="M1715.11,2029.43h64v231h-64Z"/><path class="cls-1" d="M1821.37,2029.43h59.73l95,122.1v-122.1h63.36v231h-55.77l-99-126.72v126.72h-63.36Z"/><path class="cls-2" d="M396.82,851.49C396.82,381.4,777.91.31,1248,.31s851.18,381.09,851.18,851.18S1718.09,1702.67,1248,1702.67,396.82,1321.58,396.82,851.49Z"/><path class="cls-3" d="M1032.38,975.84l-55.21,21.43,26.62-106.74,55.87-22.44L1140.17,542h198.44l-58.77,239.72,54.55-22.09L1308.09,866l-55.22,22.09-32.8,134.76h298.76L1485.05,1161H986.92Z"/></svg>