<svg width="115" height="129" viewBox="0 0 115 129" fill="none" xmlns="http://www.w3.org/2000/svg">
<path d="M57.5028 129C51.4523 125.708 37.0937 121.242 25.6352 114.063C3.71335 100.327 1.16007 92.163 0.125105 90.6741C0.113732 83.0133 0.028433 31.201 0 13.3672L57.4972 0L115 13.3672C114.972 32.3596 114.886 83.1107 114.875 90.6903C113.829 92.19 111.241 100.36 89.3648 114.068C77.912 121.242 63.5534 125.708 57.5028 129Z" fill="#8E949E" fill-opacity="0.05"/>
<path d="M57.5024 120C52.3463 117.187 40.1102 113.369 30.3456 107.234C11.6644 95.4949 8.88193 89.2725 7.99996 88C7.99027 81.4526 8.02423 36.2417 8 21L57.5 10L107 21C106.976 37.2319 107.01 81.5221 107 88C106.108 89.2817 103.297 95.5226 84.6544 107.238C74.8946 113.369 62.6585 117.187 57.5024 120Z" fill="url(#paint0_linear_8_14)"/>
<path d="M57.5 113C55.9008 112.287 53.9578 111.305 52 110.5C46.4611 108.223 39.7279 105.6 34 102C24.3856 95.957 17.8446 89.7937 15 85C14.9903 77.5365 15.0001 27 15.0001 27L57.5035 17L100 27V85C97.1312 89.8076 90.5902 95.9755 81 102C75.2721 105.6 68.5389 108.223 63 110.5C61.0422 111.305 59.0992 112.287 57.5 113Z" fill="url(#paint1_radial_8_14)"/>
<path d="M100 82C97.1312 86.8076 90.6208 92.2364 81.0307 98.2609C75.3027 101.861 68.4118 104.693 62.8729 106.969C60.9102 107.774 59.1027 108.519 57.4987 109.232C55.8995 108.519 54.0871 107.774 52.1294 106.969C46.5904 104.693 39.6994 101.861 33.9715 98.2609C24.3571 92.2179 17.8446 86.7302 15 81.9365C15 81.9365 15 83.2323 15 85C17.8446 89.7937 24.3571 95.9616 33.9715 102C39.6994 105.6 46.4659 108.223 52 110.5C53.9626 111.305 55.9008 112.287 57.5 113C59.0992 112.287 61.0374 111.305 63 110.5C68.5389 108.223 75.2721 105.6 81 102C90.5902 95.9709 97.1312 89.8076 100 85V82Z" fill="#C8D1FF"/>
<path d="M57.4983 19.1933L100 29V26L57.4983 16L15 26C15 26 14.9952 26.8993 15 29L57.4983 19.1933Z" fill="#3C4A72"/>
<defs>
<linearGradient id="paint0_linear_8_14" x1="57.5" y1="10" x2="57.5" y2="120" gradientUnits="userSpaceOnUse">
<stop stop-color="#D3E0FF"/>
<stop offset="0.145833" stop-color="#C3D6F2"/>
<stop offset="0.239583" stop-color="#CDDAED"/>
<stop offset="0.333333" stop-color="#CDE6FD"/>
<stop offset="0.473958" stop-color="#ADB5CA"/>
<stop offset="0.6875" stop-color="#CDD3EA"/>
<stop offset="0.854167" stop-color="#728BBB"/>
<stop offset="1" stop-color="#717A9D"/>
</linearGradient>
<radialGradient id="paint1_radial_8_14" cx="0" cy="0" r="1" gradientUnits="userSpaceOnUse" gradientTransform="translate(57.4979 38.9765) rotate(90) scale(74.0235 66.5192)">
<stop stop-color="#6675A0"/>
<stop offset="0.317987" stop-color="#586791"/>
<stop offset="1" stop-color="#2B395F"/>
</radialGradient>
</defs>
</svg>
