<svg width="16" height="16" viewBox="0 0 16 16" fill="none" xmlns="http://www.w3.org/2000/svg">
<path d="M14.2222 1.77783V1.27783H14.7222V1.77783H14.2222ZM7.46467 9.2425C7.26941 9.43776 6.95283 9.43776 6.75756 9.2425C6.5623 9.04724 6.5623 8.73065 6.75756 8.53539L7.46467 9.2425ZM13.7222 7.46672V1.77783H14.7222V7.46672H13.7222ZM14.2222 2.27783H8.53334V1.27783H14.2222V2.27783ZM14.5758 2.13139L7.46467 9.2425L6.75756 8.53539L13.8687 1.42428L14.5758 2.13139Z" fill="#8D9BD2"/>
<path d="M13.3333 9.99996V9.99996C13.3333 11.2461 13.3333 11.8692 13.0654 12.3333C12.8899 12.6373 12.6374 12.8898 12.3333 13.0653C11.8692 13.3333 11.2462 13.3333 10 13.3333H6.66668C4.78106 13.3333 3.83825 13.3333 3.25246 12.7475C2.66668 12.1617 2.66668 11.2189 2.66668 9.33329V5.99996C2.66668 4.75381 2.66668 4.13073 2.93463 3.66663C3.11016 3.36259 3.36264 3.11011 3.66668 2.93458C4.13078 2.66663 4.75386 2.66663 6.00001 2.66663V2.66663" stroke="#8D9BD2" stroke-linecap="round"/>
</svg>
