<svg width="32" height="32" viewBox="0 0 32 32" fill="none" xmlns="http://www.w3.org/2000/svg">
<g clip-path="url(#clip0_8405_19133)">
<path d="M25.4937 0.015625H6.50631C2.87075 0.269 0 3.29806 0 6.99806V10.6706H32V6.99806C32 3.29806 29.1292 0.269 25.4937 0.015625Z" fill="#F5F5F5"/>
<path d="M0 25.0006C0 28.7006 2.87069 31.7297 6.50625 31.9831H25.4937C29.1293 31.7297 32 28.7006 32 25.0006V21.3281H0V25.0006Z" fill="#FF4B55"/>
<path d="M32 10.6719H0V21.3269H32V10.6719Z" fill="#41479B"/>
<path d="M10.2428 23.4655C10.0141 23.3342 4.63672 20.2065 4.63672 15.3991V8.82812H16.2325V15.3991C16.2325 20.2065 10.8552 23.3342 10.6264 23.4655L10.4347 23.575L10.2428 23.4655Z" fill="#FF4B55"/>
<path d="M13.4715 14.2361L11.6492 14.4761H11.0418V13.3887H11.4062L12.864 13.6287L12.6666 12.7812L12.864 11.9339L11.4062 12.1739H11.0418V11.8066L11.2818 9.98438L10.4345 10.2311L9.58703 9.98438L9.82703 11.8066V12.1739H9.46253L8.00484 11.9339L8.20221 12.7812L8.00484 13.6287L9.46253 13.3887H9.82703V14.4761H9.21965L7.39746 14.2361L7.64421 15.0836L7.39746 15.9309L9.21965 15.6909H9.82703V18.4879H11.0418V15.6909H11.6492L13.4715 15.9309L13.2247 15.0836L13.4715 14.2361Z" fill="#F5F5F5"/>
<path d="M10.4346 17.332C9.63619 17.332 8.95131 17.8164 8.65663 18.5072C8.60475 18.5029 8.55494 18.4916 8.50194 18.4916C7.47288 18.4916 6.63963 19.2982 6.58057 20.3123C8.14594 22.2393 10.1065 23.3875 10.2428 23.4658L10.4346 23.5753L10.6263 23.4658C10.7626 23.3875 12.7232 22.2393 14.2886 20.3123C14.2296 19.2981 13.3962 18.4916 12.3672 18.4916C12.3142 18.4916 12.2644 18.5029 12.2125 18.5072C11.9179 17.8164 11.2331 17.332 10.4346 17.332Z" fill="#41479B"/>
<path d="M15.8458 9.21447C15.8458 9.21447 15.8458 13.8528 15.8458 15.3989C15.8458 20.0372 10.4344 23.1294 10.4344 23.1294C10.4344 23.1294 5.02306 20.0372 5.02306 15.3989C5.02306 13.8528 5.02306 9.21447 5.02306 9.21447H15.8458ZM16.6189 8.44141H15.8458H5.02306H4.25V9.21447V15.3989C4.25 20.428 9.81406 23.6653 10.0509 23.8007L10.4344 24.0198L10.818 23.8007C11.0548 23.6652 16.6189 20.428 16.6189 15.3989V9.21447V8.44141Z" fill="#F5F5F5"/>
</g>
<defs>
<clipPath id="clip0_8405_19133">
<rect width="32" height="32" fill="white"/>
</clipPath>
</defs>
</svg>
