<svg width="93" height="21" viewBox="0 0 93 21" fill="none" xmlns="http://www.w3.org/2000/svg">
<path d="M16.772 13.1747V13.8567C16.772 16.6535 16.4996 17.7214 15.6022 18.673C15.0307 19.2969 13.9516 19.8044 12.8085 19.9789C12.0874 20.1269 10.4635 20.185 8.45506 20.185C5.45304 20.185 4.27787 20.0053 3.08134 19.3814C1.39871 18.5197 0.618825 17.0605 0.4105 14.359C0.292983 13.1694 0.228882 10.8538 0.228882 8.88713C0.228882 4.2506 0.528016 2.97119 1.91151 1.69178C3.35376 0.322495 4.82272 0 9.72104 0C12.4827 0 13.4442 0.148031 14.4965 0.771874C15.6076 1.39572 16.2966 2.67513 16.4462 4.27703C16.505 4.90087 16.537 5.26038 16.5637 6.50806H13.4976C13.4388 2.97119 13.0489 2.61168 9.41122 2.61168C4.0375 2.61168 3.43389 3.0875 3.43389 7.24822C3.43389 13.5184 3.52469 14.8877 3.94669 15.9292C4.4862 17.235 5.38894 17.5628 8.51382 17.5628C13.1077 17.5628 13.738 17.1451 13.738 14.1158C13.738 13.8462 13.738 13.6082 13.7059 13.1642H16.772V13.1747V13.1747Z" fill="#F0F5FD"/>
<path d="M30.7085 5.77316C30.7085 4.4356 30.6177 3.95978 30.3186 3.48397C29.8378 2.73853 28.9671 2.50062 26.5634 2.50062C22.4182 2.50062 21.6384 2.97644 21.6384 5.59341C21.6384 7.16888 22.0283 7.94075 23.0219 8.26853C23.5934 8.47472 23.8605 8.50644 26.9854 8.65447C30.5269 8.83422 31.6379 9.04041 32.5994 9.7224C33.7105 10.5524 34.1325 11.7737 34.1325 14.1528C34.1325 17.0341 33.6197 18.4351 32.3003 19.2651C31.1305 19.9841 29.6882 20.1903 25.8422 20.1903C22.6907 20.1903 21.5796 20.0105 20.3457 19.2968C19.5925 18.8527 18.9355 17.9011 18.7218 16.8913C18.5402 15.9978 18.5135 15.4322 18.4814 13.7985H21.4835C21.4835 15.5802 21.5743 16.0296 21.9322 16.6534C22.445 17.5469 22.9845 17.6632 26.3497 17.6632C30.5856 17.6632 31.0931 17.2773 31.0931 14.1263C31.0931 12.6407 30.7619 11.9587 29.9233 11.6309C29.3838 11.4248 29.3838 11.4248 25.901 11.2133C22.2687 11.0335 21.8467 10.9437 20.8264 10.4678C19.2346 9.69597 18.5723 8.30025 18.5723 5.68328C18.5723 3.39409 19.053 1.94022 20.1053 1.16306C21.3072 0.269589 22.8082 0.00524902 26.3818 0.00524902C30.3453 0.00524902 31.9104 0.422907 32.8665 1.76047C33.4381 2.5905 33.7052 3.66372 33.7052 5.18104V5.77316H30.7085Z" fill="#F0F5FD"/>
<path d="M42.0008 8.42187H50.1415V12.7941H42.0008V20.0158H36.6271V0.190308H50.8305V4.5625H42.0008V8.42187Z" fill="#F0F5FD"/>
<path d="M57.7694 16.5953L56.8079 20.0158H51.2205L57.2298 0.190308H65.3706L71.4654 20.0158H66.0009L64.9486 16.5953H57.7694ZM61.3696 4.13955L58.9071 12.7571H63.8909L61.3696 4.13955Z" fill="#F0F5FD"/>
<path d="M78.2495 20.0106H72.8757V0.185059H78.2495V20.0106Z" fill="#F0F5FD"/>
<path d="M86.8709 15.4639H95.2787V20.0106H81.4918V0.185059H86.8655V15.4639H86.8709Z" fill="#F0F5FD"/>
</svg>
