<svg width="32" height="32" viewBox="0 0 32 32" fill="none" xmlns="http://www.w3.org/2000/svg">
<g clip-path="url(#clip0_8405_21447)">
<path d="M25 0H7C3.134 0 0 3.134 0 7V25C0 28.866 3.134 32 7 32H25C28.866 32 32 28.866 32 25V7C32 3.134 28.866 0 25 0Z" fill="#FF4B55"/>
<path d="M16.2852 9.16266L17.9204 14.0657L23.0888 14.1058C23.3778 14.108 23.4977 14.4768 23.2652 14.6485L19.1074 17.7188L20.6664 22.6466C20.7536 22.9222 20.4398 23.1501 20.2047 22.9821L15.9998 19.9767L11.795 22.9822C11.5599 23.1502 11.2461 22.9223 11.3333 22.6467L12.8923 17.7189L8.73448 14.6486C8.50198 14.4769 8.62185 14.1081 8.91085 14.1058L14.0793 14.0658L15.7145 9.16273C15.806 8.88848 16.1937 8.88848 16.2852 9.16266Z" fill="#FFE15A"/>
</g>
<defs>
<clipPath id="clip0_8405_21447">
<rect width="32" height="32" fill="white"/>
</clipPath>
</defs>
</svg>
