<svg xmlns="http://www.w3.org/2000/svg" xmlns:xlink="http://www.w3.org/1999/xlink" width="41" height="32" viewBox="0 0 41 32">
  <defs>
    <linearGradient id="visa-card-d" x1="0%" x2="100.088%" y1="49.909%" y2="49.909%">
      <stop offset="0%" stop-color="#363C61"/>
      <stop offset="100%" stop-color="#4D64A9"/>
    </linearGradient>
    <linearGradient id="visa-card-c" x1="50%" x2="50%" y1="0%" y2="100%">
      <stop offset="0%" stop-color="#F9F9F9"/>
      <stop offset="100%" stop-color="#F5F5F5"/>
    </linearGradient>
    <path id="visa-card-b" d="M30.9435897,26 L4.05685897,26 C1.81641026,26 0,24.1205714 0,21.8028571 L0,4.19714286 C0,1.87942857 1.81641026,0 4.05685897,0 L30.9435897,0 C33.1840385,0 35,1.87942857 35,4.19714286 L35,21.8028571 C35,24.1205714 33.1840385,26 30.9435897,26 Z"/>
    <filter id="visa-card-a" width="125.7%" height="134.6%" x="-12.9%" y="-17.3%" filterUnits="objectBoundingBox">
      <feOffset in="SourceAlpha" result="shadowOffsetOuter1"/>
      <feGaussianBlur in="shadowOffsetOuter1" result="shadowBlurOuter1" stdDeviation="1.5"/>
      <feColorMatrix in="shadowBlurOuter1" values="0 0 0 0 0   0 0 0 0 0   0 0 0 0 0  0 0 0 0.14 0"/>
    </filter>
  </defs>
  <g fill="none" fill-rule="evenodd" transform="translate(3 3)">
    <use fill="#000" filter="url(#visa-card-a)" xlink:href="#visa-card-b"/>
    <use fill="url(#visa-card-c)" xlink:href="#visa-card-b"/>
    <path fill="url(#visa-card-d)" fill-rule="nonzero" d="M13.9381986,8.0369488 L9.81459566,18.1147335 L7.1268902,18.1147335 L5.10190664,10.2169279 C5.07804198,9.82491761 4.85091017,9.47424155 4.50361604,9.29320794 C3.71147025,8.88003813 2.87018309,8.56964159 2,8.36948798 L2.05522682,8 L6.3721236,8 C6.96594336,8.03314464 7.45454774,8.48101583 7.54109139,9.07151515 L8.60880999,14.7339185 L11.2504931,8 L13.9381986,8.0369488 Z M24.4312952,14.8078161 C24.4312952,12.212163 20.8507561,12.0366562 20.8783695,10.9097179 C20.8783695,10.5587043 21.2189349,10.1799791 21.9552926,10.0876071 C22.8144001,10.0062087 23.6794559,10.1594084 24.4589086,10.5309927 L24.9007232,8.44338558 C24.1411547,8.15813017 23.3369789,8.01111213 22.5259698,8.0092372 C20.0223537,8.0092372 18.2550953,9.34863114 18.2366864,11.2607315 C18.2366864,12.674023 19.4976989,13.4684222 20.4549638,13.9395193 C21.4122288,14.4106165 21.7712032,14.7339185 21.7712032,15.1588297 C21.7712032,15.823908 20.9796187,16.0825496 20.2524655,16.0825496 C19.3405118,16.1218449 18.4338587,15.9245988 17.6199869,15.5098433 L17.1597633,17.671348 C18.0603182,18.0236074 19.0190012,18.2022368 19.9855358,18.1978683 C22.6548323,18.1978683 24.3944773,16.8769488 24.4036818,14.8262905 L24.4312952,14.8078161 Z M31.0309007,18.1332079 L33.3780408,18.1332079 L31.3530572,8.0369488 L29.1900066,8.0369488 C28.6988279,8.08348037 28.278929,8.41122965 28.1130835,8.87753396 L24.3024326,18.1147335 L26.9625247,18.1147335 L27.496384,16.4335632 L30.7547666,16.4335632 L31.0309007,18.1332079 Z M28.2235371,14.3367189 L29.5581854,10.6418391 L30.3313609,14.3367189 L28.2235371,14.3367189 Z M17.5463511,8.0369488 L15.4477318,18.1147335 L12.9072978,18.1147335 L15.0151216,8.0369488 L17.5463511,8.0369488 Z"/>
  </g>
</svg>
